<svg xmlns="http://www.w3.org/2000/svg" xmlns:xlink="http://www.w3.org/1999/xlink" viewBox="0 0 447.87 623.62">
  <defs>
    <style>
      .cls-1 {
        opacity: .24;
      }

      .cls-1, .cls-2, .cls-3, .cls-4, .cls-5, .cls-6, .cls-7, .cls-8, .cls-9, .cls-10, .cls-11, .cls-12, .cls-13, .cls-14, .cls-15, .cls-16, .cls-17, .cls-18, .cls-19, .cls-20, .cls-21, .cls-22, .cls-23, .cls-24, .cls-25, .cls-26, .cls-27, .cls-28, .cls-29, .cls-30, .cls-31, .cls-32, .cls-33, .cls-34 {
        stroke-width: 0px;
      }

      .cls-1, .cls-5, .cls-10, .cls-11, .cls-12, .cls-21, .cls-27, .cls-32 {
        fill: aqua;
      }

      .cls-2 {
        fill: url(#radial-gradient-13);
      }

      .cls-2, .cls-3, .cls-4, .cls-6, .cls-7, .cls-13, .cls-14, .cls-16, .cls-17, .cls-18, .cls-22, .cls-23, .cls-25, .cls-28, .cls-30, .cls-31, .cls-33, .cls-34 {
        mix-blend-mode: screen;
      }

      .cls-2, .cls-4, .cls-6, .cls-7, .cls-22, .cls-31, .cls-33, .cls-34 {
        opacity: .06;
      }

      .cls-3 {
        fill: url(#radial-gradient-3);
      }

      .cls-3, .cls-17 {
        opacity: .07;
      }

      .cls-35 {
        stroke-miterlimit: 10;
        stroke-width: 2px;
      }

      .cls-35, .cls-15, .cls-36 {
        fill: none;
      }

      .cls-35, .cls-36 {
        stroke: #22fff9;
      }

      .cls-4 {
        fill: url(#radial-gradient-14);
      }

      .cls-5 {
        opacity: .32;
      }

      .cls-6 {
        fill: url(#radial-gradient-9);
      }

      .cls-7 {
        fill: url(#radial-gradient-8);
      }

      .cls-8 {
        opacity: .15;
      }

      .cls-8, .cls-9, .cls-19, .cls-20, .cls-26, .cls-29 {
        fill: #22fff9;
      }

      .cls-9 {
        opacity: .22;
      }

      .cls-10 {
        opacity: .72;
      }

      .cls-37 {
        isolation: isolate;
      }

      .cls-12 {
        opacity: .41;
      }

      .cls-13 {
        fill: url(#radial-gradient-10);
        opacity: .13;
      }

      .cls-14 {
        fill: url(#radial-gradient-17);
      }

      .cls-14, .cls-18, .cls-23, .cls-25 {
        opacity: .04;
      }

      .cls-16 {
        fill: url(#radial-gradient-5);
      }

      .cls-16, .cls-28 {
        opacity: .02;
      }

      .cls-38 {
        clip-path: url(#clippath-1);
      }

      .cls-17 {
        fill: url(#radial-gradient-11);
      }

      .cls-18 {
        fill: url(#radial-gradient-18);
      }

      .cls-39, .cls-29 {
        opacity: .4;
      }

      .cls-20 {
        opacity: .34;
      }

      .cls-21 {
        opacity: .53;
      }

      .cls-22 {
        fill: url(#radial-gradient-7);
      }

      .cls-40 {
        opacity: .1;
      }

      .cls-41 {
        clip-path: url(#clippath);
      }

      .cls-23 {
        fill: url(#radial-gradient-19);
      }

      .cls-24 {
        fill: url(#radial-gradient);
      }

      .cls-25 {
        fill: url(#radial-gradient-2);
      }

      .cls-26 {
        opacity: .64;
      }

      .cls-36 {
        stroke-linecap: round;
        stroke-linejoin: round;
      }

      .cls-42 {
        mix-blend-mode: overlay;
      }

      .cls-27 {
        opacity: .82;
      }

      .cls-28 {
        fill: url(#radial-gradient-6);
      }

      .cls-30 {
        fill: url(#radial-gradient-4);
        opacity: .03;
      }

      .cls-31 {
        fill: url(#radial-gradient-16);
      }

      .cls-32 {
        opacity: .62;
      }

      .cls-33 {
        fill: url(#radial-gradient-15);
      }

      .cls-34 {
        fill: url(#radial-gradient-12);
      }
    </style>
    <radialGradient id="radial-gradient" cx="223.94" cy="311.81" fx="223.94" fy="311.81" r="271.45" gradientUnits="userSpaceOnUse">
      <stop offset="0" stop-color="#052b63"/>
      <stop offset="1" stop-color="#03173a"/>
    </radialGradient>
    <clipPath id="clippath">
      <rect class="cls-15" width="447.87" height="623.62"/>
    </clipPath>
    <clipPath id="clippath-1">
      <rect class="cls-15" x="-109.43" y="95.44" width="668.81" height="445.87" transform="translate(541.9 91.35) rotate(89.63)"/>
    </clipPath>
    <radialGradient id="radial-gradient-2" cx="77.03" cy="376.46" fx="77.03" fy="376.46" r="61.68" gradientTransform="translate(357.81 510.85) rotate(173.25)" gradientUnits="userSpaceOnUse">
      <stop offset="0" stop-color="aqua"/>
      <stop offset=".22" stop-color="#00fcfc"/>
      <stop offset=".35" stop-color="#00f3f3"/>
      <stop offset=".47" stop-color="#00e5e5"/>
      <stop offset=".57" stop-color="#00d0d0"/>
      <stop offset=".66" stop-color="#00b6b6"/>
      <stop offset=".75" stop-color="#009595"/>
      <stop offset=".83" stop-color="#006e6e"/>
      <stop offset=".9" stop-color="#004141"/>
      <stop offset=".98" stop-color="#000f0f"/>
      <stop offset="1" stop-color="#000"/>
    </radialGradient>
    <radialGradient id="radial-gradient-3" cx="19.28" cy="210.07" fx="19.28" fy="210.07" r="26.38" gradientTransform="translate(521.52 261.82) rotate(151.1)" xlink:href="#radial-gradient-2"/>
    <radialGradient id="radial-gradient-4" cx="131.12" cy="264.85" fx="131.12" fy="264.85" r="26.38" gradientTransform="translate(627.26 299.08) rotate(136.05)" xlink:href="#radial-gradient-2"/>
    <radialGradient id="radial-gradient-5" cx="324.46" cy="407.14" fx="324.46" fy="407.14" r="41.39" gradientTransform="translate(635.35 96.34) rotate(93.72)" xlink:href="#radial-gradient-2"/>
    <radialGradient id="radial-gradient-6" cx="495.07" cy="218.15" fx="495.07" fy="218.15" r="41.39" gradientTransform="translate(924.78 686.65) rotate(169.42)" xlink:href="#radial-gradient-2"/>
    <radialGradient id="radial-gradient-7" cx="126.73" cy="238.47" fx="126.73" fy="238.47" r="17.02" gradientTransform="translate(637.73 130.74) rotate(104.25)" xlink:href="#radial-gradient-2"/>
    <radialGradient id="radial-gradient-8" cx="384.74" cy="166.73" fx="384.74" fy="166.73" r="46.15" gradientTransform="translate(722.33 134.61) rotate(107.29)" xlink:href="#radial-gradient-2"/>
    <radialGradient id="radial-gradient-9" cx="121.38" cy="183.69" fx="121.38" fy="183.69" r="46.15" gradientTransform="translate(635.09 108.71) rotate(102.02)" xlink:href="#radial-gradient-2"/>
    <radialGradient id="radial-gradient-10" cx="-33.78" cy="166.75" fx="-33.78" fy="166.75" r="65.28" gradientTransform="translate(541.01 175.09) rotate(134.63)" xlink:href="#radial-gradient-2"/>
    <radialGradient id="radial-gradient-11" cx="29.24" cy="230.77" fx="29.24" fy="230.77" r="26.34" gradientTransform="translate(567.23 238.65) rotate(134.63)" xlink:href="#radial-gradient-2"/>
    <radialGradient id="radial-gradient-12" cx="182.03" cy="376.46" fx="182.03" fy="376.46" r="46.15" gradientTransform="translate(654.07 290.38) rotate(121.2)" xlink:href="#radial-gradient-2"/>
    <radialGradient id="radial-gradient-13" cx="572.61" cy="422.59" fx="572.61" fy="422.59" r="46.15" gradientTransform="translate(871.26 422.9) rotate(125.65)" xlink:href="#radial-gradient-2"/>
    <radialGradient id="radial-gradient-14" cx="289.15" cy="242.11" fx="289.15" fy="242.11" r="25.34" gradientTransform="translate(744.26 422.4) rotate(150)" xlink:href="#radial-gradient-2"/>
    <radialGradient id="radial-gradient-15" cx="572.6" cy="265.67" fx="572.6" fy="265.67" r="46.15" gradientTransform="translate(911.04 349.57) rotate(127.62)" xlink:href="#radial-gradient-2"/>
    <radialGradient id="radial-gradient-16" cx="-69.66" cy="313.67" fx="-69.66" fy="313.67" r="46.15" gradientTransform="translate(509.54 241.62) rotate(126.53)" xlink:href="#radial-gradient-2"/>
    <radialGradient id="radial-gradient-17" cx="411.28" cy="440.71" fx="411.28" fy="440.71" r="22.79" gradientTransform="translate(672.19 139.88) rotate(98.59)" xlink:href="#radial-gradient-2"/>
    <radialGradient id="radial-gradient-18" cx="359.18" cy="237.4" fx="359.18" fy="237.4" r="8.1" gradientTransform="translate(613.05 66.6) rotate(89.63)" xlink:href="#radial-gradient-2"/>
    <radialGradient id="radial-gradient-19" cx="239.39" cy="210.06" fx="239.39" fy="210.06" r="8.1" gradientTransform="translate(613.05 66.6) rotate(89.63)" xlink:href="#radial-gradient-2"/>
  </defs>
  <g class="cls-37">
    <g id="Layer_2" data-name="Layer 2">
      <g id="PRINT">
        <rect class="cls-24" width="447.87" height="623.62"/>
        
        
        <g>
          <g class="cls-40">
            <g class="cls-42">
              <path class="cls-19" d="M320.47,498.33s.1-.14.25-.35c.13-.21.2-.49.34-.77.03-.07.06-.14.1-.21,0-.07.01-.14.02-.2.02-.13.03-.26.05-.36.04-.21.06-.35.06-.35h15.42s-.03.16-.06.41c-.02.12-.04.27-.06.42,0,.08-.02.16-.03.24-.03.08-.07.16-.11.24-.15.33-.24.65-.4.9-.17.24-.29.4-.29.4l-15.3-.35Z"/>
              <path class="cls-19" d="M347.37,498.95s.13-.18.31-.45c.17-.27.27-.63.44-.99.04-.09.08-.18.11-.27.01-.09.02-.18.03-.26.02-.17.04-.33.06-.46.04-.27.07-.45.07-.45h30.71s-.03.22-.07.56c-.02.17-.05.36-.08.57-.02.1-.03.21-.05.32-.04.11-.09.22-.13.33-.19.45-.34.89-.55,1.23-.23.33-.38.56-.38.56l-30.47-.7Z"/>
              <path class="cls-19" d="M330.71,507.75s.31-.1.84-.27c.27-.08.59-.19.97-.31.37-.12.81-.25,1.21-.4.42-.15.87-.31,1.35-.48.48-.17,1.01-.35,1.46-.54.93-.38,2.02-.78,2.87-1.2.45-.21.9-.42,1.35-.62.39-.21.77-.41,1.14-.61.36-.2.76-.39,1.04-.57.29-.18.56-.36.81-.52.25-.16.48-.31.69-.44.17-.13.32-.25.44-.34.24-.19.38-.3.38-.3l29.95,1.24s-.17.14-.47.37c-.15.12-.34.26-.55.43-.25.16-.54.35-.85.55-.31.2-.66.42-1.02.65-.36.23-.84.47-1.29.72-.46.25-.94.5-1.43.76-.55.26-1.11.51-1.67.77-1.07.52-2.41,1.02-3.58,1.5-.57.24-1.23.46-1.82.68-.6.21-1.17.41-1.69.6-.51.19-1.05.35-1.51.5-.46.15-.87.28-1.2.38-.67.21-1.05.33-1.05.33l-26.36-2.87Z"/>
              <path class="cls-19" d="M312.83,511.97s.68-.13,1.71-.33c.5-.1,1.13-.21,1.73-.34.61-.13,1.25-.26,1.9-.4.64-.14,1.31-.27,1.89-.4.57-.13,1.11-.26,1.56-.36.92-.21,1.53-.35,1.53-.35l24.51,3.37s-.76.18-1.9.44c-.57.13-1.24.29-1.95.45-.72.16-1.55.33-2.35.5-.81.17-1.61.34-2.37.5-.75.16-1.52.3-2.15.42-1.27.24-2.12.41-2.12.41l-21.99-3.9Z"/>
              <path class="cls-19" d="M270.39,517.17s.57-.04,1.57-.11c.98-.08,2.38-.2,4.05-.33,1.7-.13,3.57-.32,5.63-.51,1.04-.09,2.06-.2,3.11-.31,1.05-.11,2.11-.22,3.18-.33,1.05-.12,2.07-.24,3.09-.36,1.01-.12,2.04-.23,2.96-.36.94-.12,1.85-.24,2.71-.35.87-.11,1.68-.22,2.39-.32,1.45-.21,2.66-.38,3.5-.5.43-.06.73-.11.95-.15.22-.03.33-.05.33-.05l19.8,4.27s-.14.02-.42.07c-.28.04-.66.11-1.19.18-1.05.15-2.55.37-4.35.62-.89.13-1.9.26-2.97.4-1.07.14-2.2.28-3.37.44-1.15.16-2.43.29-3.69.44-1.27.15-2.55.3-3.85.45-1.33.14-2.65.28-3.95.41-1.3.14-2.59.27-3.87.39-2.56.23-4.91.47-7.02.63-2.09.17-3.84.31-5.06.42-1.24.09-1.96.14-1.96.14l-11.58-5.18Z"/>
              <path class="cls-19" d="M242.18,518.59s.24,0,.67-.02c.43-.01,1.03-.03,1.76-.06.73-.02,1.58-.05,2.49-.08.46-.01.93-.03,1.41-.05.47-.02.96-.04,1.44-.06,1.92-.08,3.86-.15,5.29-.23,1.43-.07,2.38-.12,2.38-.12l8.42,5.38s-1.19.06-2.97.15c-1.78.09-4.19.18-6.59.29-.6.02-1.2.05-1.79.07-.6.02-1.18.04-1.75.06-1.14.04-2.2.07-3.11.1-.91.03-1.67.05-2.2.07-.53.02-.84.03-.84.03l-4.6-5.53Z"/>
              <path class="cls-19" d="M191.06,518.08s.15,0,.42.02c.27.02.68.03,1.21.06,1.05.04,2.54.11,4.34.18.89.04,1.88.07,2.92.1,1.04.03,2.13.07,3.27.11,1.13.04,2.32.06,3.51.09,1.2.03,2.42.06,3.64.08,1.22.02,2.45.03,3.66.05,1.21.01,2.39.04,3.54.04,2.3,0,4.46.03,6.3.02,1.84,0,3.38-.02,4.46-.02.54,0,.96,0,1.25,0,.29,0,.44,0,.44,0l1.63,5.58s-.19,0-.55,0c-.36,0-.88,0-1.55,0-1.33,0-3.24.01-5.53.03-2.29,0-4.96-.02-7.82-.03-1.43,0-2.91-.03-4.41-.05-1.5-.02-3.02-.04-4.55-.07-1.52-.03-3.03-.07-4.53-.1-1.49-.04-2.97-.06-4.38-.11-1.41-.05-2.78-.09-4.07-.13-1.29-.04-2.52-.08-3.64-.13-2.24-.09-4.1-.17-5.41-.23-.65-.03-1.16-.05-1.51-.07-.35-.02-.53-.03-.53-.03l7.88-5.4Z"/>
              <path class="cls-19" d="M163.85,516.12s.88.08,2.2.2c1.32.12,3.06.29,4.88.43,1.81.15,3.58.3,4.98.4,1.38.1,2.3.16,2.3.16l-11.06,5.21s-1.15-.08-2.87-.21c-1.74-.12-3.96-.31-6.21-.49-2.26-.18-4.44-.39-6.09-.54-1.64-.15-2.74-.26-2.74-.26l14.6-4.92Z"/>
              <path class="cls-19" d="M137.4,512.63s.23.04.64.11c.41.07.97.17,1.71.29.73.11,1.58.25,2.48.39.45.07.92.15,1.4.22.5.07,1,.14,1.5.22,1.01.14,2.02.29,2.96.42.96.13,1.89.25,2.67.35.78.1,1.44.19,1.89.25.46.06.72.09.72.09l-17.17,4.63s-.33-.04-.9-.11c-.57-.07-1.38-.18-2.36-.3-.97-.13-2.12-.27-3.32-.44-1.18-.17-2.43-.35-3.69-.53-.63-.09-1.25-.18-1.87-.27-.59-.09-1.18-.19-1.75-.27-1.13-.18-2.18-.34-3.09-.49-.92-.14-1.61-.27-2.13-.36-.51-.09-.79-.14-.79-.14l21.08-4.06Z"/>
              <path class="cls-19" d="M115.78,507.74s.12.04.34.11.56.16.96.28c.4.11.87.25,1.37.39.5.14,1.01.3,1.61.44,1.16.29,2.28.59,3.17.8.92.21,1.53.35,1.53.35l-24.17,3.45s-.76-.18-1.9-.44c-1.11-.27-2.51-.64-3.94-1-.73-.18-1.37-.37-2-.55-.62-.18-1.2-.34-1.7-.48-.49-.14-.92-.26-1.19-.34-.27-.08-.42-.13-.42-.13l26.36-2.87Z"/>
              <path class="cls-19" d="M99.14,498.94s.08.11.21.3c.07.1.13.22.26.35.13.13.28.29.44.45.16.16.34.34.52.53.19.19.48.38.72.59.26.2.53.41.8.63.33.21.67.43,1,.64,1.33.86,3.06,1.7,4.45,2.32.32.16.67.3.99.42.31.12.58.23.8.32.44.18.69.28.69.28l-27.78,2.38s-.32-.13-.87-.35c-.28-.11-.61-.25-.99-.4-.39-.15-.82-.33-1.23-.52-1.73-.77-3.89-1.82-5.55-2.89-.42-.27-.83-.54-1.24-.8-.34-.27-.68-.53-1.01-.78-.31-.25-.66-.5-.9-.73-.23-.24-.45-.46-.66-.66-.2-.21-.38-.39-.55-.56-.15-.17-.23-.31-.33-.44-.17-.24-.27-.38-.27-.38l30.48-.7Z"/>
              <path class="cls-19" d="M98.86,493.61s-.03.04-.09.12c-.03.08-.08.19-.14.33-.09.27-.3.63-.37.99-.05.36-.1.72-.14.99.03.27.05.45.05.45l-30.71.1s-.04-.22-.06-.56c.05-.34.11-.78.17-1.23.09-.45.34-.89.46-1.23.07-.17.14-.31.18-.4.07-.1.1-.15.1-.15l30.54.6Z"/>
              <path class="cls-19" d="M114.68,484.76s-.31.1-.84.27c-.57.17-1.24.42-2.08.72-.42.15-.87.31-1.35.48-.43.18-.89.36-1.36.55-.24.1-.48.19-.72.29-.12.05-.25.1-.37.15-.11.05-.22.1-.33.15-.44.2-.89.41-1.34.62-.22.1-.47.21-.66.31-.2.11-.39.21-.58.31-.39.21-.77.41-1.14.61-.67.4-1.22.78-1.74,1.1-.84.65-1.4,1.09-1.4,1.09l-30.07-1.14s.17-.14.47-.37c.31-.24.71-.58,1.27-.98.63-.4,1.33-.87,2.17-1.37.46-.25.93-.5,1.41-.76.24-.13.49-.26.73-.39.25-.13.55-.26.82-.39.56-.26,1.12-.52,1.68-.77.14-.06.28-.13.42-.19.15-.06.3-.12.46-.18.3-.12.6-.24.9-.36.59-.24,1.17-.47,1.71-.69.6-.21,1.16-.42,1.68-.6,1.05-.37,1.9-.68,2.6-.89.67-.21,1.05-.33,1.05-.33l26.64,2.78Z"/>
              <path class="cls-19" d="M132.12,480.48s-.17.03-.47.09c-.29.06-.74.14-1.23.24-.97.2-2.27.48-3.56.75-1.23.28-2.45.57-3.37.78-.47.1-.82.2-1.07.26-.25.06-.39.1-.39.1l-24.83-3.29.49-.13c.31-.08.75-.19,1.33-.33,1.14-.26,2.65-.62,4.2-.97,1.61-.34,3.22-.68,4.43-.93.61-.13,1.16-.22,1.52-.3.37-.07.58-.11.58-.11l22.37,3.83Z"/>
              <path class="cls-19" d="M174.04,475.13s-.56.05-1.54.13c-.97.08-2.39.19-4.04.34-1.63.16-3.57.32-5.58.53-1,.1-2.03.21-3.08.32-.52.06-1.06.11-1.58.17-.51.06-1.03.12-1.55.18-1.03.12-2.07.24-3.09.36-1,.12-1.96.25-2.9.37-.93.12-1.86.23-2.69.35-.83.12-1.61.23-2.34.33-.72.1-1.39.2-1.98.28-.57.09-1.06.17-1.46.23-.81.13-1.28.2-1.28.2l-20.22-4.21s.58-.09,1.59-.25c.51-.08,1.12-.18,1.83-.29.73-.1,1.56-.22,2.46-.35.9-.13,1.88-.27,2.91-.42,1.04-.15,2.19-.29,3.35-.44,1.17-.15,2.37-.31,3.62-.46,1.27-.15,2.55-.3,3.84-.45.64-.07,1.29-.15,1.93-.22.65-.07,1.31-.14,1.96-.21,1.31-.14,2.59-.27,3.83-.4,2.5-.25,4.92-.47,6.95-.66,2.06-.18,3.82-.32,5.04-.42,1.22-.1,1.92-.16,1.92-.16l12.09,5.14Z"/>
              <path class="cls-19" d="M202.11,473.63s-.97.03-2.43.08c-1.47.04-3.39.13-5.31.21-.96.04-1.93.08-2.82.12-.89.05-1.72.09-2.44.13-1.43.07-2.38.12-2.38.12l-8.95-5.35s1.19-.06,2.96-.15c.89-.05,1.93-.1,3.04-.16,1.11-.06,2.32-.1,3.52-.15,2.4-.1,4.8-.21,6.63-.26,1.82-.06,3.03-.1,3.03-.1l5.15,5.51Z"/>
              <path class="cls-19" d="M234.76,473.4s-1.28-.02-3.2-.04c-1.91-.04-4.48-.03-7.05-.05-1.28-.01-2.57,0-3.77,0-1.2,0-2.32.01-3.29.01-.96,0-1.76.02-2.32.03-.56,0-.88.01-.88.01l-2.17-5.58s.4,0,1.09-.01c.7,0,1.69-.03,2.88-.03,1.19,0,2.59-.01,4.08-.02,1.49,0,3.08-.02,4.68,0,3.18.02,6.37.02,8.75.06,2.38.03,3.97.06,3.97.06l-2.79,5.57Z"/>
              <path class="cls-19" d="M268.33,474.83s-.91-.07-2.3-.16c-1.4-.09-3.28-.2-5.15-.32-1.89-.11-3.8-.2-5.22-.27-.71-.04-1.31-.07-1.73-.08-.42-.02-.66-.03-.66-.03l7.34-5.43s.3.01.83.03c.53.02,1.27.06,2.16.1,1.78.09,4.16.21,6.51.34,2.34.14,4.67.29,6.42.4,1.73.12,2.87.2,2.87.2l-11.07,5.21Z"/>
              <path class="cls-19" d="M311.29,479.89s-.44-.08-1.22-.21c-.79-.13-1.86-.33-3.25-.55-.7-.11-1.45-.23-2.25-.35-.8-.12-1.62-.26-2.54-.39-1.83-.26-3.7-.55-5.74-.8-1-.13-2-.26-2.99-.39-1.02-.12-2.02-.24-2.99-.35-.98-.11-1.89-.23-2.81-.32-.91-.1-1.78-.19-2.58-.27-.8-.08-1.53-.16-2.18-.23-.67-.06-1.25-.12-1.73-.16-.96-.09-1.5-.14-1.5-.14l13.83-4.99s.68.06,1.87.17c.6.06,1.32.12,2.15.2.82.08,1.72.18,2.72.28.99.1,2.07.22,3.21.34,1.15.12,2.29.26,3.5.4,1.2.14,2.45.29,3.71.44,1.23.16,2.47.32,3.72.48,2.53.31,4.88.67,7.14.99,1.14.16,2.16.33,3.16.48.99.16,1.93.3,2.8.44,1.72.28,3.06.52,4.04.69.97.17,1.52.26,1.52.26l-21.61,3.97Z"/>
              <path class="cls-19" d="M329.55,484.06s-.53-.15-1.33-.38c-.41-.11-.85-.25-1.38-.39-.54-.14-1.11-.28-1.69-.43-.57-.15-1.15-.29-1.69-.43-.57-.13-1.11-.26-1.57-.36-.92-.21-1.53-.35-1.53-.35l23.83-3.53s.76.18,1.9.44c.57.13,1.23.29,1.94.45.67.17,1.39.35,2.11.53.71.18,1.42.37,2.09.54.65.17,1.22.34,1.72.48,1,.28,1.66.47,1.66.47l-26.07,2.95Z"/>
              <path class="cls-19" d="M348.39,496.08s-.02-.16-.07-.45c-.06-.29-.03-.69-.29-1.18-.29-.98-1.3-2.27-2.92-3.54-.2-.16-.4-.32-.6-.48-.22-.16-.48-.31-.72-.47-.5-.31-.9-.62-1.48-.9-.54-.29-1.06-.57-1.55-.83-.56-.26-1.1-.51-1.59-.73-.25-.11-.47-.22-.72-.33-.25-.1-.49-.2-.72-.29-.45-.18-.84-.34-1.16-.47-.32-.13-.57-.23-.77-.3-.19-.07-.29-.1-.29-.1l27.54-2.48s.13.05.36.13c.25.08.56.21.97.37.4.16.89.36,1.45.58.28.11.58.23.89.36.31.13.59.26.9.41.61.28,1.28.59,1.98.92.62.33,1.27.68,1.95,1.04.71.36,1.23.74,1.85,1.13.29.19.61.39.89.58.25.2.5.4.76.59,2.03,1.58,3.27,3.2,3.64,4.41.31.61.3,1.11.36,1.47.05.35.07.56.07.56h-30.71Z"/>
              <path class="cls-19" d="M405.84,496.08s-.02-.21-.07-.61c-.03-.2-.06-.44-.1-.73-.03-.14-.03-.3-.1-.46-.06-.16-.13-.34-.21-.52-.5-1.47-1.87-3.58-5.37-6.05-1.84-1.23-4.01-2.55-7.04-3.9-1.41-.68-3.16-1.36-4.9-2.05-.91-.34-1.89-.69-2.87-1.03-.49-.17-.99-.35-1.49-.52-.53-.17-1.07-.34-1.61-.51-1.1-.34-2.15-.69-3.34-1.03-1.19-.34-2.4-.68-3.61-1.02-1.23-.34-2.57-.67-3.87-1.01-.66-.17-1.31-.34-2-.5-.7-.16-1.4-.33-2.1-.49-2.77-.66-5.82-1.29-8.87-1.92-1.59-.3-3.19-.61-4.79-.92l-1.21-.23-1.25-.22-2.52-.44c-13.46-2.33-29-4.25-44.64-5.65l-1.46-.13-1.48-.12c-.98-.08-1.96-.16-2.94-.24-1.95-.16-3.88-.32-5.85-.46-1.96-.14-3.89-.28-5.8-.41-1.93-.13-3.86-.24-5.75-.36-.95-.06-1.89-.11-2.83-.17-.94-.05-1.89-.1-2.82-.15-1.87-.1-3.71-.19-5.53-.28-1.82-.09-3.63-.16-5.4-.23-1.77-.07-3.5-.15-5.22-.21-1.72-.06-3.4-.11-5.04-.16-.82-.03-1.64-.05-2.44-.08-.8-.02-1.6-.04-2.39-.06-1.58-.04-3.11-.07-4.6-.11-.75-.02-1.48-.03-2.21-.05-.73-.02-1.44-.02-2.15-.03-2.82-.04-5.46-.08-7.9-.1-2.44-.01-4.68-.02-6.7-.03-2.02-.01-3.83,0-5.4,0-1.57,0-2.91.01-3.99.02-2.17,0-3.32.03-3.32.03l-.3-.94s1.19-.02,3.42-.03c1.11,0,2.49-.01,4.11-.02,1.62,0,3.47-.02,5.56,0,2.08.01,4.38.02,6.89.03,2.51.02,5.22.07,8.12.11.72.01,1.46.02,2.21.03.75.02,1.5.03,2.27.05,1.53.04,3.11.07,4.73.11.81.02,1.63.04,2.46.06.83.03,1.66.05,2.51.08,1.69.06,3.42.11,5.19.17,1.77.05,3.55.14,5.37.21,1.82.08,3.68.15,5.55.24,1.86.1,3.76.19,5.68.29.96.05,1.93.1,2.9.15.96.06,1.93.12,2.91.18,1.95.12,3.93.24,5.92.37,1.97.14,3.96.28,5.97.43,2.02.14,4,.31,6.01.47,1,.08,2.01.17,3.02.25l1.52.13,1.5.14c16.09,1.44,32.07,3.42,45.91,5.81l2.59.45,1.29.23,1.24.23c1.64.31,3.28.63,4.92.94,3.14.65,6.27,1.3,9.12,1.98.72.17,1.44.34,2.16.5.71.17,1.37.34,2.06.52,1.34.35,2.72.69,3.98,1.04,1.24.35,2.48.7,3.71,1.05,1.22.35,2.3.71,3.43,1.06.55.18,1.11.35,1.66.53.51.18,1.02.36,1.53.54,1,.36,2.02.71,2.95,1.06,1.79.72,3.59,1.41,5.04,2.11,3.11,1.39,5.35,2.75,7.24,4.01,3.6,2.53,5,4.71,5.52,6.22.07.19.15.37.21.54.07.17.07.33.1.47.04.29.08.54.11.75.05.41.07.62.07.62h-5.19Z"/>
              <path class="cls-19" d="M172.59,464.15s-1.12.06-3.22.17c-2.08.12-5.11.31-8.97.55-7.63.52-18.41,1.34-30.41,2.64-1.52.15-3,.33-4.54.51-1.52.18-3.09.36-4.65.55-1.53.2-3.09.4-4.67.6-.79.1-1.59.2-2.37.31-.78.11-1.56.22-2.34.33-6.35.88-12.6,1.91-18.72,3.03-12.16,2.26-23.34,5.01-31.81,8.02-2.19.75-4.06,1.52-5.94,2.29-.85.39-1.7.78-2.55,1.17l-.63.29-.57.3c-.37.2-.74.4-1.11.59-.36.2-.73.4-1.09.59-.35.2-.64.4-.96.6-.61.4-1.26.79-1.81,1.19-.51.4-1.01.79-1.51,1.19l-.36.29-.3.3c-.2.2-.39.39-.58.59-.84.78-1.29,1.56-1.82,2.31-.22.38-.35.76-.51,1.13-.16.37-.31.74-.34,1.1-.05.36-.1.72-.14,1.07-.05.35.05.7.08,1.04.06.34.07.67.19,1,.13.33.27.65.39.97,1.14,2.53,3.75,4.6,5.9,6.03.56.36,1.06.67,1.5.95.46.28.91.51,1.25.69.7.38,1.08.58,1.08.58l-4.89.31s-.39-.21-1.11-.59c-.35-.19-.81-.43-1.29-.71-.45-.28-.96-.61-1.54-.98-2.21-1.47-4.89-3.6-6.07-6.2-.13-.32-.27-.66-.4-.99-.12-.34-.13-.68-.2-1.03-.03-.35-.13-.71-.08-1.07.05-.36.1-.73.15-1.1.03-.37.18-.75.35-1.13.17-.38.3-.77.53-1.16.54-.78,1.01-1.58,1.87-2.38.2-.2.4-.4.6-.6l.31-.3.37-.3c.51-.4,1.03-.81,1.55-1.22.56-.41,1.23-.81,1.86-1.22.33-.2.63-.41.99-.61.37-.2.75-.41,1.12-.61.38-.2.76-.41,1.14-.61l.58-.31.64-.3c.87-.4,1.75-.8,2.63-1.21,1.93-.79,3.86-1.59,6.11-2.36,8.71-3.1,20.21-5.92,32.71-8.25,6.29-1.16,12.71-2.22,19.24-3.12.81-.11,1.61-.23,2.41-.34.81-.11,1.63-.22,2.44-.32,1.63-.21,3.23-.42,4.8-.62,1.6-.2,3.21-.38,4.78-.56,1.58-.18,3.1-.37,4.67-.52,12.34-1.33,23.43-2.18,31.28-2.71,3.96-.25,7.08-.44,9.22-.56,2.16-.11,3.31-.17,3.31-.17l1.44.91Z"/>
              <path class="cls-19" d="M68.84,513.8s.63.18,1.8.51c1.14.34,3.02.81,5.38,1.41,4.82,1.19,12.14,2.84,22.29,4.57,10.09,1.74,23.17,3.54,38.51,5.05,7.69.75,15.94,1.42,24.55,1.99,8.63.57,17.64,1.01,26.77,1.34,2.29.07,4.58.15,6.87.22,2.3.06,4.6.11,6.89.17,1.15.02,2.29.06,3.44.07,1.15.02,2.3.03,3.44.05,1.15.02,2.29.03,3.43.05l1.71.02h1.71c2.28.02,4.55.03,6.8.04,2.26,0,4.5-.01,6.73-.02,1.12,0,2.23-.01,3.34-.02,1.11-.01,2.21-.03,3.32-.04,2.2-.03,4.39-.06,6.55-.1,4.32-.1,8.58-.18,12.71-.33,1.03-.03,2.06-.07,3.08-.1s2.04-.07,3.04-.11c2-.08,3.98-.17,5.93-.25,1.96-.08,3.84-.18,5.72-.28,1.87-.1,3.72-.19,5.51-.29,1.78-.11,3.54-.22,5.26-.32.86-.05,1.71-.11,2.55-.16.83-.06,1.65-.12,2.47-.17,13.05-.91,23.26-1.94,30.2-2.71,1.71-.2,3.24-.38,4.57-.53.66-.08,1.28-.15,1.84-.22.55-.07,1.05-.13,1.49-.19,1.78-.23,2.72-.35,2.72-.35l3.02.77s-.97.13-2.8.36c-.46.06-.97.12-1.54.2-.58.07-1.21.14-1.89.22-1.37.16-2.94.34-4.7.55-7.13.79-17.63,1.85-31.06,2.79-.84.06-1.68.12-2.54.18-.87.05-1.74.11-2.62.17-1.77.11-3.58.22-5.41.33-1.84.11-3.75.2-5.67.3-1.93.1-3.87.21-5.88.29-2.01.08-4.04.17-6.1.26-1.03.04-2.07.08-3.12.11-1.05.03-2.11.07-3.17.1-4.24.15-8.62.24-13.07.34-2.23.04-4.47.07-6.74.1-1.13.01-2.27.03-3.41.04-1.14,0-2.28.01-3.43.02-2.29,0-4.6.03-6.92.02-2.32-.01-4.65-.02-6.99-.03h-1.76s-1.76-.03-1.76-.03c-1.17-.02-2.35-.03-3.53-.05-1.18-.02-2.36-.03-3.54-.05-1.18-.02-2.36-.05-3.54-.07-2.36-.05-4.73-.11-7.09-.17-2.35-.08-4.71-.15-7.06-.23-9.38-.34-18.66-.8-27.53-1.38-8.85-.59-17.35-1.28-25.25-2.05-15.77-1.56-29.23-3.4-39.6-5.19-10.44-1.78-17.96-3.48-22.92-4.7-2.42-.62-4.36-1.1-5.53-1.45-1.21-.34-1.86-.53-1.86-.53l4.39-.5Z"/>
              <path class="cls-19" d="M212.68,529.24s1.16.02,3.32.03c1.08,0,2.42.01,3.99.02,1.57,0,3.38.02,5.4,0,2.02,0,4.26-.02,6.7-.03,2.44-.02,5.08-.06,7.9-.1.7-.01,1.42-.02,2.15-.03.72-.02,1.46-.03,2.21-.05,1.49-.03,3.03-.07,4.6-.11.79-.02,1.59-.04,2.39-.06.8-.03,1.62-.05,2.44-.08,1.64-.05,3.32-.11,5.04-.16,1.72-.05,3.45-.14,5.22-.21,1.77-.08,3.58-.15,5.4-.23,1.81-.09,3.65-.19,5.53-.28.93-.05,1.88-.1,2.82-.15.94-.06,1.88-.11,2.83-.17,1.89-.12,3.82-.23,5.75-.36,1.91-.14,3.85-.27,5.8-.41,1.96-.14,3.89-.3,5.85-.46.98-.08,1.96-.16,2.94-.24l1.48-.12,1.46-.13c15.64-1.4,31.18-3.32,44.64-5.65l2.52-.44,1.25-.22,1.21-.23c1.6-.31,3.19-.61,4.79-.92,3.05-.63,6.1-1.26,8.87-1.92.7-.16,1.4-.33,2.1-.49.69-.16,1.33-.33,2-.5,1.3-.34,2.65-.67,3.87-1.01,1.21-.34,2.41-.68,3.61-1.02,1.19-.34,2.24-.69,3.34-1.03.54-.17,1.08-.34,1.61-.51.5-.17.99-.35,1.49-.52.97-.35,1.96-.69,2.87-1.03,1.74-.7,3.49-1.37,4.9-2.05,3.02-1.35,5.2-2.67,7.04-3.9,3.5-2.46,4.87-4.58,5.37-6.05.07-.18.14-.36.21-.52.07-.16.07-.32.1-.46.04-.29.08-.53.1-.73.05-.39.07-.61.07-.61h5.19s-.02.22-.07.62c-.03.2-.07.45-.11.75-.03.15-.03.31-.1.47-.07.17-.14.35-.21.54-.52,1.51-1.92,3.68-5.52,6.22-1.89,1.26-4.13,2.62-7.24,4.01-1.45.7-3.25,1.4-5.04,2.11-.93.35-1.95.71-2.95,1.06-.51.18-1.02.36-1.53.54-.55.18-1.1.35-1.66.53-1.13.35-2.21.71-3.43,1.06-1.23.35-2.47.7-3.71,1.05-1.26.35-2.64.69-3.98,1.04-.68.17-1.35.35-2.06.52-.72.17-1.44.34-2.16.5-2.85.68-5.98,1.33-9.12,1.98-1.64.31-3.28.63-4.92.94l-1.24.23-1.29.23-2.59.45c-13.84,2.39-29.82,4.37-45.91,5.81l-1.5.14-1.52.13c-1.01.08-2.02.17-3.02.25-2.01.16-3.99.33-6.01.47-2.01.14-4,.29-5.97.43-1.99.13-3.97.25-5.92.37-.98.06-1.95.12-2.91.18-.97.06-1.94.1-2.9.15-1.92.1-3.82.2-5.68.29-1.87.09-3.73.16-5.55.24-1.82.07-3.6.16-5.37.21-1.77.06-3.5.11-5.19.17-.85.03-1.68.05-2.51.08-.83.03-1.65.04-2.46.06-1.62.04-3.2.07-4.73.11-.77.02-1.52.03-2.27.05-.75.02-1.48.02-2.21.03-2.9.04-5.61.08-8.12.11-2.51.01-4.81.02-6.89.03-2.08.01-3.94,0-5.56,0-1.62,0-2.99-.01-4.11-.02-2.23,0-3.42-.03-3.42-.03l.3-.94Z"/>
              <path class="cls-19" d="M323.45,506.96s.49-.15,1.34-.43c.9-.27,1.99-.67,3.34-1.14,2.58-.96,5.55-2.29,7.6-3.67,2.11-1.38,3.29-2.79,3.76-3.86.1-.27.23-.51.3-.73.03-.22.05-.41.07-.57.05-.31.07-.49.07-.49h4.79s-.03.19-.08.51c-.02.16-.05.36-.08.59-.07.23-.2.48-.31.76-.49,1.11-1.72,2.59-3.91,4.02-2.14,1.43-5.23,2.82-7.92,3.82-1.4.5-2.53.91-3.47,1.19-.89.28-1.4.44-1.4.44l-4.11-.45Z"/>
              <path class="cls-19" d="M314.69,496.08s-.02-.1-.05-.3c-.01-.1-.03-.22-.05-.37-.02-.07,0-.15-.04-.24-.04-.08-.08-.17-.12-.27-.26-.77-.94-1.89-3.06-3.26-.27-.17-.54-.35-.82-.53-.33-.18-.67-.36-1.02-.55-.31-.19-.75-.37-1.16-.57-.43-.19-.79-.39-1.32-.58-1.85-.79-4.28-1.61-7.29-2.45-5.99-1.66-14.52-3.36-25.74-4.73-5.61-.68-11.85-1.27-18.62-1.74-.83-.07-1.71-.11-2.57-.16-.87-.05-1.72-.11-2.6-.16-.88-.05-1.77-.09-2.67-.14l-1.34-.07c-.45-.02-.91-.04-1.36-.06-.91-.04-1.82-.08-2.74-.12-.92-.04-1.86-.06-2.79-.09l-1.4-.05-.7-.02-.71-.02c-.95-.02-1.9-.04-2.86-.07-.95-.03-1.93-.03-2.9-.05-.97-.01-1.95-.03-2.92-.04-.98,0-1.97,0-2.96-.01h-1.49c-.5,0-.99,0-1.49,0-1,0-2,0-3,.01-1,0-2,.03-3,.04-2.01.02-4,.08-6.01.12-3.99.12-8.02.25-11.96.47-2,.09-3.93.23-5.91.34-.97.07-1.93.14-2.91.21l-1.46.1-1.43.12c-7.68.61-15.01,1.45-21.68,2.46l-2.47.39c-.82.13-1.57.27-2.38.41-.39.07-.8.14-1.19.21l-1.13.22-1.14.22c-.38.07-.77.14-1.11.22-2.95.59-5.59,1.24-8.09,1.9l-1.79.51c-.59.17-1.1.35-1.67.52-.27.09-.57.17-.83.26l-.75.27-.76.27c-.26.09-.52.18-.73.27l-1.37.55c-.45.19-.81.38-1.23.56-.2.09-.43.19-.61.28l-.52.29-.54.29c-.19.1-.37.19-.5.29l-.92.59c-.3.2-.5.4-.77.59l-.39.3-.28.3c-.18.2-.43.4-.57.6-.65.81-.91,1.63-1,2.45.08.82.34,1.64,1,2.45.14.2.4.4.57.6l.28.3.39.3c.27.2.47.4.77.59l.92.58c.13.1.32.19.5.29l.54.29.52.29c.19.1.41.19.61.28.42.19.79.38,1.23.56l1.37.55c.21.09.47.18.73.27l.76.27.75.27c.26.09.56.17.83.26.57.17,1.08.35,1.67.52l1.79.51c2.49.66,5.14,1.31,8.09,1.9.34.08.73.15,1.11.22l1.14.22,1.13.22c.39.07.8.14,1.19.21.8.14,1.56.28,2.38.41l2.47.39c6.67,1.01,13.99,1.85,21.68,2.46l1.43.12,1.46.1c.97.07,1.93.14,2.91.21,1.98.11,3.91.25,5.91.34,3.94.22,7.97.35,11.96.47,2.01.04,4,.1,6.01.12,1,.01,2,.03,3,.04,1,0,2,0,3,.01.5,0,1,0,1.49,0h1.49c.99-.01,1.98-.02,2.96-.02.98-.01,1.95-.03,2.92-.04.97-.01,1.94-.02,2.9-.05.96-.02,1.91-.04,2.86-.07l.71-.02.7-.02,1.4-.05c.93-.03,1.87-.05,2.79-.09.92-.04,1.83-.08,2.74-.12.45-.02.91-.04,1.36-.06l1.34-.07c.89-.05,1.78-.09,2.67-.14.88-.05,1.74-.11,2.6-.16.86-.06,1.74-.1,2.57-.16,6.76-.47,13-1.06,18.62-1.74,11.22-1.37,19.74-3.07,25.74-4.73,3-.83,5.44-1.66,7.29-2.45.53-.19.89-.39,1.32-.58.41-.19.86-.38,1.16-.57.35-.19.69-.37,1.02-.55.28-.18.55-.36.82-.53,2.11-1.37,2.8-2.5,3.06-3.26.04-.1.08-.19.12-.27.04-.08.02-.16.04-.24.02-.15.04-.27.05-.37.04-.2.05-.3.05-.3h2.67s-.02.11-.05.31c-.01.1-.03.23-.05.38-.02.08,0,.16-.04.24-.04.09-.08.18-.13.28-.27.79-.97,1.94-3.15,3.36-.27.18-.55.36-.84.54-.34.18-.69.37-1.05.56-.32.19-.77.38-1.2.58-.44.2-.82.4-1.36.6-1.9.81-4.41,1.66-7.5,2.52-6.17,1.71-14.94,3.46-26.48,4.87-5.78.7-12.2,1.31-19.16,1.79-.85.07-1.76.11-2.64.17-.89.05-1.78.11-2.68.16-.91.05-1.83.09-2.74.14l-1.38.07c-.46.02-.94.04-1.4.06-.94.04-1.88.08-2.82.12-.94.04-1.91.06-2.87.1l-1.44.05-.72.02-.73.02c-.98.02-1.96.05-2.94.07-.98.03-1.98.04-2.98.05-1,.01-2,.03-3.01.04-1.01,0-2.03,0-3.05.01h-1.53c-.51,0-1.02,0-1.54,0-1.03,0-2.05,0-3.09-.01-1.03,0-2.05-.03-3.09-.04-2.07-.02-4.12-.08-6.19-.12-4.11-.12-8.25-.26-12.31-.49-2.06-.09-4.04-.24-6.09-.35-1-.07-1.99-.14-2.99-.21l-1.51-.11-1.47-.12c-7.91-.63-15.45-1.49-22.31-2.53-.84-.13-1.69-.27-2.54-.4-.84-.14-1.62-.28-2.44-.42-.41-.07-.82-.14-1.22-.21l-1.16-.22-1.17-.22c-.39-.07-.79-.15-1.15-.23-3.04-.61-5.76-1.27-8.32-1.96l-1.84-.52c-.61-.18-1.13-.36-1.72-.54-.28-.09-.58-.18-.85-.27l-.77-.28-.78-.28c-.27-.09-.53-.18-.75-.28l-1.41-.57c-.46-.19-.84-.39-1.27-.58-.21-.1-.44-.19-.63-.29l-.54-.3-.55-.3c-.19-.1-.38-.2-.52-.3l-.94-.6c-.31-.2-.51-.41-.79-.61l-.4-.31-.29-.31c-.18-.21-.45-.41-.59-.62-.67-.83-.94-1.67-1.02-2.52.08-.85.35-1.69,1.02-2.52.14-.21.41-.41.59-.62l.29-.31.4-.31c.28-.2.48-.41.79-.61l.94-.6c.14-.1.33-.2.52-.3l.55-.3.54-.3c.19-.1.42-.19.63-.29.44-.19.81-.39,1.27-.58l1.41-.57c.22-.1.48-.19.75-.28l.78-.28.77-.28c.27-.09.57-.18.85-.27.58-.18,1.11-.36,1.72-.54l1.84-.52c2.57-.68,5.29-1.35,8.32-1.96.36-.08.75-.15,1.15-.23l1.17-.22,1.16-.22c.4-.07.82-.14,1.22-.21.82-.14,1.61-.29,2.44-.42.85-.13,1.69-.27,2.54-.4,6.86-1.04,14.4-1.9,22.31-2.53l1.47-.12,1.51-.11c1-.07,1.99-.15,2.99-.21,2.04-.12,4.02-.26,6.09-.35,4.06-.23,8.2-.37,12.31-.49,2.07-.04,4.12-.11,6.19-.12,1.03-.01,2.06-.03,3.09-.04,1.03,0,2.06,0,3.09-.01.51,0,1.02,0,1.54,0h1.53c1.02.01,2.03.02,3.05.02,1.01.01,2.01.03,3.01.04,1,.01,2,.02,2.98.05.98.02,1.97.05,2.94.07l.73.02.72.02,1.44.05c.96.03,1.93.06,2.87.1.94.04,1.88.08,2.82.12.47.02.94.04,1.4.06l1.38.07c.92.05,1.83.09,2.74.14.9.05,1.79.11,2.68.16.88.06,1.79.1,2.64.17,6.96.48,13.39,1.09,19.16,1.79,11.55,1.41,20.31,3.16,26.48,4.87,3.09.86,5.6,1.7,7.5,2.52.54.2.92.4,1.36.6.43.2.88.39,1.2.58.36.19.71.38,1.05.56.29.19.57.37.84.54,2.18,1.41,2.88,2.57,3.15,3.36.04.1.09.19.13.28.05.09.02.17.04.24.02.15.04.28.05.38.04.2.05.31.05.31h-2.67Z"/>
              <path class="cls-19" d="M304.73,496.08s-.02-.09-.05-.27c-.01-.09-.03-.2-.04-.33-.01-.07,0-.14-.03-.21-.04-.08-.07-.16-.11-.24-.23-.68-.84-1.68-2.72-2.91-.23-.15-.48-.31-.72-.47-.31-.16-.61-.32-.91-.49-.27-.17-.67-.33-1.04-.5-.38-.17-.7-.35-1.17-.52-1.64-.7-3.81-1.44-6.49-2.18-5.34-1.48-12.95-3-22.95-4.22-5-.6-10.56-1.13-16.58-1.55-.74-.06-1.52-.1-2.29-.15-.77-.05-1.53-.1-2.31-.14-.79-.04-1.58-.08-2.37-.12l-1.19-.06c-.4-.02-.81-.03-1.21-.05-.81-.03-1.62-.07-2.44-.1-.82-.03-1.66-.05-2.48-.08l-1.25-.04-.63-.02h-.64c-.85-.03-1.7-.05-2.55-.07-.85-.03-1.72-.03-2.58-.04-.87-.01-1.74-.02-2.61-.04-.88,0-1.76,0-2.65,0h-1.33c-.44,0-.89,0-1.33,0-.89,0-1.78,0-2.68.01-.89,0-1.78.03-2.68.04-1.8.01-3.56.07-5.36.11-3.55.11-7.14.22-10.64.42-1.78.08-3.49.21-5.26.3-.86.06-1.72.12-2.59.19l-1.3.09-1.27.11c-6.84.55-13.37,1.29-19.31,2.19-.73.12-1.46.23-2.2.35-.73.12-1.4.25-2.12.37-.35.06-.72.12-1.06.18l-1,.19-1.01.19c-.34.06-.69.13-.99.2-2.63.53-4.98,1.1-7.21,1.69-.52.15-1.05.3-1.6.45-.53.15-.98.31-1.48.47-.24.08-.51.15-.74.23l-.66.24-.68.24c-.23.08-.46.16-.65.24-.4.16-.81.33-1.22.49-.4.16-.72.34-1.09.5-.18.08-.38.17-.55.25l-.46.26-.48.26c-.17.08-.33.17-.45.26-.26.17-.53.35-.81.52-.27.17-.44.35-.68.53l-.35.26-.25.27c-.15.18-.39.36-.51.54-.58.72-.81,1.45-.89,2.19.08.74.31,1.47.89,2.19.12.18.36.36.51.54l.25.27.35.26c.24.18.41.35.68.53.28.17.55.35.81.52.11.09.28.17.45.26l.48.26.46.26c.17.08.37.17.55.25.38.17.7.34,1.09.5.42.16.83.33,1.22.49.18.08.41.16.65.24l.68.24.66.24c.23.08.5.16.74.23.51.15.96.31,1.48.47.54.15,1.08.3,1.6.45,2.23.59,4.58,1.17,7.21,1.7.3.07.65.13.99.2l1.01.19,1,.19c.35.06.71.12,1.06.18.72.12,1.39.25,2.12.37.74.11,1.48.23,2.2.35,5.95.9,12.47,1.65,19.31,2.19l1.27.11,1.3.09c.86.06,1.73.12,2.59.19,1.77.1,3.48.23,5.26.3,3.5.2,7.09.31,10.64.42,1.8.03,3.56.09,5.36.11.9,0,1.78.03,2.68.04.9,0,1.79,0,2.68.01.45,0,.89,0,1.33,0h1.33c.89-.01,1.77-.02,2.65-.02.87-.01,1.74-.02,2.61-.04.87-.01,1.74-.02,2.58-.04.85-.02,1.7-.04,2.55-.06h.64s.63-.04.63-.04l1.25-.04c.83-.03,1.67-.05,2.48-.08.82-.03,1.63-.07,2.44-.1.4-.02.81-.03,1.21-.05l1.19-.06c.79-.04,1.58-.08,2.37-.12.78-.04,1.54-.1,2.31-.14.76-.05,1.55-.09,2.29-.15,6.01-.42,11.57-.94,16.58-1.55,10-1.22,17.61-2.74,22.95-4.22,2.68-.74,4.85-1.47,6.49-2.18.48-.17.79-.35,1.17-.52.37-.17.77-.33,1.04-.5.3-.17.61-.33.91-.48.25-.16.49-.32.72-.47,1.88-1.22,2.49-2.22,2.72-2.91.04-.09.08-.17.11-.24.04-.08.02-.15.03-.21.02-.13.03-.24.04-.33.03-.18.05-.27.05-.27h6.43s-.02.1-.05.29c-.01.1-.03.22-.05.36-.02.07,0,.15-.04.23-.04.08-.08.17-.12.26-.25.74-.91,1.82-2.94,3.14-.25.16-.52.33-.78.51-.32.17-.65.35-.98.52-.29.18-.72.36-1.12.54-.41.18-.76.38-1.27.56-1.77.76-4.12,1.55-7.01,2.35-5.76,1.6-13.96,3.23-24.75,4.55-5.4.65-11.4,1.22-17.89,1.67-.8.06-1.64.1-2.47.16-.83.05-1.66.11-2.5.15-.85.04-1.7.09-2.56.13l-1.28.07c-.43.02-.87.04-1.31.05-.87.04-1.75.07-2.63.11-.88.04-1.79.06-2.68.09l-1.35.05-.68.02h-.69c-.91.04-1.83.06-2.75.08-.91.03-1.85.03-2.79.05-.93.01-1.87.03-2.81.04-.95,0-1.9,0-2.85.01h-1.43c-.48,0-.96,0-1.44,0-.96,0-1.92,0-2.89-.01-.96,0-1.92-.03-2.88-.04-1.94-.01-3.85-.08-5.78-.11-3.84-.11-7.7-.24-11.49-.45-1.92-.09-3.77-.22-5.68-.33-.94-.06-1.86-.14-2.79-.2l-1.41-.1-1.37-.12c-7.39-.59-14.43-1.39-20.84-2.37l-2.37-.37c-.78-.13-1.51-.26-2.28-.39-.38-.07-.77-.13-1.14-.2l-1.08-.21-1.09-.21c-.37-.07-.74-.14-1.07-.21-2.84-.57-5.38-1.19-7.78-1.83l-1.72-.49c-.57-.16-1.06-.34-1.6-.5-.26-.08-.55-.17-.8-.25l-.72-.26-.73-.26c-.25-.09-.5-.17-.7-.26-.43-.18-.87-.35-1.32-.53-.43-.18-.78-.36-1.18-.54-.19-.09-.41-.18-.59-.27l-.5-.28-.52-.28c-.18-.09-.36-.18-.48-.28-.28-.19-.58-.38-.88-.56-.29-.19-.48-.38-.74-.57l-.37-.28-.27-.29c-.17-.19-.42-.38-.55-.58-.63-.78-.87-1.56-.96-2.36.08-.79.33-1.58.96-2.36.13-.19.38-.39.55-.58l.27-.29.37-.28c.26-.19.45-.38.74-.57.3-.19.6-.37.88-.56.13-.09.3-.19.48-.28l.52-.28.5-.28c.18-.09.4-.18.59-.27.41-.18.76-.36,1.18-.54.45-.18.89-.35,1.32-.53.2-.09.45-.18.7-.26l.73-.26.72-.26c.25-.09.54-.17.8-.25.55-.17,1.03-.34,1.6-.5l1.72-.49c2.4-.64,4.94-1.26,7.78-1.83.33-.08.7-.14,1.07-.21l1.09-.21,1.08-.21c.37-.07.77-.13,1.14-.2.77-.13,1.5-.27,2.28-.39l2.37-.37c6.41-.97,13.45-1.78,20.84-2.37l1.37-.12,1.41-.1c.94-.07,1.86-.14,2.79-.2,1.91-.11,3.76-.24,5.68-.33,3.79-.21,7.65-.34,11.49-.45,1.94-.04,3.84-.1,5.78-.11.96-.01,1.92-.03,2.88-.04.96,0,1.93,0,2.89-.01.48,0,.96,0,1.44,0h1.43c.95.01,1.9.02,2.85.02.94.01,1.88.03,2.81.04.93.01,1.87.02,2.79.05.92.02,1.84.04,2.75.06h.69s.68.04.68.04l1.35.05c.89.03,1.8.05,2.68.09.88.04,1.76.07,2.63.11.44.02.88.03,1.31.05l1.28.07c.86.04,1.71.09,2.56.13.84.05,1.67.1,2.5.15.82.05,1.67.09,2.47.16,6.5.45,12.5,1.02,17.89,1.67,10.79,1.31,18.98,2.95,24.75,4.55,2.89.8,5.23,1.59,7.01,2.35.51.19.86.38,1.27.56.4.18.82.36,1.12.54.34.18.66.35.98.52.27.17.53.34.78.51,2.03,1.32,2.69,2.4,2.94,3.14.04.09.08.18.12.26.04.08.02.16.04.23.02.14.03.26.05.36.04.19.05.29.05.29h-6.43Z"/>
              <path class="cls-19" d="M267.2,515.75s.23-.02.66-.05c.21-.02.48-.03.79-.06.3-.03.65-.05,1.04-.09,1.55-.13,3.83-.3,6.42-.55,5.26-.48,12.02-1.22,18.23-2.09,6.24-.87,11.89-1.87,15.82-2.67.96-.2,1.85-.39,2.63-.55.8-.16,1.4-.32,1.94-.44,1.06-.25,1.67-.39,1.67-.39l3.82.53s-.63.15-1.74.4c-.57.13-1.19.29-2.02.46-.82.17-1.74.36-2.74.58-4.09.83-9.97,1.87-16.47,2.78-6.46.91-13.5,1.68-18.97,2.18-2.7.27-5.07.44-6.69.58-.41.03-.77.06-1.09.09-.32.02-.6.04-.82.06-.45.03-.68.05-.68.05l-1.8-.81Z"/>
              <path class="cls-19" d="M193.23,516.6s.24.01.68.04c.44.02,1.1.05,1.94.08.84.04,1.85.08,3.01.13.29.01.59.02.9.04.31.01.63.02.96.03.66.02,1.35.04,2.08.07,5.79.19,13.62.34,21.5.33,7.88-.01,15.71-.17,21.47-.39.36-.01.72-.02,1.06-.03.34-.01.68-.03,1-.04.65-.03,1.27-.05,1.85-.08,1.16-.05,2.18-.09,3.01-.13,1.65-.09,2.59-.13,2.59-.13l1.31.84s-.98.05-2.7.14c-.86.04-1.93.08-3.14.13-.61.03-1.25.05-1.93.08-.34.01-.69.03-1.05.04-.36.01-.73.02-1.11.04-6,.23-14.15.4-22.34.41-8.2.02-16.36-.14-22.38-.34-.75-.02-1.48-.05-2.16-.07-.34-.01-.68-.02-1-.03-.32-.01-.63-.03-.94-.04-1.21-.05-2.27-.1-3.14-.13-.87-.04-1.56-.06-2.02-.09-.46-.02-.71-.04-.71-.04l1.23-.84Z"/>
              <path class="cls-19" d="M131.4,509.16s.61.14,1.67.39c.55.12,1.25.26,2.02.43.8.16,1.63.36,2.68.55,3.97.79,9.73,1.77,16.07,2.62,6.31.85,13.13,1.57,18.43,2.04,1.32.12,2.57.21,3.65.3,1.09.09,2.03.17,2.84.22,1.6.11,2.51.18,2.51.18l-1.72.81s-.95-.07-2.61-.19c-.84-.06-1.82-.14-2.96-.23-1.13-.1-2.42-.19-3.8-.32-5.52-.48-12.62-1.23-19.18-2.12-6.59-.88-12.59-1.9-16.72-2.73-1.09-.2-1.96-.4-2.79-.57-.81-.17-1.54-.32-2.11-.44-1.1-.26-1.73-.4-1.73-.4l3.77-.54Z"/>
              <path class="cls-19" d="M207.22,475.05s-.49.01-1.34.03c-.85.02-2.05.07-3.5.11-.72.02-1.51.05-2.34.08-.83.03-1.69.07-2.58.11-.9.04-1.82.08-2.76.12-.95.04-1.87.09-2.82.14-.94.05-1.89.1-2.81.14-.93.05-1.82.11-2.69.16-1.74.11-3.38.2-4.73.31-1.37.1-2.51.18-3.31.24-.4.03-.71.05-.92.07-.21.02-.32.03-.32.03l-1.9-.8s.12,0,.33-.03c.22-.02.54-.04.96-.07.83-.06,2.02-.14,3.44-.25,1.41-.11,3.12-.21,4.93-.32.91-.05,1.83-.12,2.8-.17.97-.05,1.95-.1,2.93-.15.99-.05,1.95-.11,2.94-.15.98-.04,1.94-.08,2.88-.12.93-.04,1.83-.08,2.69-.11.86-.03,1.68-.05,2.44-.08,1.51-.05,2.76-.09,3.65-.11.89-.02,1.39-.03,1.39-.03l.65.86Z"/>
              <path class="cls-19" d="M339.94,496.08s-.05-.34-.12-.85c0-.26-.18-.55-.3-.87-.07-.16-.12-.32-.21-.49-.12-.17-.24-.33-.36-.5-.12-.17-.23-.34-.35-.5-.16-.16-.32-.33-.47-.48-.31-.31-.56-.61-.91-.85-.31-.25-.58-.45-.76-.6-.09-.07-.16-.13-.21-.17-.06-.04-.09-.06-.09-.06l4.63-.22s.03.02.1.06c.05.04.13.1.22.17.19.15.46.37.79.62.37.26.62.56.95.89.16.16.32.33.49.5.12.17.24.35.36.52.12.18.25.35.37.52.09.17.15.34.22.51.12.33.32.64.31.9.08.53.13.88.13.88h-4.79Z"/>
              <path class="cls-19" d="M253.26,475.55s-.12,0-.34-.02c-.22-.01-.54-.03-.96-.05-.84-.03-2.03-.08-3.46-.14-1.42-.07-3.12-.12-4.93-.18-.91-.03-1.84-.06-2.79-.09-.96-.02-1.93-.04-2.91-.07-.97-.02-1.95-.05-2.91-.07-.96-.01-1.91-.03-2.83-.04-.92-.01-1.81-.03-2.65-.04-.84,0-1.64,0-2.38-.01-1.48,0-2.7-.01-3.57-.02-.43,0-.77,0-1,0-.23,0-.35,0-.35,0l-.04-.87s.13,0,.37,0c.24,0,.59,0,1.04,0,.9,0,2.17.01,3.71.02.77,0,1.6,0,2.48.01.88.01,1.8.03,2.76.04.96.01,1.94.03,2.95.04,1,.02,2.01.05,3.03.07,1.01.02,2.03.05,3.03.07.99.03,1.96.06,2.91.09,1.89.06,3.65.11,5.13.18,1.49.06,2.74.11,3.61.15.44.02.77.03,1,.05.23.01.35.02.35.02l-1.23.84Z"/>
              <path class="cls-19" d="M106.63,496.46s.02.18.07.49c.02.08,0,.17.04.26.04.09.08.2.13.3.09.22.19.46.3.73.62,1.07,1.93,2.48,4.18,3.85,2.19,1.37,5.29,2.69,7.99,3.64,1.29.48,2.58.86,3.42,1.13.43.14.75.24,1.02.31.25.07.38.11.38.11l-4.06.46s-.14-.04-.4-.11c-.27-.07-.62-.18-1.06-.32-.88-.28-2.22-.68-3.56-1.18-2.82-.99-6.04-2.36-8.32-3.79-2.34-1.42-3.71-2.9-4.35-4.01-.11-.28-.22-.53-.31-.76-.05-.11-.09-.22-.14-.32-.04-.1-.03-.19-.05-.27-.04-.33-.07-.51-.07-.51l4.79-.02Z"/>
              <path class="cls-19" d="M158.83,478.37s-.35.04-.98.12c-.62.08-1.54.2-2.7.35-.58.08-1.24.16-1.92.25-.68.1-1.41.2-2.19.31-.77.11-1.64.23-2.48.36-.84.13-1.73.27-2.66.42-3.64.6-7.79,1.32-11.7,2.18-3.95.85-7.8,1.82-11.16,2.84-3.4,1.02-6.19,2.09-8.42,3.13-.28.13-.56.26-.84.38-.28.13-.48.26-.73.38-.46.25-.96.5-1.36.74-.75.49-1.54.95-2.03,1.39-.27.22-.56.42-.78.62-.19.2-.38.39-.55.57-.16.18-.37.34-.47.5-.11.16-.21.3-.29.43-.17.26-.34.46-.41.6-.06.14-.09.21-.09.21l-4.77-.08s.03-.08.09-.22c.07-.14.24-.36.42-.62.09-.13.2-.28.31-.44.11-.16.32-.33.49-.52.18-.19.37-.38.58-.59.23-.21.53-.42.81-.65.51-.45,1.33-.93,2.11-1.45.42-.25.94-.51,1.42-.78.25-.13.47-.27.76-.4.29-.13.58-.27.87-.4,2.33-1.08,5.23-2.2,8.77-3.26,3.5-1.06,7.51-2.07,11.62-2.95,4.08-.89,8.39-1.65,12.18-2.27.96-.15,1.89-.3,2.77-.44.87-.14,1.77-.26,2.58-.38.81-.12,1.58-.23,2.28-.33.71-.1,1.4-.18,2-.26,1.21-.16,2.16-.28,2.81-.36.66-.08,1.02-.12,1.02-.12l2.65.73Z"/>
              <path class="cls-19" d="M333.96,489.37s-.13-.07-.38-.2c-.12-.07-.27-.15-.45-.24-.09-.05-.18-.1-.29-.15-.12-.05-.24-.11-.37-.17-.54-.24-1.14-.54-1.91-.87-.41-.16-.85-.34-1.31-.52-.23-.09-.46-.19-.7-.28-.24-.1-.54-.19-.81-.29-.56-.2-1.14-.4-1.74-.62-.63-.21-1.34-.42-2.03-.65-.35-.11-.69-.22-1.07-.34-.39-.11-.78-.22-1.18-.33-.81-.22-1.56-.46-2.49-.68-3.45-.92-7.62-1.84-12.18-2.7-4.55-.85-9.5-1.64-14.41-2.3-4.92-.67-9.84-1.2-14.11-1.63-1.09-.1-2.13-.2-3.13-.29-.5-.05-.98-.09-1.45-.14-.48-.04-.95-.08-1.4-.12-.91-.07-1.75-.14-2.54-.21-.78-.07-1.5-.13-2.17-.17-2.66-.19-4.17-.3-4.17-.3l1.66-.82s1.58.11,4.35.31c.7.05,1.45.11,2.26.18.82.07,1.7.14,2.64.22.47.04.96.08,1.46.12.49.05.99.09,1.51.14,1.03.1,2.12.2,3.26.3,4.45.45,9.58,1.01,14.69,1.7,5.11.69,10.26,1.51,15,2.4,4.74.89,9.08,1.85,12.67,2.81.96.23,1.75.48,2.59.71.41.12.83.23,1.23.35.4.12.75.23,1.12.35.72.23,1.45.45,2.11.67.63.22,1.23.44,1.81.64.28.1.59.2.84.3.25.1.49.2.73.3.48.19.93.38,1.36.55.81.35,1.43.66,1.99.91.14.06.27.12.39.18.11.06.21.11.3.16.18.1.34.18.47.25.26.14.39.21.39.21l-4.54.28Z"/>
              <path class="cls-19" d="M315.92,501.9s.25-.13.62-.33c.42-.2.76-.47,1.21-.74.47-.27.76-.54,1.03-.75.27-.21.44-.34.44-.34l15.1.57s-.2.16-.51.4c-.31.24-.66.56-1.2.87-.51.31-.92.63-1.4.86-.43.23-.72.39-.72.39l-14.58-.92Z"/>
              <path class="cls-19" d="M307.44,505.22s.38-.12.96-.31c.29-.09.63-.2,1-.31.34-.12.68-.24,1.03-.37.35-.13.71-.25,1.04-.37.33-.12.58-.23.82-.33.48-.19.8-.32.8-.32l14.13,1.12s-.37.15-.92.37c-.29.11-.58.24-.96.38-.38.14-.79.28-1.2.43-.41.14-.81.29-1.2.43-.42.13-.81.26-1.15.36-.67.21-1.11.35-1.11.35l-13.23-1.44Z"/>
              <path class="cls-19" d="M297.22,507.77s.28-.06.7-.15c.41-.09,1-.2,1.5-.33,1.05-.24,2.1-.49,2.1-.49l12.3,1.69s-1.22.28-2.43.56c-.59.14-1.26.28-1.74.38-.48.1-.81.17-.81.17l-11.63-1.84Z"/>
              <path class="cls-19" d="M234.96,513.78s.77-.02,1.92-.04c1.16-.02,2.68-.08,4.2-.12.76-.03,1.53-.05,2.24-.07.71-.03,1.36-.06,1.93-.08,1.13-.05,1.88-.08,1.88-.08l3.74,2.72s-.87.04-2.18.09c-.65.03-1.42.06-2.23.09-.82.03-1.71.06-2.59.09-1.76.06-3.52.12-4.86.14-1.33.03-2.22.05-2.22.05l-1.82-2.79Z"/>
              <path class="cls-19" d="M214.73,513.84s.77.01,1.94.03c.58,0,1.25.02,1.99.02.73,0,1.51,0,2.29,0,.78,0,1.56,0,2.29.01.73,0,1.41,0,2-.01,1.17,0,1.95,0,1.95,0l.6,2.8s-.9,0-2.25.01c-.67,0-1.46,0-2.3.01-.84,0-1.74,0-2.64-.01-.9,0-1.8,0-2.64-.01-.84,0-1.62-.02-2.3-.03-1.34-.02-2.24-.03-2.24-.03l1.32-2.8Z"/>
              <path class="cls-19" d="M194.96,513.16s.74.04,1.86.1c.56.03,1.21.06,1.9.1.71.03,1.46.06,2.21.09.75.03,1.5.06,2.21.09.71.03,1.38.04,1.95.07,1.14.04,1.9.06,1.9.06l-2.53,2.77s-.88-.03-2.2-.07c-.66-.02-1.44-.04-2.26-.08-.82-.03-1.69-.07-2.56-.11-.87-.04-1.75-.07-2.56-.11-.81-.04-1.56-.08-2.2-.12-1.29-.07-2.15-.11-2.15-.11l4.44-2.69Z"/>
              <path class="cls-19" d="M178.89,511.98s.38.04.94.09c.28.03.61.06.96.09.36.03.75.06,1.14.09,1.54.13,3.09.26,3.09.26l-6.02,2.58s-1.79-.15-3.58-.3c-.45-.04-.9-.07-1.32-.11-.41-.04-.79-.07-1.12-.1-.66-.06-1.09-.1-1.09-.1l6.99-2.5Z"/>
              <path class="cls-19" d="M280.22,510.59s.63-.08,1.59-.2c.92-.13,2.14-.31,3.36-.48,1.21-.18,2.35-.37,3.24-.51.44-.07.82-.13,1.05-.17.24-.04.38-.07.38-.07l10.48,2.06s-.16.03-.45.08c-.27.05-.71.12-1.22.2-1.03.16-2.35.38-3.75.58-1.41.2-2.82.4-3.88.55-1.1.14-1.83.24-1.83.24l-8.98-2.28Z"/>
              <path class="cls-19" d="M255.69,512.91s.3-.02.81-.05c.53-.03,1.23-.09,2.11-.15.87-.06,1.88-.14,2.97-.21,1.06-.09,2.2-.18,3.34-.28l.85-.07c.28-.03.55-.05.82-.08.55-.05,1.08-.1,1.6-.15.52-.05,1.03-.09,1.5-.14.48-.04.91-.09,1.31-.14,1.63-.17,2.71-.28,2.71-.28l7.96,2.4s-1.25.13-3.13.33c-.47.05-.97.11-1.52.16-.55.05-1.14.11-1.74.16-.6.06-1.23.11-1.86.17-.32.03-.63.06-.95.09l-.99.08c-1.32.11-2.63.22-3.86.32-1.25.09-2.43.17-3.44.25-1.01.07-1.84.14-2.44.17-.6.04-.94.06-.94.06l-5.1-2.65Z"/>
              <path class="cls-19" d="M161.89,509.98s.61.09,1.53.22c.46.06.97.15,1.57.22.59.08,1.23.16,1.86.24.64.08,1.25.17,1.86.24.61.07,1.19.14,1.68.19.98.11,1.63.19,1.63.19l-8.08,2.39s-.75-.09-1.88-.22c-.57-.07-1.23-.14-1.94-.22-.7-.08-1.42-.18-2.15-.28-.73-.09-1.46-.19-2.15-.28-.69-.09-1.28-.18-1.82-.26-1.06-.15-1.76-.25-1.76-.25l9.66-2.19Z"/>
              <path class="cls-19" d="M147.51,507.4s.12.03.35.07c.22.05.54.11.93.19.78.16,1.73.38,2.84.58.54.1,1.07.2,1.57.3.25.05.49.09.72.14.24.04.47.08.68.12.84.15,1.41.24,1.41.24l-10.58,2.04s-.65-.11-1.63-.28c-.24-.04-.51-.09-.79-.14-.27-.05-.54-.1-.83-.16-.58-.11-1.2-.23-1.82-.35-1.28-.23-2.39-.49-3.29-.67-.44-.09-.81-.17-1.07-.22-.26-.05-.4-.09-.4-.09l11.91-1.78Z"/>
              <path class="cls-19" d="M136.39,504.34s.09.03.24.09c.16.05.35.14.66.23.58.18,1.35.43,2.12.67.84.24,1.67.47,2.3.65.3.09.61.16.8.21.2.05.31.08.31.08l-12.64,1.61s-.13-.03-.36-.09c-.22-.06-.58-.14-.92-.24-.73-.21-1.69-.48-2.66-.76-.89-.28-1.79-.57-2.46-.78-.35-.1-.58-.2-.76-.26-.18-.06-.28-.1-.28-.1l13.66-1.3Z"/>
              <path class="cls-19" d="M129.72,501.43s.55.29,1.09.58c.14.07.26.15.4.21.15.07.29.13.4.18.23.11.39.18.39.18l-14.35,1.03s-.18-.08-.45-.21c-.14-.06-.3-.13-.47-.21-.16-.08-.31-.16-.46-.25-.63-.34-1.26-.68-1.26-.68l14.71-.84Z"/>
              <path class="cls-19" d="M134.19,488.62s-.32.13-.8.32c-.52.19-1.02.46-1.61.72-.61.26-1.06.53-1.44.73-.38.2-.63.33-.63.33l-14.71-.84s.29-.15.72-.39c.43-.23.97-.54,1.67-.84.67-.3,1.27-.61,1.86-.83.55-.22.92-.37.92-.37l14,1.17Z"/>
              <path class="cls-19" d="M144.44,485.47s-.45.12-1.12.29c-.34.09-.73.19-1.16.29-.43.11-.81.23-1.24.35-.83.24-1.7.47-2.24.66-.58.18-.96.31-.96.31l-13.45-1.37s.45-.14,1.12-.35c.63-.22,1.63-.49,2.59-.76.49-.14.94-.28,1.44-.4.49-.12.94-.24,1.34-.34l1.3-.33,12.39,1.67Z"/>
              <path class="cls-19" d="M158.07,482.76s-.15.02-.41.06c-.27.04-.61.1-1.03.17-.83.15-1.99.34-3.07.54-1.07.2-2.14.41-2.95.56-.76.16-1.26.27-1.26.27l-11.62-1.84s.59-.12,1.46-.31c.93-.18,2.17-.41,3.4-.65,1.26-.23,2.59-.45,3.55-.62.49-.08.88-.16,1.19-.2.3-.05.47-.07.47-.07l10.26,2.09Z"/>
              <path class="cls-19" d="M172.01,480.87l-2.86.33c-.73.08-1.4.17-1.93.24-.52.07-.87.11-.87.11l-8.97-2.28s.4-.05,1-.13c.61-.08,1.38-.19,2.23-.28,1.66-.19,3.31-.39,3.31-.39l8.08,2.39Z"/>
              <path class="cls-19" d="M125.5,497.33s.06.14.14.35c.04.21.3.49.48.77.11.14.16.28.3.41.13.13.25.25.36.35.2.21.33.35.33.35l-15.13.55s-.16-.16-.39-.4c-.12-.12-.26-.26-.41-.41-.15-.15-.23-.31-.35-.47-.21-.32-.5-.65-.55-.89-.1-.24-.17-.41-.17-.41l15.38-.19Z"/>
              <path class="cls-19" d="M127.45,492.3s-.07.06-.2.15c-.11.1-.23.24-.39.41-.15.17-.39.36-.55.57-.15.21-.3.44-.46.66l-.12.17c-.02.06-.04.11-.06.17-.05.11-.09.22-.13.33-.09.21-.21.41-.2.58-.05.34-.08.57-.08.57l-15.42-.03.09-.66c0-.2.13-.43.22-.67.05-.12.1-.25.16-.38.03-.06.05-.13.08-.2l.14-.2c.18-.26.36-.52.53-.77.19-.24.45-.47.63-.66.19-.19.34-.36.46-.47.14-.11.23-.18.23-.18l15.07.59Z"/>
              <path class="cls-19" d="M190.23,479.28s-.18.01-.5.03c-.32.02-.76.05-1.3.09-.54.04-1.17.08-1.84.13-.67.05-1.41.09-2.1.16-1.41.12-2.82.23-3.87.32-1.03.1-1.72.16-1.72.16l-6.99-2.5s.8-.07,1.99-.19c1.22-.1,2.85-.24,4.48-.37.81-.07,1.65-.12,2.43-.18.78-.06,1.51-.11,2.13-.15,1.24-.09,2.1-.14,2.1-.14l5.19,2.64Z"/>
              <path class="cls-19" d="M209.76,478.41s-.19,0-.53.01c-.33,0-.82.01-1.39.04-1.14.04-2.67.09-4.19.14-1.51.06-3.01.13-4.14.17-.28.01-.54.02-.77.03-.23.01-.42.02-.59.03-.32.02-.51.03-.51.03l-4.02-2.71s.22-.01.59-.03c.19,0,.42-.02.68-.04.27-.01.57-.02.89-.04,1.31-.05,3.05-.13,4.8-.2,1.76-.06,3.53-.11,4.85-.16.66-.02,1.22-.03,1.61-.04.39,0,.61-.01.61-.01l2.1,2.78Z"/>
              <path class="cls-19" d="M229.97,478.28s-.19,0-.53,0c-.34,0-.82-.02-1.4-.02-1.17,0-2.73-.01-4.28-.02-1.56,0-3.12.01-4.28.02-.58,0-1.07,0-1.41,0-.34,0-.53,0-.53,0l-.88-2.8s.22,0,.62,0c.39,0,.95,0,1.63,0,1.35,0,3.15-.02,4.94-.02,1.8,0,3.6.02,4.94.02.67,0,1.23.02,1.62.02.39,0,.62,0,.62,0l-1.04,2.8Z"/>
              <path class="cls-19" d="M247.12,478.77s-1.65-.07-3.3-.14c-.82-.04-1.66-.06-2.29-.08-.63-.02-1.04-.03-1.04-.03l2.69-2.76s.48.02,1.21.04c.72.02,1.7.05,2.65.09,1.91.08,3.83.16,3.83.16l-3.74,2.72Z"/>
              <path class="cls-19" d="M304.77,486.17s-.1-.03-.29-.08c-.2-.05-.48-.12-.82-.21-.34-.09-.73-.19-1.15-.29-.21-.05-.42-.11-.64-.17-.24-.05-.48-.11-.72-.17-.98-.22-1.88-.45-2.66-.61-.76-.16-1.27-.27-1.27-.27l11.63-1.84s.59.12,1.47.31c.89.18,1.95.45,3.07.7.28.06.55.13.83.19.25.07.51.13.75.19.49.12.94.24,1.33.34.39.1.72.18.95.24.23.06.34.09.34.09l-12.81,1.56Z"/>
              <path class="cls-19" d="M314.18,489.41s-.07-.03-.19-.09c-.13-.06-.28-.14-.52-.24-.48-.19-1.11-.45-1.75-.71-.7-.25-1.41-.5-1.93-.69-.25-.1-.5-.17-.67-.22-.17-.05-.27-.08-.27-.08l13.45-1.37s.11.04.31.1c.2.06.48.15.78.26.61.22,1.42.51,2.24.8.74.3,1.48.59,2.03.82.28.11.46.21.61.27.14.07.22.1.22.1l-14.3,1.05Z"/>
              <path class="cls-19" d="M319.72,492.92s-.13-.14-.33-.35c-.2-.21-.61-.48-.93-.75-.08-.07-.17-.14-.25-.2-.11-.07-.21-.13-.31-.19-.2-.13-.38-.25-.54-.35-.16-.1-.28-.19-.38-.25-.08-.06-.15-.09-.15-.09l14.71-.84s.08.04.18.11c.11.07.26.17.44.28.18.12.4.25.63.4.12.07.24.15.36.23.1.08.2.16.3.24.38.32.84.63,1.08.87.23.24.39.4.39.4l-15.18.49Z"/>
              <path class="cls-19" d="M321.29,496.08s-.05-.31-.1-.62c-.02-.16-.01-.31-.09-.43-.05-.12-.09-.19-.09-.19l15.38-.19s.04.09.1.22c.08.13.08.31.11.49l.11.72h-15.42Z"/>
              <path class="cls-19" d="M268.5,480.25s-.69-.06-1.72-.16c-1.01-.1-2.45-.21-3.85-.33-1.39-.12-2.85-.22-3.92-.3-1.08-.08-1.79-.13-1.79-.13l5.34-2.63s.83.06,2.08.15c1.25.09,2.93.2,4.54.34,1.62.14,3.28.26,4.46.38,1.2.11,1.99.19,1.99.19l-7.13,2.49Z"/>
              <path class="cls-19" d="M291.01,483.19s-.23-.04-.62-.11c-.41-.07-.93-.17-1.66-.28-.71-.11-1.54-.24-2.43-.38-.22-.04-.44-.07-.67-.11-.24-.03-.48-.07-.72-.1-.48-.07-.98-.14-1.47-.21-.49-.07-.98-.14-1.46-.21-.5-.06-1-.13-1.47-.19-.96-.12-1.85-.24-2.61-.34-1.58-.18-2.63-.31-2.63-.31l8.2-2.38s1.22.14,3.05.35c.88.11,1.92.25,3.02.39.55.07,1.12.15,1.7.22.56.08,1.13.16,1.69.24.57.08,1.14.16,1.7.24.28.04.56.08.83.12.26.04.52.08.78.12,1.03.16,1.98.31,2.8.44.83.13,1.45.25,1.92.33.46.08.72.12.72.12l-10.66,2.03Z"/>
              <path class="cls-19" d="M382.28,499.75s.16-.23.39-.57c.21-.34.37-.8.57-1.26.05-.11.09-.23.14-.34.02-.11.04-.22.05-.33.03-.22.06-.42.08-.59.04-.34.07-.57.07-.57h15.42s-.03.25-.08.63c-.03.19-.06.41-.09.64-.02.12-.04.24-.06.36-.05.12-.1.25-.15.38-.21.5-.39,1.01-.62,1.38-.26.38-.43.63-.43.63l-15.3-.35Z"/>
              <path class="cls-19" d="M374.81,505.59s.41-.22,1.01-.55c.65-.33,1.28-.77,1.99-1.22.73-.44,1.27-.89,1.7-1.23.42-.34.71-.56.71-.56l15.1.57s-.31.25-.77.62c-.47.37-1.06.86-1.86,1.35-.77.49-1.47.98-2.18,1.33-.67.36-1.11.6-1.11.6l-14.58-.92Z"/>
              <path class="cls-19" d="M360.9,511.04s.63-.2,1.58-.5c.47-.15,1.02-.33,1.61-.51.56-.19,1.13-.4,1.71-.6.58-.21,1.15-.41,1.69-.6.54-.19.97-.38,1.37-.54.78-.32,1.3-.53,1.3-.53l14.13,1.12s-.57.23-1.43.58c-.44.17-.92.38-1.5.59-.59.21-1.22.44-1.85.66-.64.22-1.26.45-1.88.66-.65.21-1.25.4-1.77.56-1.04.33-1.74.55-1.74.55l-13.23-1.44Z"/>
              <path class="cls-19" d="M344.22,515.22s.45-.1,1.14-.24c.67-.14,1.61-.33,2.45-.53,1.72-.4,3.43-.79,3.43-.79l12.3,1.69s-1.88.44-3.76.87c-.93.22-1.94.43-2.68.58-.75.16-1.24.26-1.24.26l-11.63-1.84Z"/>
              <path class="cls-19" d="M242.29,525.04s1.26-.03,3.14-.07c1.89-.04,4.38-.12,6.88-.2,1.25-.04,2.5-.08,3.66-.12,1.16-.05,2.24-.09,3.17-.13,1.85-.08,3.09-.13,3.09-.13l3.74,2.72s-1.35.06-3.39.14c-1.02.04-2.2.09-3.47.14-1.27.05-2.65.09-4.01.14-2.74.09-5.47.18-7.54.22-2.07.05-3.44.08-3.44.08l-1.82-2.79Z"/>
              <path class="cls-19" d="M201.7,524.98s.55.01,1.52.04c.97.02,2.36.06,4.02.09,3.34.05,7.79.12,12.25.13,1.11,0,2.23,0,3.33.01,1.1,0,2.18,0,3.22,0,2.09-.01,4.04-.02,5.71-.03,3.34-.05,5.57-.08,5.57-.08l1.34,2.8s-2.44.03-6.1.08c-1.83.01-3.97.02-6.25.03-1.14,0-2.33.01-3.53.01-1.2,0-2.42,0-3.64-.01-4.88,0-9.76-.09-13.42-.14-1.83-.03-3.34-.07-4.41-.1-1.06-.02-1.67-.04-1.67-.04l2.06-2.78Z"/>
              <path class="cls-19" d="M177.01,524.01s1.22.06,3.05.16c.92.05,1.98.1,3.13.16,1.16.05,2.39.1,3.63.15,1.24.05,2.47.1,3.63.15,1.16.05,2.26.08,3.19.11,1.87.06,3.12.1,3.12.1l-2.53,2.77s-1.37-.04-3.42-.11c-1.02-.04-2.23-.07-3.5-.12-1.27-.05-2.63-.11-3.98-.17-1.35-.06-2.71-.12-3.98-.17-1.26-.06-2.43-.12-3.43-.17-2.01-.1-3.34-.17-3.34-.17l4.44-2.69Z"/>
              <path class="cls-19" d="M150.63,522.08s.62.06,1.55.14c.46.04,1.01.09,1.59.15.59.05,1.23.1,1.86.15,2.54.21,5.07.42,5.07.42l-6.02,2.58s-2.78-.23-5.56-.46c-.69-.06-1.39-.12-2.04-.17-.64-.06-1.23-.11-1.74-.16-1.02-.09-1.7-.16-1.7-.16l6.99-2.5Z"/>
              <path class="cls-19" d="M316.5,519.8s1.03-.13,2.58-.33c1.49-.21,3.49-.5,5.48-.78,1.97-.29,3.85-.6,5.29-.82.72-.11,1.32-.21,1.71-.28.4-.07.63-.11.63-.11l10.48,2.06s-.25.04-.69.12c-.43.08-1.09.18-1.87.3-1.58.25-3.64.58-5.8.9-2.18.31-4.36.63-6.01.86-1.69.22-2.82.37-2.82.37l-8.98-2.28Z"/>
              <path class="cls-19" d="M276.31,523.61s.48-.03,1.33-.08c.86-.05,2.03-.14,3.46-.24,1.43-.1,3.1-.22,4.87-.35,1.75-.14,3.61-.3,5.48-.45l1.39-.12c.45-.04.91-.08,1.35-.13.9-.08,1.78-.17,2.63-.24.85-.08,1.68-.16,2.46-.23.78-.07,1.49-.15,2.16-.22,2.66-.28,4.43-.46,4.43-.46l7.96,2.4s-1.94.2-4.85.51c-.73.07-1.51.16-2.37.24-.86.08-1.76.17-2.69.25-.94.09-1.9.18-2.89.27-.49.05-.99.09-1.49.14-.51.04-1.02.09-1.53.13-2.04.17-4.09.34-6,.49-1.94.15-3.77.28-5.34.39-1.57.11-2.86.21-3.8.26-.93.06-1.46.09-1.46.09l-5.1-2.65Z"/>
              <path class="cls-19" d="M122.84,518.82s1,.14,2.49.36c.76.1,1.6.24,2.57.36.97.13,2,.26,3.03.39,1.04.13,2.06.27,3.05.39,1,.12,1.93.23,2.73.32,1.6.19,2.67.31,2.67.31l-8.08,2.39s-1.17-.14-2.93-.34c-.88-.1-1.9-.22-2.99-.35-1.09-.13-2.2-.28-3.34-.43-1.13-.15-2.26-.29-3.32-.43-1.06-.14-1.99-.28-2.82-.39-1.64-.23-2.73-.39-2.73-.39l9.66-2.19Z"/>
              <path class="cls-19" d="M99.41,514.61s.2.05.56.12c.36.08.88.19,1.5.32,1.26.26,2.86.62,4.64.94.87.17,1.75.33,2.57.49.41.08.81.15,1.18.22.39.07.76.13,1.1.19,1.37.24,2.29.4,2.29.4l-10.58,2.04s-1-.17-2.51-.44c-.37-.07-.78-.14-1.21-.21-.41-.08-.85-.16-1.3-.25-.9-.17-1.85-.35-2.81-.54-1.94-.36-3.71-.75-5.08-1.03-.68-.14-1.24-.26-1.64-.35-.4-.08-.61-.13-.61-.13l11.91-1.78Z"/>
              <path class="cls-19" d="M81.21,509.61s.14.05.4.14c.26.09.6.22,1.08.37.95.3,2.21.7,3.48,1.1,1.37.39,2.73.78,3.76,1.07.5.15.99.26,1.3.34.32.08.5.13.5.13l-12.64,1.61s-.2-.05-.55-.14c-.34-.09-.87-.22-1.42-.38-1.12-.32-2.62-.74-4.12-1.17l-3.81-1.2c-.53-.16-.9-.31-1.19-.4-.28-.1-.44-.15-.44-.15l13.66-1.3Z"/>
              <path class="cls-19" d="M70.28,504.83l1.78.96c.23.12.44.24.67.35.24.11.46.21.65.3l.64.29-14.35,1.03s-.28-.13-.7-.32c-.21-.1-.45-.21-.71-.33-.25-.12-.49-.25-.74-.39-.98-.53-1.95-1.05-1.95-1.05l14.71-.84Z"/>
              <path class="cls-19" d="M77.61,483.88s-.52.21-1.3.53c-.82.31-1.7.75-2.64,1.17-.97.43-1.75.87-2.36,1.19-.61.33-1.01.55-1.01.55l-14.71-.84s.44-.24,1.11-.6c.67-.36,1.53-.84,2.59-1.31,1.03-.47,2.01-.94,2.9-1.29.86-.35,1.43-.58,1.43-.58l14,1.17Z"/>
              <path class="cls-19" d="M94.39,478.72s-.74.19-1.84.47c-.55.14-1.19.31-1.88.48-.69.18-1.34.37-2.04.57-1.37.39-2.75.77-3.66,1.08-.95.3-1.58.5-1.58.5l-13.45-1.37s.69-.22,1.73-.55c1.01-.33,2.51-.76,4.01-1.18.76-.21,1.48-.43,2.23-.62.75-.19,1.45-.37,2.05-.53,1.21-.31,2.02-.51,2.02-.51l12.39,1.67Z"/>
              <path class="cls-19" d="M116.61,474.29s-.24.04-.66.1c-.43.06-.99.16-1.68.28-1.37.24-3.23.55-5.01.88-1.74.33-3.49.67-4.8.92-1.25.26-2.08.43-2.08.43l-11.62-1.84s.91-.19,2.28-.48c1.42-.28,3.33-.64,5.25-1.01,1.94-.36,3.99-.7,5.48-.96.76-.13,1.38-.24,1.85-.31.46-.07.72-.11.72-.11l10.26,2.09Z"/>
              <path class="cls-19" d="M139.38,471.21s-2.34.27-4.68.55c-1.18.13-2.29.28-3.15.39-.85.11-1.42.18-1.42.18l-8.97-2.28s.62-.08,1.55-.2c.94-.12,2.16-.28,3.45-.43,2.56-.3,5.13-.6,5.13-.6l8.08,2.39Z"/>
              <path class="cls-19" d="M63.35,498.12s.1.23.24.57c.1.34.47.8.78,1.26.17.23.3.46.51.67.21.21.4.41.57.58.34.34.56.57.56.57l-15.13.55s-.25-.25-.62-.62c-.18-.19-.39-.4-.62-.64-.22-.23-.37-.48-.56-.74-.34-.5-.73-1-.85-1.38-.16-.38-.27-.63-.27-.63l15.38-.19Z"/>
              <path class="cls-19" d="M68.18,488.65s-.21.13-.49.36c-.29.23-.7.55-1.2.94-.26.19-.48.41-.7.63-.22.23-.45.46-.7.71-.12.12-.25.25-.35.38-.09.13-.18.26-.28.39-.18.26-.37.52-.55.79-.21.26-.29.53-.4.79-.11.26-.21.52-.32.77-.16.5-.17.96-.24,1.36-.01.1-.02.2-.03.29,0,.09.02.18.03.26.02.16.04.3.05.42.03.23.05.37.05.37l-15.41.1s-.02-.15-.06-.4c-.02-.13-.04-.28-.06-.46,0-.09-.02-.18-.03-.28.01-.1.02-.2.04-.31.07-.44.08-.95.26-1.49.11-.27.23-.55.34-.84.13-.29.22-.58.45-.87.2-.29.4-.58.6-.87.1-.14.2-.28.31-.42.12-.14.26-.28.39-.41.26-.27.52-.53.76-.78.24-.25.48-.48.76-.69.54-.43,1-.78,1.31-1.03.31-.25.54-.39.54-.39l14.91.71Z"/>
              <path class="cls-19" d="M169.24,468.6s-1.21.07-2.97.2c-.88.06-1.92.14-3.02.22-1.1.08-2.3.16-3.44.26-2.31.19-4.63.38-6.35.53-1.69.16-2.82.26-2.82.26l-6.99-2.5s1.24-.11,3.1-.29c1.88-.16,4.42-.37,6.96-.58,1.26-.11,2.57-.19,3.77-.28,1.21-.09,2.35-.17,3.32-.24,1.94-.14,3.26-.22,3.26-.22l5.19,2.64Z"/>
              <path class="cls-19" d="M201.28,467.18s-.31,0-.86.02c-.55.01-1.34.03-2.27.06l-6.86.22c-2.48.1-4.95.2-6.8.28-.46.02-.89.04-1.26.05-.37.02-.7.04-.96.05-.53.03-.84.04-.84.04l-4.02-2.71s.33-.02.92-.05c.29-.01.65-.03,1.06-.05.41-.02.88-.04,1.39-.06,2.03-.09,4.74-.2,7.46-.31,2.74-.09,5.47-.18,7.52-.25,1.02-.04,1.89-.05,2.49-.07.6-.01.95-.02.95-.02l2.1,2.78Z"/>
              <path class="cls-19" d="M234.16,466.97s-.32,0-.87-.01c-.55,0-1.34-.02-2.29-.03-1.89,0-4.42-.02-6.95-.03-2.53,0-5.05.02-6.95.02-.95,0-1.74,0-2.29.01-.55,0-.87.01-.87.01l-.88-2.8s.35,0,.95-.01c.6,0,1.47,0,2.51-.02,2.07,0,4.84-.03,7.61-.03,2.77.01,5.53.03,7.61.04,1.04,0,1.9.02,2.51.03.6,0,.95.01.95.01l-1.04,2.8Z"/>
              <path class="cls-19" d="M262.23,467.77s-2.71-.11-5.42-.23c-1.35-.06-2.73-.1-3.75-.13-1.03-.03-1.71-.06-1.71-.06l2.69-2.76s.75.02,1.88.06c1.12.04,2.63.08,4.11.15,2.97.12,5.95.25,5.95.25l-3.74,2.72Z"/>
              <path class="cls-19" d="M356.54,479.86s-.16-.05-.48-.13c-.32-.08-.78-.2-1.33-.34-.55-.14-1.19-.31-1.88-.48-.35-.09-.7-.18-1.06-.27-.38-.09-.77-.18-1.16-.27-1.57-.36-3.1-.73-4.34-.99-1.24-.26-2.07-.44-2.07-.44l11.63-1.84s.91.19,2.27.48c1.36.29,3.04.69,4.76,1.09.42.1.85.2,1.27.3.4.1.79.2,1.17.3.75.19,1.46.37,2.06.53.6.15,1.1.28,1.45.37.35.09.53.14.53.14l-12.81,1.56Z"/>
              <path class="cls-19" d="M371.95,485.16s-.12-.05-.32-.15c-.21-.09-.48-.23-.87-.39-.78-.32-1.83-.74-2.87-1.16-1.12-.41-2.3-.82-3.16-1.13-.42-.15-.82-.28-1.1-.37-.28-.09-.43-.14-.43-.14l13.45-1.37s.17.05.47.15c.3.1.74.23,1.2.4.95.34,2.24.79,3.47,1.24,1.15.46,2.29.92,3.15,1.27.43.17.72.32.96.42.22.1.35.16.35.16l-14.3,1.05Z"/>
              <path class="cls-19" d="M381.05,490.93s-.22-.23-.56-.57c-.34-.34-.96-.79-1.52-1.24-.14-.11-.29-.22-.43-.34-.17-.11-.33-.22-.49-.32-.32-.21-.63-.4-.89-.57-.26-.17-.48-.31-.63-.4-.15-.1-.25-.15-.25-.15l14.71-.84s.12.06.28.17c.17.11.41.26.7.44.28.18.62.4.97.62.17.11.36.23.54.35.16.12.32.24.48.37.62.49,1.29.99,1.67,1.36.37.37.62.62.62.62l-15.18.49Z"/>
              <path class="cls-19" d="M383.58,496.08s-.07-.5-.13-1.01c-.04-.25-.06-.5-.16-.69-.08-.19-.13-.31-.13-.31l15.38-.19s.06.14.14.34c.11.21.13.48.17.76.07.55.14,1.1.14,1.1h-15.42Z"/>
              <path class="cls-19" d="M297.32,470.2s-1.13-.11-2.82-.26c-1.67-.16-4.01-.35-6.31-.54-2.29-.2-4.67-.36-6.44-.49-1.77-.13-2.95-.21-2.95-.21l5.34-2.63s1.3.09,3.24.23c1.94.14,4.54.32,7.06.54,2.53.21,5.08.41,6.92.59,1.86.17,3.09.29,3.09.29l-7.13,2.49Z"/>
              <path class="cls-19" d="M350.63,478.36s-.79-.18-2.18-.51c-1.35-.33-3.49-.76-6.02-1.29-2.62-.51-5.68-1.12-9.22-1.71-.88-.15-1.74-.31-2.68-.46-.94-.15-1.88-.3-2.84-.45-.96-.15-1.91-.31-2.91-.45-1.01-.14-2.02-.29-3.03-.43-1.02-.14-2.01-.29-3.05-.43-1.04-.14-2.08-.27-3.11-.4-1.04-.13-2.05-.27-3.08-.39-1.04-.12-2.07-.24-3.09-.36-1.02-.12-2.02-.23-2.99-.35-1.01-.11-1.99-.21-2.95-.31-1.92-.2-3.71-.4-5.45-.55-1.72-.16-3.3-.31-4.69-.44-1.4-.13-2.67-.22-3.69-.31-2.05-.17-3.23-.26-3.23-.26l6.08-2.58s1.29.11,3.54.29c1.12.09,2.5.2,4.04.34,1.53.14,3.26.3,5.15.48,1.9.17,3.87.39,5.97.6,1.05.11,2.13.22,3.23.34,1.07.12,2.17.25,3.28.38,1.11.13,2.24.26,3.38.4,1.14.14,2.24.28,3.38.43,1.13.15,2.27.29,3.41.44,1.14.15,2.23.31,3.34.47,1.11.16,2.21.32,3.31.48,1.1.16,2.13.33,3.19.49,1.05.17,2.08.33,3.11.49,1.03.16,1.98.34,2.94.5,3.87.65,7.24,1.31,10.1,1.88,2.77.58,5.11,1.06,6.59,1.42,1.52.35,2.39.55,2.39.55l-12.25,1.71Z"/>
            </g>
            <g>
              <path class="cls-19" d="M342.17,490.29s.12-.16.3-.39c.16-.24.25-.55.42-.87.04-.08.08-.16.11-.24,0-.08.02-.15.03-.23.02-.15.04-.29.06-.41.04-.24.07-.4.07-.4h13.7s-.03.18-.07.44c-.02.13-.04.29-.07.45-.01.08-.02.17-.04.25-.04.09-.08.17-.12.26-.18.35-.29.7-.47.96-.2.26-.34.44-.34.44l-13.59-.28Z"/>
              <path class="cls-19" d="M366.07,490.79s.14-.19.36-.47c.19-.28.32-.66.51-1.04.04-.09.09-.19.13-.28.01-.09.03-.18.04-.27.03-.18.05-.34.07-.49.04-.28.07-.47.07-.47h27.29s-.03.22-.08.56c-.03.17-.06.37-.09.58-.02.11-.04.21-.06.32-.05.11-.1.22-.15.33-.21.45-.38.9-.6,1.23-.25.34-.42.56-.42.56l-27.08-.57Z"/>
              <path class="cls-19" d="M346.89,500.06s.35-.1.97-.28c.6-.18,1.54-.43,2.51-.74,1.97-.62,4.48-1.47,6.54-2.35.52-.22,1.04-.44,1.55-.65.45-.22.89-.43,1.32-.64.41-.21.87-.41,1.19-.6.33-.19.64-.38.93-.55.29-.17.56-.33.79-.46.2-.14.37-.26.51-.36.28-.2.44-.32.44-.32l26.62,1.01s-.19.14-.52.38c-.17.12-.37.26-.61.43-.28.16-.59.35-.93.55-.35.2-.72.42-1.12.65-.39.23-.92.47-1.41.72-.51.25-1.04.51-1.57.77-.61.26-1.22.52-1.84.78-2.46,1.04-5.44,2.05-7.79,2.79-1.15.37-2.27.67-2.98.88-.74.21-1.16.33-1.16.33l-23.42-2.33Z"/>
              <path class="cls-19" d="M326.33,504.5s.79-.14,1.96-.34c1.21-.2,2.69-.49,4.18-.78.74-.14,1.51-.28,2.17-.42.66-.14,1.27-.27,1.8-.38,1.05-.22,1.76-.37,1.76-.37l21.78,2.74-2.09.44c-.63.13-1.36.29-2.15.45-.79.16-1.7.33-2.58.5-1.76.34-3.54.68-4.96.92-1.4.24-2.33.41-2.33.41l-19.54-3.17Z"/>
              <path class="cls-19" d="M277.5,509.98s.66-.04,1.81-.12c1.13-.08,2.74-.21,4.67-.35,3.86-.29,8.85-.73,13.72-1.21,2.38-.25,4.79-.5,6.97-.75,2.14-.26,4.21-.49,5.86-.71,1.67-.22,3.06-.4,4.03-.53.96-.13,1.48-.21,1.48-.21l17.6,3.47s-.62.09-1.76.25c-1.16.15-2.81.37-4.79.63-1.96.26-4.42.53-6.97.84-2.59.3-5.45.59-8.29.89-5.78.57-11.73,1.1-16.32,1.44-2.3.17-4.22.32-5.56.42-1.37.09-2.15.14-2.15.14l-10.29-4.21Z"/>
              <path class="cls-19" d="M245.03,511.47s.28,0,.77-.02c.49-.01,1.19-.04,2.03-.06.84-.02,1.82-.05,2.87-.09.52-.02,1.07-.03,1.62-.05.55-.02,1.1-.04,1.65-.06,2.21-.09,4.44-.16,6.09-.24,1.64-.08,2.74-.13,2.74-.13l7.48,4.37s-1.3.06-3.26.15c-1.96.09-4.61.18-7.25.29-.66.02-1.32.05-1.97.07-.66.02-1.3.04-1.93.06-1.25.04-2.42.07-3.42.1-1,.03-1.83.05-2.42.07-.58.02-.92.03-.92.03l-4.09-4.49Z"/>
              <path class="cls-19" d="M186.22,510.94s.17,0,.49.02c.32.02.79.04,1.39.06,1.2.05,2.93.11,4.99.19,2.06.08,4.51.14,7.12.22,2.61.07,5.43.12,8.23.18,2.82.03,5.63.08,8.28.1,2.65,0,5.12.03,7.24.02,2.12,0,3.89-.02,5.12-.02.62,0,1.1,0,1.43,0s.51,0,.51,0l1.45,4.54s-.21,0-.6,0c-.39,0-.97,0-1.7,0-1.47,0-3.56.01-6.08.03-2.51,0-5.45-.02-8.59-.03-3.14-.02-6.49-.07-9.84-.12-3.33-.07-6.68-.13-9.79-.22-3.1-.1-6.01-.17-8.47-.26-2.46-.09-4.51-.17-5.94-.23-.72-.03-1.28-.05-1.66-.07-.38-.02-.58-.03-.58-.03l7-4.39Z"/>
              <path class="cls-19" d="M154.9,508.87s1.01.09,2.53.22c1.52.13,3.53.31,5.62.46,2.08.15,4.13.32,5.73.42,1.59.1,2.65.17,2.65.17l-9.83,4.24-3.15-.21c-1.91-.12-4.35-.31-6.83-.5-2.49-.18-4.88-.39-6.69-.54-1.81-.15-3.01-.26-3.01-.26l12.98-4Z"/>
              <path class="cls-19" d="M124.47,505.2s.27.04.73.12c.47.07,1.11.18,1.97.3.84.12,1.81.26,2.86.41.52.08,1.06.15,1.61.23.57.07,1.15.15,1.73.23,1.16.15,2.32.3,3.41.45,1.1.14,2.17.26,3.07.37,1.8.21,3.01.35,3.01.35l-15.26,3.77s-1.43-.17-3.58-.42c-1.07-.13-2.33-.27-3.64-.44-1.29-.17-2.67-.35-4.05-.53-.69-.09-1.37-.18-2.05-.27-.65-.09-1.3-.19-1.92-.28-1.24-.18-2.4-.35-3.39-.49-1.01-.14-1.77-.27-2.34-.36-.56-.09-.87-.14-.87-.14l18.73-3.3Z"/>
              <path class="cls-19" d="M99.59,500.05s.55.17,1.49.4c.94.24,2.1.56,3.42.87,1.33.31,2.62.62,3.64.85,1.05.22,1.76.37,1.76.37l-21.48,2.8s-.83-.18-2.08-.44c-1.22-.27-2.76-.64-4.33-1.01-1.56-.37-2.96-.75-4.07-1.04-1.11-.28-1.77-.48-1.77-.48l23.43-2.33Z"/>
              <path class="cls-19" d="M80.44,490.79s.09.12.24.32c.08.1.16.23.3.37.15.14.32.3.51.47.19.17.39.36.6.56.22.2.55.41.83.62.3.21.61.44.93.66.38.22.77.45,1.15.68,1.53.91,3.53,1.79,5.12,2.44.76.33,1.57.59,2.05.78.51.19.8.29.8.29l-24.69,1.94s-.35-.13-.96-.35c-.58-.23-1.53-.54-2.44-.93-1.9-.78-4.27-1.83-6.1-2.91-.46-.27-.92-.54-1.37-.8-.38-.27-.75-.53-1.11-.79-.34-.26-.72-.5-.98-.74-.26-.24-.5-.46-.72-.67-.22-.21-.42-.4-.6-.56-.16-.17-.26-.32-.36-.44-.19-.24-.29-.38-.29-.38l27.08-.57Z"/>
              <path class="cls-19" d="M80.12,485.18s-.04.05-.1.13c-.04.08-.09.2-.16.34-.11.28-.35.66-.43,1.04-.06.38-.12.76-.16,1.04l.06.47-27.29.08s-.03-.22-.06-.56c.05-.34.12-.79.19-1.24.1-.45.37-.9.51-1.23.08-.17.15-.31.2-.41.07-.1.11-.15.11-.15l27.14.49Z"/>
              <path class="cls-19" d="M98.33,475.86s-.35.1-.97.28c-.65.18-1.43.44-2.4.75-.48.16-1,.33-1.55.51-.5.18-1.03.38-1.57.58-1.14.4-2.15.84-3.18,1.28-.54.22-1,.44-1.43.66-.45.22-.88.44-1.31.64-.77.42-1.41.82-2,1.16-.96.69-1.61,1.15-1.61,1.15l-26.72-.93s.19-.14.52-.38c.34-.24.78-.58,1.4-.99.69-.4,1.46-.88,2.39-1.38.5-.25,1.03-.51,1.55-.77.52-.26,1.07-.53,1.71-.79,1.23-.52,2.44-1.04,3.79-1.52.65-.24,1.28-.47,1.88-.69.65-.21,1.27-.42,1.84-.6,1.15-.37,2.09-.69,2.85-.9.73-.21,1.15-.33,1.15-.33l23.67,2.26Z"/>
              <path class="cls-19" d="M118.39,471.35s-.8.14-1.95.34c-1.12.21-2.61.5-4.1.79-1.41.3-2.82.59-3.88.82-.54.11-.95.21-1.23.28-.29.07-.45.11-.45.11l-22.07-2.67s.2-.05.54-.13c.34-.08.83-.2,1.47-.33,1.25-.27,2.91-.62,4.61-.97,1.77-.34,3.54-.68,4.87-.94,1.37-.25,2.31-.41,2.31-.41l19.88,3.11Z"/>
              <path class="cls-19" d="M166.62,465.73s-.64.05-1.77.13c-1.12.09-2.75.2-4.65.36-1.88.16-4.11.34-6.42.56-1.15.11-2.33.22-3.54.34-.6.06-1.22.11-1.82.18l-1.78.19c-1.19.13-2.38.25-3.55.38-1.16.13-2.25.26-3.34.39-1.07.13-2.14.25-3.1.37-.95.12-1.86.24-2.69.35-.83.11-1.6.21-2.27.3-.65.09-1.22.18-1.69.24-.93.13-1.47.21-1.47.21l-17.97-3.42s.63-.09,1.75-.25c.56-.08,1.23-.18,2.01-.29.8-.11,1.71-.22,2.7-.35.99-.13,2.07-.27,3.2-.42,1.14-.15,2.4-.29,3.68-.44,1.29-.15,2.6-.31,3.97-.46,1.39-.15,2.81-.3,4.22-.45l2.12-.23c.71-.07,1.44-.14,2.16-.21,1.43-.14,2.85-.27,4.21-.4,2.75-.26,5.41-.47,7.64-.66,2.26-.19,4.2-.32,5.54-.42,1.34-.1,2.11-.16,2.11-.16l10.75,4.18Z"/>
              <path class="cls-19" d="M198.94,464.15s-1.12.03-2.8.08c-1.69.04-3.9.13-6.12.22-1.11.04-2.22.08-3.25.13-1.03.05-1.98.09-2.8.13-1.64.08-2.74.13-2.74.13l-7.96-4.35s1.3-.06,3.26-.15c.98-.05,2.12-.1,3.34-.16,1.22-.06,2.55-.1,3.87-.15,2.64-.1,5.27-.21,7.28-.26,2-.06,3.33-.1,3.33-.1l4.58,4.48Z"/>
              <path class="cls-19" d="M236.49,463.9s-1.47-.02-3.68-.05c-2.2-.04-5.16-.04-8.1-.05-1.47-.01-2.95,0-4.33,0-1.38,0-2.67.01-3.78.02-1.11,0-2.02.02-2.67.03-.64,0-1.01.01-1.01.01l-1.93-4.53s.44,0,1.2-.01c.76,0,1.86-.03,3.17-.03,1.31,0,2.84-.01,4.48-.02,1.64,0,3.39-.02,5.14,0,3.5.02,7,.02,9.62.06,2.62.03,4.37.06,4.37.06l-2.48,4.52Z"/>
              <path class="cls-19" d="M275.13,465.41s-1.06-.07-2.65-.17c-1.62-.09-3.77-.21-5.93-.33-2.17-.11-4.37-.21-6.01-.29-.82-.04-1.5-.07-1.99-.09-.48-.02-.76-.03-.76-.03l6.52-4.41s.33.01.91.04c.58.02,1.4.06,2.37.1,1.95.09,4.57.21,7.16.34,2.57.14,5.13.29,7.06.4,1.9.12,3.16.2,3.16.2l-9.84,4.24Z"/>
              <path class="cls-19" d="M324.56,470.74s-.51-.08-1.41-.22c-.91-.14-2.14-.35-3.74-.58-1.62-.23-3.43-.51-5.51-.78-2.1-.27-4.26-.57-6.6-.84-1.15-.14-2.3-.27-3.44-.41-1.17-.13-2.32-.25-3.44-.37-2.2-.25-4.36-.45-6.2-.62-.92-.09-1.76-.17-2.51-.24-.77-.07-1.43-.12-1.98-.17-1.1-.09-1.73-.15-1.73-.15l12.29-4.06s.75.06,2.06.18c.65.06,1.45.12,2.36.2.9.08,1.9.18,2.99.28,2.19.21,4.75.45,7.38.74,1.32.14,2.69.29,4.08.44,1.35.16,2.72.32,4.09.48,2.77.32,5.36.67,7.85,1,2.46.33,4.63.66,6.55.93,1.89.28,3.37.53,4.44.69,1.06.17,1.67.27,1.67.27l-19.2,3.23Z"/>
              <path class="cls-19" d="M345.56,475.12s-.61-.16-1.54-.4c-.47-.12-.98-.26-1.59-.41-.62-.14-1.28-.3-1.94-.45-.66-.15-1.32-.31-1.94-.45-.66-.14-1.27-.27-1.8-.38-1.05-.22-1.76-.37-1.76-.37l21.17-2.87s.84.18,2.09.44c.63.13,1.35.29,2.14.45.74.17,1.53.35,2.31.54.78.18,1.56.37,2.3.54.72.17,1.34.34,1.89.48,1.09.28,1.82.47,1.82.47l-23.17,2.4Z"/>
              <path class="cls-19" d="M367.25,487.77s-.03-.17-.07-.47c-.07-.3-.04-.73-.34-1.24-.34-1.03-1.5-2.39-3.37-3.73-1.88-1.34-4.42-2.65-6.84-3.59-.54-.24-1.13-.46-1.65-.65-.52-.19-.97-.36-1.34-.49-.37-.14-.66-.24-.89-.32-.22-.07-.34-.11-.34-.11l24.47-2.01s.14.05.4.13c.27.08.62.21,1.06.38.44.16.98.36,1.6.59.62.23,1.31.48,1.97.77,2.87,1.13,5.92,2.69,8.15,4.28,2.23,1.59,3.59,3.21,4,4.44.34.61.33,1.12.4,1.48.05.36.08.56.08.56h-27.29Z"/>
              <path class="cls-19" d="M340.45,499.42s.57-.17,1.57-.46c1.05-.29,2.33-.71,3.9-1.22,3.02-1.03,6.49-2.45,8.9-3.93,2.47-1.47,3.85-2.99,4.4-4.13.13-.29.24-.55.35-.78.03-.23.06-.44.09-.6.05-.33.08-.53.08-.53h4.25s-.03.2-.08.54c-.03.17-.06.38-.09.62-.11.24-.23.51-.36.8-.57,1.18-1.99,2.74-4.54,4.26-2.48,1.52-6.07,2.99-9.18,4.05-1.62.53-2.94.97-4.02,1.26-1.03.3-1.62.47-1.62.47l-3.65-.36Z"/>
              <path class="cls-19" d="M397.53,487.77s-.02-.18-.07-.52c-.08-.34-.03-.85-.4-1.52-.53-1.33-1.82-3.29-5.84-5.69-.52-.3-1.05-.61-1.59-.92-.63-.31-1.28-.63-1.94-.96-.63-.33-1.43-.66-2.22-.99-.81-.33-1.57-.68-2.53-1.02-3.57-1.38-8.19-2.82-13.91-4.27-11.41-2.9-27.56-5.84-48.92-8.22-10.67-1.18-22.59-2.22-35.55-3.04-12.95-.82-26.99-1.38-41.59-1.66-1.82-.04-3.66-.06-5.5-.09-1.84-.02-3.69-.05-5.55-.07-1.86,0-3.72-.02-5.59-.02h-2.81c-.94-.01-1.88,0-2.82,0-1.88,0-3.77.02-5.66.02-1.89.01-3.79.04-5.69.06-3.81.04-7.61.13-11.44.21-7.63.2-15.31.45-22.87.82-3.82.17-7.54.4-11.31.61-1.87.11-3.71.24-5.58.36l-2.79.18-2.74.21c-14.69,1.08-28.66,2.53-41.31,4.29-6.34.88-12.25,1.85-17.86,2.88-5.59,1.03-10.66,2.15-15.37,3.31-4.69,1.16-8.78,2.4-12.46,3.67-3.66,1.28-6.63,2.61-9.17,3.96-2.5,1.36-4.27,2.75-5.59,4.16-1.25,1.41-1.79,2.83-1.88,4.25.09,1.42.63,2.84,1.88,4.25,1.32,1.41,3.08,2.8,5.59,4.16,2.53,1.36,5.51,2.69,9.17,3.96,3.68,1.27,7.77,2.51,12.46,3.67,4.71,1.16,9.79,2.28,15.37,3.31,5.61,1.03,11.52,2,17.86,2.88,12.65,1.76,26.62,3.21,41.31,4.29l2.74.2,2.79.18c1.86.12,3.71.25,5.58.36,3.77.21,7.5.44,11.31.61,7.56.38,15.25.63,22.87.82,3.83.08,7.63.17,11.44.21,1.9.02,3.8.05,5.69.06,1.89,0,3.78.02,5.66.02.94,0,1.88,0,2.82,0h2.81c1.87-.02,3.73-.03,5.59-.04,1.86-.02,3.7-.04,5.55-.07,1.84-.02,3.68-.04,5.5-.09,14.6-.28,28.64-.84,41.59-1.66,12.96-.82,24.88-1.86,35.55-3.04,21.35-2.38,37.5-5.33,48.92-8.22,5.72-1.45,10.34-2.89,13.91-4.27.96-.34,1.73-.69,2.53-1.02.79-.34,1.59-.66,2.22-.99.66-.33,1.31-.65,1.94-.96.54-.32,1.08-.62,1.59-.92,4.02-2.41,5.32-4.37,5.84-5.69.36-.66.31-1.18.4-1.52.05-.34.07-.52.07-.52h1.6s-.02.18-.07.53c-.09.35-.04.86-.4,1.53-.53,1.34-1.84,3.32-5.9,5.75-.52.3-1.06.61-1.61.93-.64.31-1.29.64-1.96.97-.64.33-1.44.66-2.24,1-.81.34-1.59.69-2.56,1.03-3.61,1.39-8.27,2.85-14.04,4.31-11.52,2.92-27.82,5.9-49.37,8.3-10.77,1.2-22.8,2.24-35.88,3.07-13.07.83-27.24,1.39-41.97,1.68-1.84.04-3.69.06-5.55.09-1.86.02-3.73.05-5.6.07-1.87,0-3.75.02-5.64.02h-2.83c-.95.01-1.89,0-2.84,0-1.9,0-3.8-.02-5.71-.02-1.91-.01-3.82-.04-5.74-.07-3.84-.04-7.68-.13-11.54-.21-7.7-.2-15.45-.45-23.08-.83-3.85-.17-7.61-.4-11.42-.61-1.88-.12-3.75-.24-5.63-.36l-2.81-.19-2.77-.21c-14.83-1.09-28.92-2.55-41.69-4.33-6.4-.89-12.37-1.87-18.03-2.9-5.64-1.04-10.76-2.16-15.52-3.34-4.73-1.18-8.86-2.42-12.57-3.71-3.69-1.29-6.7-2.63-9.25-4-2.53-1.37-4.31-2.78-5.64-4.2-1.26-1.42-1.8-2.86-1.9-4.29.09-1.43.64-2.87,1.9-4.29,1.33-1.42,3.11-2.83,5.64-4.2,2.55-1.37,5.56-2.71,9.25-4,3.71-1.28,7.84-2.53,12.57-3.71,4.75-1.17,9.88-2.3,15.52-3.34,5.66-1.04,11.62-2.02,18.03-2.9,12.77-1.78,26.86-3.24,41.69-4.33l2.77-.21,2.81-.19c1.88-.12,3.74-.25,5.63-.36,3.81-.21,7.57-.44,11.42-.61,7.63-.38,15.39-.63,23.08-.83,3.86-.08,7.7-.17,11.54-.21,1.92-.02,3.83-.05,5.74-.07,1.91,0,3.81-.02,5.71-.02.95,0,1.9,0,2.84,0h2.83c1.89.02,3.77.03,5.64.04,1.87.02,3.74.04,5.6.07,1.86.02,3.71.04,5.55.09,14.73.29,28.9.85,41.97,1.68,13.08.82,25.11,1.87,35.88,3.07,21.55,2.4,37.85,5.38,49.37,8.3,5.77,1.46,10.43,2.92,14.04,4.31.97.34,1.75.69,2.56,1.03.8.34,1.6.67,2.24,1,.67.33,1.32.65,1.96.97.55.32,1.09.63,1.61.93,4.06,2.43,5.36,4.41,5.9,5.75.37.67.32,1.19.4,1.53.05.35.07.53.07.53h-1.6Z"/>
              <path class="cls-19" d="M338.5,487.77s-.02-.12-.06-.35c-.07-.23,0-.57-.27-1.01-.34-.88-1.19-2.18-3.86-3.76-.34-.2-.68-.4-1.04-.61-.42-.2-.85-.42-1.29-.63-.4-.22-.95-.43-1.47-.65-.54-.22-1.01-.45-1.67-.67-2.34-.91-5.4-1.86-9.19-2.82-7.55-1.92-18.27-3.87-32.4-5.45-7.07-.78-14.94-1.47-23.48-2.01-8.53-.54-17.78-.9-27.43-1.1-1.2-.03-2.42-.04-3.65-.06-1.22-.02-2.45-.03-3.68-.05-1.24,0-2.48,0-3.72-.01h-1.87c-.62,0-1.25,0-1.88,0-1.25,0-2.51.01-3.77.02-1.26,0-2.51.03-3.77.04-2.53.02-5.04.09-7.57.14-5.03.13-10.11.29-15.09.55-2.52.11-4.96.26-7.46.4-1.23.08-2.44.16-3.67.24l-1.84.12-1.8.14c-9.69.71-18.93,1.67-27.32,2.84-4.21.58-8.11,1.23-11.84,1.91-3.71.68-7.05,1.42-10.18,2.19-3.11.77-5.79,1.59-8.23,2.43-2.43.84-4.35,1.72-6.04,2.61-1.66.89-2.79,1.82-3.69,2.74-.82.93-1.16,1.87-1.25,2.82.09.95.43,1.89,1.25,2.82.9.93,2.03,1.85,3.69,2.74,1.69.89,3.62,1.77,6.04,2.61,2.44.84,5.12,1.66,8.23,2.43,3.13.77,6.47,1.51,10.18,2.19,3.73.68,7.63,1.33,11.84,1.91,8.39,1.17,17.62,2.13,27.32,2.84l1.8.14,1.84.12c1.23.08,2.44.16,3.67.24,2.5.13,4.94.29,7.46.4,4.98.25,10.05.41,15.09.55,2.54.05,5.04.12,7.57.14,1.26.01,2.51.04,3.77.04,1.26,0,2.52,0,3.77.01.63,0,1.25,0,1.88,0h1.87c1.24-.01,2.48-.02,3.72-.02,1.23-.02,2.46-.03,3.68-.05,1.22-.02,2.45-.02,3.65-.06,9.65-.19,18.9-.55,27.43-1.1,8.54-.54,16.41-1.22,23.48-2.01,14.13-1.58,24.85-3.53,32.4-5.45,3.78-.96,6.85-1.91,9.19-2.82.66-.22,1.13-.45,1.67-.67.52-.22,1.07-.44,1.47-.65.44-.22.87-.43,1.29-.63.35-.21.7-.41,1.04-.61,2.66-1.59,3.52-2.88,3.86-3.76.27-.44.19-.78.27-1.01.04-.23.06-.35.06-.35h2.38s-.02.12-.06.35c-.07.23,0,.58-.27,1.03-.34.9-1.22,2.22-3.94,3.84-.34.2-.7.41-1.06.62-.43.21-.87.42-1.31.64-.41.22-.97.44-1.5.67-.55.22-1.03.46-1.7.69-2.39.93-5.52,1.9-9.38,2.88-7.71,1.95-18.65,3.95-33.07,5.56-7.21.8-15.25,1.5-23.96,2.05-8.71.55-18.15.92-28,1.12-1.23.03-2.47.04-3.72.06-1.25.02-2.5.03-3.75.05-1.26,0-2.53,0-3.8.01h-1.91c-.64,0-1.27,0-1.91,0-1.28,0-2.56-.01-3.84-.02-1.28,0-2.56-.03-3.85-.05-2.58-.02-5.14-.09-7.73-.14-5.14-.14-10.32-.3-15.4-.56-2.58-.11-5.07-.27-7.61-.41-1.25-.08-2.49-.16-3.75-.24l-1.88-.12-1.84-.14c-9.9-.72-19.32-1.71-27.88-2.9-4.3-.59-8.27-1.25-12.08-1.95-3.79-.7-7.2-1.45-10.39-2.23-3.18-.79-5.91-1.62-8.4-2.48-2.48-.86-4.44-1.76-6.17-2.67-1.69-.91-2.85-1.85-3.76-2.8-.84-.95-1.18-1.91-1.28-2.88.09-.97.43-1.93,1.28-2.88.91-.95,2.07-1.89,3.76-2.8,1.72-.91,3.69-1.81,6.17-2.67,2.49-.86,5.23-1.69,8.4-2.48,3.2-.78,6.61-1.54,10.39-2.23,3.81-.69,7.79-1.35,12.08-1.95,8.56-1.19,17.98-2.17,27.88-2.9l1.84-.14,1.88-.12c1.25-.08,2.49-.17,3.75-.24,2.55-.14,5.04-.3,7.61-.41,5.08-.26,10.26-.42,15.4-.56,2.59-.05,5.15-.12,7.73-.14,1.29-.01,2.57-.04,3.85-.05,1.28,0,2.57-.01,3.84-.02.64,0,1.28,0,1.91,0h1.91c1.27.01,2.53.02,3.8.02,1.26.02,2.51.03,3.75.05,1.25.02,2.49.03,3.72.06,9.85.19,19.3.56,28,1.12,8.71.55,16.75,1.25,23.96,2.05,14.42,1.61,25.36,3.61,33.07,5.56,3.86.98,6.99,1.95,9.38,2.88.67.23,1.16.46,1.7.69.53.23,1.09.44,1.5.67.45.22.89.43,1.31.64.36.21.72.42,1.06.62,2.72,1.62,3.59,2.94,3.94,3.84.27.45.2.8.27,1.03.04.23.06.35.06.35h-2.38Z"/>
              <path class="cls-19" d="M274.66,508.82s4.29-.27,10.43-.8c6.15-.51,14.06-1.3,21.32-2.24,7.3-.93,13.9-2,18.5-2.85,1.13-.22,2.16-.42,3.08-.59.93-.17,1.64-.34,2.27-.47,1.24-.26,1.95-.41,1.95-.41l3.39.43s-.73.15-2.01.43c-.66.13-1.38.31-2.34.48-.94.18-2.01.39-3.17.61-4.74.88-11.55,1.98-19.07,2.94-7.49.97-15.64,1.78-21.98,2.31-6.33.54-10.75.82-10.75.82l-1.6-.66Z"/>
              <path class="cls-19" d="M188.14,509.73s.28.01.79.04c.52.02,1.29.05,2.27.09,1.96.07,4.74.19,8.14.28,6.77.2,15.94.37,25.14.35,9.2-.01,18.36-.19,25.1-.42,1.7-.04,3.22-.12,4.59-.17,1.36-.05,2.56-.09,3.52-.14,1.93-.09,3.03-.14,3.03-.14l1.17.68s-1.14.05-3.13.15c-1,.04-2.23.09-3.64.14-1.41.05-2.98.13-4.73.17-6.95.24-16.4.42-25.88.43-9.48.02-18.93-.15-25.92-.36-3.51-.09-6.38-.21-8.4-.29-1.01-.04-1.8-.07-2.34-.09-.53-.03-.82-.04-.82-.04l1.09-.68Z"/>
              <path class="cls-19" d="M115.82,501.78s.71.15,1.95.41c.64.13,1.45.28,2.36.46.93.17,1.91.38,3.13.58,4.64.85,11.38,1.9,18.78,2.8,7.38.91,15.35,1.68,21.56,2.18,1.55.13,3,.23,4.27.33,1.27.1,2.38.18,3.32.24,1.87.12,2.94.19,2.94.19l-1.53.66s-1.1-.07-3.03-.2c-.97-.06-2.11-.15-3.43-.25-1.31-.1-2.81-.21-4.4-.34-6.4-.51-14.62-1.31-22.23-2.25-7.64-.93-14.58-2.02-19.37-2.89-1.25-.21-2.27-.42-3.23-.6-.94-.18-1.78-.34-2.44-.47-1.28-.27-2.01-.43-2.01-.43l3.35-.44Z"/>
              <path class="cls-19" d="M204.52,465.27s-.57.01-1.57.03c-1,.02-2.4.07-4.1.12-.85.02-1.77.05-2.74.08-.97.03-1.98.07-3.03.11-2.1.08-4.34.16-6.53.27-1.1.05-2.21.1-3.29.16-1.09.05-2.13.12-3.15.17-2.04.12-3.95.22-5.54.33-1.6.1-2.94.19-3.87.25-.47.03-.83.06-1.07.08-.24.02-.38.03-.38.03l-1.69-.65s.13-.01.39-.03c.25-.02.62-.05,1.11-.08.96-.06,2.34-.15,3.99-.26,1.64-.12,3.61-.22,5.71-.34,1.06-.06,2.13-.13,3.25-.18,1.12-.05,2.26-.11,3.4-.16,2.26-.12,4.58-.2,6.74-.28,1.08-.04,2.12-.09,3.12-.12,1-.03,1.95-.06,2.82-.08,1.75-.05,3.2-.1,4.23-.12,1.03-.02,1.61-.03,1.61-.03l.58.7Z"/>
              <path class="cls-19" d="M359.74,487.77s-.06-.36-.14-.91c0-.27-.21-.59-.35-.93-.08-.17-.14-.35-.25-.52-.14-.18-.27-.36-.41-.54-.14-.18-.27-.36-.41-.54-.19-.18-.37-.35-.55-.52-.37-.33-.66-.65-1.07-.91-.37-.27-.67-.49-.89-.64-.2-.16-.36-.24-.36-.24l4.12-.18s.16.09.37.25c.22.16.54.39.92.66.42.27.72.6,1.1.94.18.17.37.35.56.53.14.18.28.37.42.55.14.19.28.37.42.55.11.18.17.36.26.54.14.35.36.68.36.96.09.56.14.94.14.94h-4.25Z"/>
              <path class="cls-19" d="M258.34,465.81s-.14,0-.4-.02c-.26-.01-.64-.03-1.13-.05-.98-.04-2.38-.09-4.05-.16-1.67-.07-3.65-.13-5.77-.19-1.06-.03-2.15-.07-3.27-.09-1.12-.02-2.26-.05-3.4-.07-1.14-.02-2.28-.05-3.4-.07-1.13-.01-2.24-.03-3.31-.04-1.07-.01-2.11-.03-3.1-.04-.99,0-1.92,0-2.78-.01-1.72,0-3.16-.01-4.16-.02-1.01,0-1.58,0-1.58,0l-.04-.71s.59,0,1.63,0c1.04,0,2.52.01,4.29.02.89,0,1.85,0,2.87.01,1.01.01,2.08.03,3.19.04s2.25.03,3.41.04c1.16.02,2.33.05,3.51.07,1.17.02,2.35.05,3.5.07,1.15.03,2.28.07,3.37.1,2.18.06,4.23.12,5.95.19,1.73.07,3.17.12,4.18.16.51.02.9.04,1.16.05.27.01.41.02.41.02l-1.09.68Z"/>
              <path class="cls-19" d="M86.84,488.18s.03.19.08.53c0,.17.09.37.2.6.11.23.22.49.35.78.72,1.14,2.26,2.65,4.89,4.12,2.56,1.47,6.19,2.88,9.35,3.9,1.51.52,3.02.92,4,1.21.5.15.89.26,1.19.33.29.08.45.12.45.12l-3.61.37s-.16-.04-.46-.12c-.31-.08-.71-.19-1.23-.34-1.02-.3-2.57-.72-4.13-1.25-3.26-1.05-7-2.5-9.64-4.02-2.71-1.51-4.3-3.07-5.04-4.25-.13-.29-.26-.57-.37-.8-.12-.24-.21-.45-.21-.62-.05-.34-.08-.54-.08-.54h4.25Z"/>
              <path class="cls-19" d="M147.9,468.83s-.41.04-1.15.12c-.73.09-1.8.21-3.16.37-.68.08-1.45.17-2.25.27-.79.1-1.65.22-2.56.34-.9.12-1.91.24-2.89.39-.99.14-2.03.29-3.11.45-4.26.64-9.1,1.41-13.68,2.33-4.62.91-9.12,1.94-13.05,3.03-3.97,1.09-7.24,2.24-9.86,3.35-.33.14-.66.28-.98.41-.32.14-.57.28-.85.41-.54.27-1.12.54-1.59.8-.88.53-1.8,1.02-2.38,1.49-.31.23-.65.45-.91.67-.23.21-.45.42-.65.61-.19.19-.43.37-.55.53-.13.17-.24.32-.35.46-.2.28-.39.49-.48.64-.07.15-.1.23-.1.23l-4.24-.06s.04-.08.11-.24c.08-.15.28-.38.49-.66.11-.14.23-.3.36-.47.13-.17.37-.35.56-.55.21-.2.43-.41.67-.63.26-.22.61-.45.93-.69.6-.48,1.54-.99,2.45-1.53.49-.27,1.09-.54,1.64-.82.29-.14.55-.28.88-.42.33-.14.67-.28,1.01-.43,2.7-1.14,6.07-2.33,10.17-3.46,4.05-1.12,8.69-2.19,13.46-3.13,4.72-.95,9.71-1.74,14.1-2.4,1.12-.16,2.19-.32,3.2-.46,1.01-.15,2.05-.27,2.98-.4.94-.12,1.83-.24,2.64-.35.83-.1,1.62-.19,2.32-.28,1.4-.17,2.51-.3,3.26-.39.76-.09,1.19-.13,1.19-.13l2.35.59Z"/>
              <path class="cls-19" d="M352.75,480.59s-.15-.08-.44-.22c-.31-.14-.65-.35-1.3-.61-.63-.26-1.33-.57-2.24-.93-.48-.18-.99-.36-1.53-.56-.53-.2-1.09-.41-1.77-.62-5.06-1.71-13.43-3.87-24.19-5.69-5.32-.91-11.11-1.75-16.85-2.46-5.75-.71-11.5-1.28-16.51-1.75-5.07-.45-9.42-.77-12.5-.99-3.11-.2-4.88-.32-4.88-.32l1.47-.66s1.83.12,5.04.33c3.18.22,7.67.56,12.9,1.02,5.16.48,11.09,1.07,17.02,1.8,5.92.74,11.89,1.6,17.37,2.54,11.09,1.87,19.72,4.1,24.94,5.86.7.22,1.28.43,1.83.64.55.2,1.08.4,1.58.58.94.37,1.66.69,2.31.96.67.26,1.02.48,1.34.63.3.15.45.22.45.22l-4.04.22Z"/>
              <path class="cls-19" d="M336.6,494.28s.3-.15.76-.37c.51-.22.94-.53,1.48-.83.57-.3.94-.61,1.27-.84.32-.23.54-.38.54-.38l13.42.46s-.24.17-.6.43c-.36.26-.79.6-1.41.94-.6.34-1.09.68-1.65.93-.51.25-.85.42-.85.42l-12.95-.74Z"/>
              <path class="cls-19" d="M326.22,498s.47-.14,1.18-.34c.36-.1.77-.22,1.22-.35.41-.13.84-.27,1.27-.41.43-.14.87-.28,1.27-.41.41-.13.71-.26,1.01-.37.59-.22.98-.36.98-.36l12.55.91s-.43.16-1.09.4c-.34.12-.68.26-1.13.41-.45.15-.93.3-1.42.46-.48.16-.97.31-1.42.46-.49.14-.96.28-1.35.39-.79.23-1.31.38-1.31.38l-11.76-1.17Z"/>
              <path class="cls-19" d="M313.72,500.86s.34-.07.85-.16c.51-.1,1.22-.23,1.84-.36,1.29-.27,2.57-.54,2.57-.54l10.93,1.38-2.86.61c-.69.15-1.48.3-2.04.41-.57.11-.95.18-.95.18l-10.34-1.5Z"/>
              <path class="cls-19" d="M237.55,507.59s.94-.02,2.35-.05c1.42-.02,3.27-.08,5.14-.14.93-.03,1.87-.05,2.73-.08.86-.03,1.67-.06,2.36-.09,1.38-.05,2.31-.09,2.31-.09l3.32,2.21s-1.03.04-2.57.1c-.77.03-1.67.06-2.63.1-.97.04-2.01.06-3.05.09-2.08.06-4.15.13-5.73.15-1.57.03-2.62.06-2.62.06l-1.61-2.27Z"/>
              <path class="cls-19" d="M212.85,507.65s.95.01,2.37.03c1.42.03,3.32.03,5.22.04.95,0,1.9,0,2.79.01.89,0,1.72,0,2.44-.01,1.43,0,2.38,0,2.38,0l.54,2.28s-1.06,0-2.64.01c-.79,0-1.72,0-2.71.01-.99,0-2.05,0-3.1-.01-2.11,0-4.23-.01-5.81-.04-1.58-.02-2.63-.03-2.63-.03l1.17-2.27Z"/>
              <path class="cls-19" d="M188.66,506.89s.91.04,2.28.11c.68.03,1.48.07,2.33.11.86.03,1.79.07,2.71.1.92.04,1.84.07,2.71.1.86.03,1.69.05,2.38.07,1.4.04,2.33.07,2.33.07l-2.25,2.25s-1.04-.03-2.6-.08c-.78-.02-1.69-.05-2.66-.08-.96-.04-1.99-.08-3.02-.12-1.03-.04-2.06-.08-3.02-.12-.95-.05-1.84-.09-2.6-.12-1.52-.07-2.54-.12-2.54-.12l3.95-2.18Z"/>
              <path class="cls-19" d="M168.98,505.57s.46.04,1.15.1c.35.03.75.06,1.18.1.44.03.92.07,1.39.1,1.89.14,3.78.29,3.78.29l-5.35,2.1s-2.11-.16-4.22-.32c-.53-.04-1.06-.08-1.55-.12-.48-.04-.93-.08-1.32-.11-.77-.07-1.29-.11-1.29-.11l6.21-2.03Z"/>
              <path class="cls-19" d="M292.96,504.01s.77-.09,1.94-.23c1.12-.15,2.61-.34,4.1-.54,1.47-.2,2.87-.41,3.96-.56.54-.08.99-.14,1.28-.19.3-.05.47-.08.47-.08l9.31,1.67s-.19.03-.52.08c-.32.05-.83.13-1.43.21-1.21.17-2.77.41-4.41.63-1.66.22-3.32.43-4.57.6-1.29.15-2.15.25-2.15.25l-7.98-1.85Z"/>
              <path class="cls-19" d="M262.94,506.61s1.46-.07,3.58-.22c1.06-.07,2.3-.15,3.63-.24,1.3-.1,2.69-.2,4.08-.31,1.41-.1,2.73-.23,4.01-.33,1.28-.11,2.47-.21,3.45-.31,1.99-.19,3.31-.32,3.31-.32l7.07,1.95-3.69.35c-1.09.11-2.42.22-3.84.34-1.43.12-2.91.26-4.48.37-1.55.12-3.1.23-4.55.34-1.48.1-2.87.19-4.05.27-2.36.16-3.99.25-3.99.25l-4.53-2.15Z"/>
              <path class="cls-19" d="M148.19,503.33s.75.1,1.86.24c1.09.15,2.65.33,4.2.52.78.09,1.53.19,2.28.27.75.08,1.45.15,2.05.22,1.2.13,1.99.21,1.99.21l-7.18,1.94s-.89-.09-2.22-.24c-.67-.07-1.45-.15-2.28-.24-.83-.09-1.67-.2-2.54-.3-1.73-.2-3.45-.41-4.67-.57-1.25-.16-2.08-.27-2.08-.27l8.59-1.78Z"/>
              <path class="cls-19" d="M130.62,500.45s.15.03.42.08c.27.05.66.13,1.13.22.95.18,2.12.43,3.47.65,2.57.47,5.35.89,5.35.89l-9.4,1.66s-3.1-.48-5.96-1c-1.5-.25-2.81-.52-3.87-.72-.52-.1-.95-.18-1.25-.24-.31-.06-.47-.09-.47-.09l10.58-1.45Z"/>
              <path class="cls-19" d="M117.01,497.02s.11.04.3.1c.19.06.44.15.81.25.71.21,1.65.48,2.6.75,1.02.27,2.05.53,2.81.73.37.1.74.18.98.24.24.06.38.09.38.09l-11.24,1.31s-.15-.04-.42-.1c-.26-.06-.67-.15-1.09-.26-.86-.22-1.99-.52-3.13-.81-1.05-.3-2.1-.61-2.89-.84-.41-.11-.68-.21-.9-.28-.21-.07-.33-.11-.33-.11l12.13-1.06Z"/>
              <path class="cls-19" d="M108.85,493.76s.67.33,1.33.65c.31.16.68.33.98.45.29.12.48.2.48.2l-12.75.83s-.21-.09-.53-.22c-.33-.13-.75-.31-1.1-.5-.74-.36-1.49-.73-1.49-.73l13.07-.68Z"/>
              <path class="cls-19" d="M114.32,479.43s-.39.14-.98.36c-.63.21-1.26.51-1.97.8-.74.29-1.3.59-1.76.81l-.76.37-13.07-.68s.34-.17.85-.42c.51-.25,1.14-.58,1.96-.91.79-.33,1.5-.66,2.2-.89.65-.24,1.09-.4,1.09-.4l12.44.95Z"/>
              <path class="cls-19" d="M126.86,475.9s-.55.13-1.37.32c-.41.1-.9.21-1.41.33-.52.12-1,.26-1.52.39-1.02.27-2.07.53-2.74.74-.71.2-1.18.34-1.18.34l-11.95-1.12s.53-.15,1.32-.38c.75-.23,1.91-.53,3.05-.82.58-.15,1.12-.3,1.69-.43.57-.13,1.11-.26,1.57-.37.92-.22,1.53-.36,1.53-.36l11.01,1.36Z"/>
              <path class="cls-19" d="M143.52,472.87s-.18.03-.49.07c-.32.04-.74.11-1.26.19-1.01.17-2.43.38-3.75.6-1.31.23-2.62.46-3.6.63-.93.18-1.55.3-1.55.3l-10.33-1.5s.69-.13,1.73-.33c1.09-.19,2.55-.45,4-.7,1.48-.25,3.05-.49,4.18-.67.57-.09,1.04-.17,1.4-.22.35-.05.55-.08.55-.08l9.12,1.7Z"/>
              <path class="cls-19" d="M160.56,470.76s-1.75.19-3.5.37c-.89.09-1.71.2-2.35.27-.64.08-1.06.13-1.06.13l-7.97-1.86s.47-.06,1.18-.14c.71-.08,1.63-.2,2.62-.3,1.95-.21,3.9-.42,3.9-.42l7.18,1.94Z"/>
              <path class="cls-19" d="M103.69,489.18s.07.16.18.39c.06.24.36.55.58.86.13.16.21.31.37.46.16.15.31.28.43.4l.41.39-13.44.44s-.18-.17-.46-.43c-.14-.13-.3-.28-.48-.44-.18-.16-.27-.34-.41-.51-.25-.35-.58-.7-.65-.96-.12-.26-.2-.44-.2-.44l13.67-.16Z"/>
              <path class="cls-19" d="M106.07,483.55s-.09.06-.24.17c-.14.11-.28.27-.49.45-.19.19-.47.41-.67.64-.18.24-.37.49-.56.74-.23.25-.25.51-.39.75-.1.24-.25.46-.24.65-.06.38-.1.64-.1.64l-13.7-.02s.04-.28.11-.71c0-.21.15-.46.26-.73.15-.26.18-.55.44-.83.21-.28.43-.56.63-.83.22-.26.53-.51.74-.72.23-.21.4-.38.55-.51.17-.12.27-.19.27-.19l13.39.48Z"/>
              <path class="cls-19" d="M182.86,468.97s-.9.05-2.21.14c-1.31.09-3.1.19-4.82.32-1.72.13-3.45.26-4.74.36-1.26.11-2.1.18-2.1.18l-6.21-2.03s.94-.08,2.35-.2c1.44-.11,3.36-.25,5.28-.4,1.93-.14,3.92-.26,5.38-.36,1.46-.1,2.47-.15,2.47-.15l4.62,2.15Z"/>
              <path class="cls-19" d="M206.77,468s-.24,0-.65.01c-.41.01-1,.02-1.7.04-1.4.04-3.26.1-5.13.15-1.84.07-3.69.14-5.07.19-.69.02-1.27.05-1.66.07-.4.02-.62.03-.62.03l-3.57-2.2s.25-.01.7-.03c.44-.02,1.08-.05,1.85-.08,1.54-.06,3.6-.14,5.66-.22,2.08-.06,4.16-.12,5.71-.17.78-.03,1.44-.03,1.89-.05.46,0,.72-.02.72-.02l1.86,2.26Z"/>
              <path class="cls-19" d="M231.46,467.86s-.94-.02-2.37-.03c-1.43,0-3.33-.01-5.23-.02-1.9,0-3.8.01-5.23.02-.71,0-1.31,0-1.72,0-.41,0-.65,0-.65,0l-.78-2.28s.26,0,.72,0c.46,0,1.12,0,1.91,0,1.59,0,3.7-.02,5.81-.02,2.11,0,4.23.02,5.81.02,1.58.01,2.63.03,2.63.03l-.92,2.28Z"/>
              <path class="cls-19" d="M252.44,468.41s-2.02-.08-4.04-.16c-1-.04-2.04-.07-2.8-.09-.77-.02-1.28-.04-1.28-.04l2.39-2.25s.57.02,1.42.04c.85.03,2,.05,3.12.1,2.25.09,4.51.17,4.51.17l-3.32,2.21Z"/>
              <path class="cls-19" d="M322.96,476.68s-.12-.03-.36-.09c-.24-.06-.59-.14-1-.23-.41-.1-.89-.21-1.41-.33-.5-.12-1.06-.25-1.66-.37-1.19-.25-2.31-.5-3.25-.68-.93-.18-1.56-.3-1.56-.3l10.34-1.5s.69.13,1.73.33c1.05.2,2.3.48,3.62.76.67.14,1.29.28,1.85.41.57.13,1.11.26,1.57.37.46.11.84.2,1.11.26.26.06.4.1.4.1l-11.38,1.27Z"/>
              <path class="cls-19" d="M334.47,480.31s-.09-.04-.24-.1c-.16-.06-.34-.16-.64-.26-.58-.22-1.36-.5-2.14-.79-.86-.28-1.72-.56-2.37-.77-.31-.11-.61-.19-.82-.25-.21-.06-.33-.09-.33-.09l11.95-1.11s.13.04.36.1c.23.07.57.16.92.28.72.23,1.68.55,2.64.86.87.32,1.74.64,2.39.88.33.12.54.22.72.29.17.07.27.11.27.11l-12.71.85Z"/>
              <path class="cls-19" d="M341.26,484.24s-.16-.16-.41-.39c-.25-.23-.74-.54-1.14-.85-.1-.08-.21-.15-.31-.23-.13-.07-.26-.15-.38-.22-.24-.14-.47-.27-.66-.39-.19-.11-.35-.21-.46-.27-.1-.07-.19-.1-.19-.1l13.08-.68s.09.04.21.12c.13.07.3.18.52.31.22.13.47.27.74.43.14.08.28.16.42.24.12.08.23.17.35.26.45.34.99.68,1.27.94.28.26.46.43.46.43l-13.49.4Z"/>
              <path class="cls-19" d="M343.16,487.77s-.06-.35-.11-.69c-.03-.17-.02-.35-.11-.48-.06-.13-.1-.22-.1-.22l13.67-.16s.04.1.11.24c.09.14.09.34.13.53.06.39.12.77.12.77h-13.7Z"/>
              <path class="cls-19" d="M278.62,470.07s-.84-.07-2.11-.18c-1.24-.12-3-.23-4.71-.37-1.71-.14-3.48-.25-4.8-.33-1.32-.09-2.2-.15-2.2-.15l4.75-2.14s.98.06,2.45.16c1.47.1,3.45.22,5.35.37,1.92.15,3.87.28,5.25.41,1.41.12,2.35.2,2.35.2l-6.34,2.02Z"/>
              <path class="cls-19" d="M306.14,473.36s-.28-.04-.76-.12c-.5-.07-1.15-.19-2.03-.32-1.74-.25-4.01-.59-6.46-.9-.6-.08-1.2-.16-1.79-.24-.61-.07-1.22-.14-1.8-.21-1.17-.14-2.26-.27-3.2-.38-1.93-.21-3.22-.34-3.22-.34l7.28-1.93s1.43.15,3.59.38c1.04.12,2.26.27,3.56.42.65.08,1.32.16,2,.24.66.09,1.33.17,2,.26,2.72.34,5.26.72,7.2,1,.98.14,1.71.27,2.26.35.54.09.85.13.85.13l-9.48,1.65Z"/>
            </g>
          </g>
          <g class="cls-39">
            <path class="cls-19" d="M302.16,452.3s.08-.11.2-.26c.11-.16.17-.37.28-.58.02-.05.05-.11.07-.16,0-.05.01-.1.02-.15.01-.1.03-.19.04-.27.03-.16.04-.27.04-.27h13.35s-.02.12-.04.31c-.01.09-.03.2-.05.32,0,.06-.02.12-.03.18-.03.06-.05.12-.08.18-.12.25-.2.49-.33.68-.14.18-.23.31-.23.31l-13.25-.28Z"/>
            <path class="cls-19" d="M298.46,454.99s.2-.1.5-.25c.33-.15.63-.36.98-.56.37-.2.62-.41.84-.57.21-.16.35-.26.35-.26l13.07.46s-.16.12-.41.3c-.25.18-.55.42-.98.66-.41.24-.77.48-1.15.65-.35.18-.59.29-.59.29l-12.62-.74Z"/>
            <path class="cls-19" d="M291.57,457.5s.31-.09.78-.23c.24-.07.51-.15.8-.24.27-.09.56-.18.85-.28.29-.09.57-.19.84-.28.27-.09.47-.17.67-.25.39-.15.65-.24.65-.24l12.23.9-.76.28c-.23.08-.48.18-.79.29-.31.1-.65.21-.98.32-.34.11-.66.22-.99.32-.34.1-.66.19-.94.28-.55.16-.92.27-.92.27l-11.46-1.16Z"/>
            <path class="cls-19" d="M283.28,459.42s.23-.04.56-.11c.34-.07.8-.15,1.22-.25l1.7-.37,10.65,1.36s-.99.21-1.99.43c-.49.11-1.03.21-1.42.29-.4.08-.66.13-.66.13l-10.07-1.48Z"/>
            <path class="cls-19" d="M232.72,463.94s.62-.01,1.56-.03c.94-.02,2.17-.06,3.41-.09.62-.02,1.24-.04,1.82-.06.57-.02,1.11-.04,1.57-.06.92-.04,1.53-.06,1.53-.06l3.24,2.19s-.72.03-1.79.07c-.54.02-1.16.05-1.83.07-.67.02-1.4.04-2.12.07-1.45.04-2.89.09-3.99.11-1.09.02-1.82.04-1.82.04l-1.57-2.24Z"/>
            <path class="cls-19" d="M216.35,463.99s.63,0,1.57.02c.94.02,2.2.02,3.46.03.63,0,1.26,0,1.85,0,.59,0,1.14,0,1.61,0,.94,0,1.57,0,1.57,0l.52,2.25s-.73,0-1.83,0c-.55,0-1.19,0-1.88,0-.69,0-1.42,0-2.15,0-1.47,0-2.93-.01-4.03-.03-1.1-.01-1.83-.02-1.83-.02l1.14-2.25Z"/>
            <path class="cls-19" d="M200.29,463.47s.6.03,1.51.07c.45.02.98.05,1.55.07.57.02,1.19.05,1.8.07.61.02,1.22.05,1.8.07.57.02,1.12.03,1.58.05.93.03,1.55.05,1.55.05l-2.19,2.22s-.72-.02-1.81-.05c-.54-.02-1.18-.03-1.85-.06-.67-.03-1.39-.05-2.1-.08-.72-.03-1.43-.06-2.1-.08-.66-.03-1.28-.06-1.81-.09-1.06-.05-1.77-.08-1.77-.08l3.85-2.16Z"/>
            <path class="cls-19" d="M187.22,462.59s.31.03.77.07c.23.02.5.04.79.07.29.02.61.05.92.07,1.26.1,2.51.19,2.51.19l-5.21,2.08s-1.47-.11-2.94-.22c-.37-.03-.73-.06-1.08-.08-.34-.03-.65-.06-.92-.08-.54-.05-.9-.08-.9-.08l6.06-2.01Z"/>
            <path class="cls-19" d="M269.5,461.54s.51-.06,1.28-.15c.74-.1,1.73-.23,2.72-.36.98-.13,1.91-.28,2.63-.38.36-.05.66-.09.85-.13.2-.03.31-.05.31-.05l9.07,1.65s-.13.02-.37.06c-.23.04-.58.09-.99.15-.84.12-1.93.29-3.07.44-1.16.15-2.31.31-3.18.42-.9.11-1.49.18-1.49.18l-7.77-1.83Z"/>
            <path class="cls-19" d="M249.58,463.29s.97-.05,2.37-.15c.71-.05,1.53-.1,2.41-.16.87-.07,1.79-.14,2.71-.21.93-.07,1.81-.15,2.67-.22.85-.07,1.64-.14,2.29-.21,1.32-.13,2.2-.21,2.2-.21l6.89,1.93s-1.03.1-2.57.25c-.76.08-1.68.16-2.67.24-1,.08-2.03.18-3.11.26-1.08.08-2.16.16-3.17.24-1.03.07-1.99.13-2.82.19-1.65.11-2.78.17-2.78.17l-4.42-2.13Z"/>
            <path class="cls-19" d="M173.43,461.08s.49.07,1.24.16c.73.1,1.76.22,2.78.35.52.06,1.02.12,1.51.18.5.05.96.1,1.36.15.79.09,1.32.14,1.32.14l-6.99,1.92s-.62-.07-1.55-.17c-.46-.05-1-.11-1.58-.17-.57-.06-1.16-.14-1.77-.21-1.2-.14-2.4-.29-3.25-.4-.87-.11-1.44-.19-1.44-.19l8.37-1.76Z"/>
            <path class="cls-19" d="M161.78,459.14s.1.02.28.06c.18.03.44.09.75.15.63.12,1.41.29,2.3.44.88.15,1.71.31,2.41.42.68.11,1.14.18,1.14.18l-9.16,1.64s-.53-.09-1.33-.21c-.82-.13-1.79-.31-2.81-.49-1.03-.18-1.96-.37-2.69-.51-.36-.07-.66-.13-.87-.17-.21-.04-.33-.07-.33-.07l10.31-1.43Z"/>
            <path class="cls-19" d="M152.75,456.84s.07.02.2.07c.13.04.29.1.54.17.47.14,1.1.32,1.72.51.68.18,1.36.36,1.87.49.25.07.49.12.65.16l.25.06-10.95,1.29s-.11-.03-.29-.07c-.18-.04-.46-.11-.75-.18-.59-.16-1.39-.37-2.18-.57-.73-.21-1.47-.43-2.01-.59-.28-.08-.48-.15-.63-.2-.15-.05-.23-.08-.23-.08l11.82-1.05Z"/>
            <path class="cls-19" d="M147.33,454.64s.44.22.88.44c.21.11.46.22.65.3.19.08.32.14.32.14l-12.43.82s-.15-.06-.37-.16c-.23-.09-.52-.22-.76-.35-.52-.26-1.03-.52-1.03-.52l12.74-.68Z"/>
            <path class="cls-19" d="M150.97,445s-.26.1-.65.24c-.42.14-.84.34-1.31.54-.49.2-.87.4-1.17.55-.3.15-.5.25-.5.25l-12.74-.68s.23-.12.59-.29c.36-.18.8-.41,1.37-.64.55-.23,1.05-.46,1.53-.63.45-.17.76-.28.76-.28l12.13.94Z"/>
            <path class="cls-19" d="M159.29,442.62s-.36.09-.91.22c-.27.06-.59.14-.93.22-.34.08-.66.17-1.01.26-.68.18-1.37.36-1.82.5-.47.14-.78.23-.78.23l-11.64-1.1s.37-.11.91-.27c.53-.16,1.33-.37,2.12-.58.4-.1.78-.21,1.18-.3.4-.09.77-.18,1.09-.26.64-.15,1.06-.25,1.06-.25l10.73,1.34Z"/>
            <path class="cls-19" d="M170.33,440.58s-.12.02-.33.05c-.21.03-.49.08-.84.13-.67.11-1.61.25-2.49.41-.87.15-1.73.31-2.38.42-.62.12-1.03.2-1.03.2l-10.06-1.48s.48-.09,1.2-.23c.76-.13,1.77-.31,2.78-.49,1.03-.18,2.11-.34,2.9-.47.4-.06.73-.12.98-.15.24-.04.38-.06.38-.06l8.88,1.68Z"/>
            <path class="cls-19" d="M181.64,439.16s-1.16.13-2.32.25c-.59.06-1.14.13-1.56.18-.42.05-.7.08-.7.08l-7.76-1.83s.33-.04.82-.1c.5-.06,1.14-.14,1.83-.21,1.36-.15,2.71-.29,2.71-.29l6.99,1.92Z"/>
            <path class="cls-19" d="M143.9,451.55s.05.11.12.26c.04.16.24.37.39.58.09.11.14.21.25.31.1.1.2.19.28.27.17.16.28.26.28.26l-13.1.44s-.13-.12-.32-.31c-.1-.09-.21-.2-.33-.31-.12-.11-.19-.24-.29-.36-.18-.25-.4-.49-.45-.68-.08-.19-.14-.31-.14-.31l13.32-.16Z"/>
            <path class="cls-19" d="M145.48,447.77s-.06.04-.16.11c-.09.07-.19.18-.33.31-.13.13-.31.27-.44.43-.12.16-.25.33-.37.5-.15.17-.17.34-.26.5-.07.16-.16.31-.16.44-.04.26-.06.43-.06.43l-13.35-.02s.03-.2.07-.5c0-.15.1-.32.18-.51.1-.19.14-.39.31-.58.15-.2.3-.4.44-.58.16-.19.36-.36.51-.5.16-.15.28-.27.39-.36.12-.09.18-.13.18-.13l13.05.47Z"/>
            <path class="cls-19" d="M196.44,437.96s-.6.03-1.47.09c-.87.06-2.06.13-3.2.22-1.14.09-2.29.18-3.15.24-.84.07-1.4.12-1.4.12l-6.06-2.01s.65-.06,1.63-.14c1-.08,2.34-.18,3.68-.28,1.34-.1,2.73-.19,3.75-.26,1.02-.07,1.72-.11,1.72-.11l4.5,2.12Z"/>
            <path class="cls-19" d="M212.32,437.31s-.16,0-.43,0c-.27,0-.67.01-1.13.03-.93.03-2.17.07-3.4.1-1.23.05-2.45.09-3.37.13-.46.02-.84.03-1.1.05-.26.01-.42.02-.42.02l-3.48-2.18s.18,0,.49-.02c.31-.02.75-.04,1.29-.06,1.07-.04,2.5-.1,3.94-.15,1.45-.04,2.89-.09,3.98-.12.54-.02,1-.02,1.32-.03.32,0,.5-.01.5-.01l1.82,2.23Z"/>
            <path class="cls-19" d="M228.68,437.21s-.16,0-.43,0c-.27,0-.67-.01-1.14-.01-.94,0-2.2,0-3.46-.01-1.26,0-2.52,0-3.46.01-.47,0-.87,0-1.14,0-.27,0-.43,0-.43,0l-.76-2.25s.18,0,.5,0c.32,0,.78,0,1.33,0,1.1,0,2.57-.01,4.03-.01,1.47,0,2.93.01,4.03.02.55,0,1.01.01,1.33.01.32,0,.5,0,.5,0l-.9,2.25Z"/>
            <path class="cls-19" d="M242.6,437.58l-2.69-.1c-.67-.03-1.35-.05-1.86-.06-.51-.02-.85-.03-.85-.03l2.33-2.22.99.03c.59.02,1.39.04,2.17.07,1.57.06,3.14.12,3.14.12l-3.24,2.19Z"/>
            <path class="cls-19" d="M289.4,443.15s-.08-.02-.24-.06c-.16-.04-.39-.09-.66-.16-.27-.06-.59-.14-.93-.22-.17-.04-.35-.08-.53-.13-.19-.04-.38-.08-.58-.12-.79-.17-1.53-.34-2.16-.46-.62-.12-1.03-.2-1.03-.2l10.07-1.48s.48.09,1.2.23c.72.14,1.6.34,2.52.53.23.05.45.1.67.15.21.05.42.1.62.15.4.09.77.18,1.09.26.32.08.58.14.77.18.18.04.28.07.28.07l-11.09,1.25Z"/>
            <path class="cls-19" d="M297.04,445.59s-.06-.02-.16-.07c-.11-.04-.23-.11-.43-.18-.39-.15-.91-.34-1.42-.53-.57-.19-1.14-.38-1.57-.52-.21-.07-.41-.13-.54-.17-.14-.04-.22-.06-.22-.06l11.65-1.1s.09.03.25.07c.16.05.39.11.64.2.5.17,1.17.39,1.83.61.61.23,1.21.45,1.66.62.23.08.38.16.5.21.12.05.19.08.19.08l-12.38.84Z"/>
            <path class="cls-19" d="M301.55,448.24s-.11-.1-.27-.26c-.17-.16-.48-.36-.76-.57-.07-.05-.14-.1-.21-.15-.08-.05-.17-.1-.25-.15-.16-.1-.31-.18-.44-.26-.13-.08-.23-.14-.31-.18-.07-.04-.13-.07-.13-.07l12.74-.67s.06.03.15.08c.09.05.21.13.36.22.15.09.33.19.51.31.09.06.19.11.29.17.08.06.16.12.25.18.32.24.68.48.88.67.19.18.32.31.32.31l-13.14.4Z"/>
            <path class="cls-19" d="M302.81,450.61s-.04-.23-.07-.47c-.02-.12-.02-.23-.08-.32-.04-.09-.07-.15-.07-.15l13.32-.15s.03.07.08.17c.06.1.07.24.09.37.04.27.08.54.08.54h-13.35Z"/>
            <path class="cls-19" d="M259.99,438.7s-.56-.05-1.4-.12c-.83-.08-1.99-.16-3.13-.25-1.13-.09-2.31-.17-3.19-.22-.88-.06-1.46-.1-1.46-.1l4.63-2.11s.68.05,1.71.11c1.02.07,2.4.16,3.73.26,1.33.1,2.69.2,3.66.29.98.08,1.63.14,1.63.14l-6.18,2Z"/>
            <path class="cls-19" d="M278.25,440.91s-.18-.03-.5-.08c-.33-.05-.76-.13-1.34-.21-1.15-.17-2.66-.4-4.28-.6-.4-.05-.8-.11-1.19-.16-.41-.05-.81-.1-1.19-.14-.78-.09-1.5-.18-2.12-.25-1.28-.14-2.13-.23-2.13-.23l7.1-1.91s1,.11,2.49.27c.73.08,1.57.19,2.48.3.45.05.92.11,1.39.17.46.06.92.12,1.39.18,1.89.24,3.66.51,5,.7.68.1,1.19.19,1.57.25.37.06.59.09.59.09l-9.23,1.63Z"/>
          </g>
        </g>
      </g>
    </g>
  </g>
</svg>