<?xml version="1.0" encoding="UTF-8"?>
<svg id="Layer_2" data-name="Layer 2" xmlns="http://www.w3.org/2000/svg" viewBox="0 0 94.67 94.67">
  <defs>
    <style>
      .cls-1 {
        fill: aqua;
        stroke-width: 0px;
      }
    </style>
  </defs>
  <g id="PRINT">
    <g>
      <rect class="cls-1" x="26.09" width="3.36" height="3.36"/>
      <rect class="cls-1" x="48.92" width="3.36" height="3.36"/>
      <rect class="cls-1" x="52.18" width="3.36" height="3.36"/>
      <rect class="cls-1" x="58.7" width="3.36" height="3.36"/>
      <rect class="cls-1" x="65.22" width="3.36" height="3.36"/>
      <rect class="cls-1" x="32.61" y="3.26" width="3.36" height="3.36"/>
      <rect class="cls-1" x="39.13" y="3.26" width="3.36" height="3.36"/>
      <rect class="cls-1" x="45.66" y="3.26" width="3.36" height="3.36"/>
      <rect class="cls-1" x="48.92" y="3.26" width="3.36" height="3.36"/>
      <rect class="cls-1" x="52.18" y="3.26" width="3.36" height="3.36"/>
      <rect class="cls-1" x="61.96" y="3.26" width="3.36" height="3.36"/>
      <rect class="cls-1" x="39.13" y="6.52" width="3.36" height="3.36"/>
      <rect class="cls-1" x="42.4" y="6.52" width="3.36" height="3.36"/>
      <rect class="cls-1" x="48.92" y="6.52" width="3.36" height="3.36"/>
      <rect class="cls-1" x="52.18" y="6.52" width="3.36" height="3.36"/>
      <rect class="cls-1" x="61.96" y="6.52" width="3.36" height="3.36"/>
      <rect class="cls-1" x="65.22" y="6.52" width="3.36" height="3.36"/>
      <rect class="cls-1" x="29.35" y="9.78" width="3.36" height="3.36"/>
      <rect class="cls-1" x="32.61" y="9.78" width="3.36" height="3.36"/>
      <rect class="cls-1" x="39.13" y="9.78" width="3.36" height="3.36"/>
      <rect class="cls-1" x="45.66" y="9.78" width="3.36" height="3.36"/>
      <rect class="cls-1" x="48.92" y="9.78" width="3.36" height="3.36"/>
      <rect class="cls-1" x="55.44" y="9.78" width="3.36" height="3.36"/>
      <rect class="cls-1" x="61.96" y="9.78" width="3.36" height="3.36"/>
      <rect class="cls-1" x="26.09" y="13.04" width="3.36" height="3.36"/>
      <rect class="cls-1" x="29.35" y="13.04" width="3.36" height="3.36"/>
      <rect class="cls-1" x="32.61" y="13.04" width="3.36" height="3.36"/>
      <rect class="cls-1" x="61.96" y="13.04" width="3.36" height="3.36"/>
      <rect class="cls-1" x="65.22" y="13.04" width="3.36" height="3.36"/>
      <rect class="cls-1" x="26.09" y="16.31" width="3.36" height="3.36"/>
      <rect class="cls-1" x="35.87" y="16.31" width="3.36" height="3.36"/>
      <rect class="cls-1" x="42.4" y="16.31" width="3.36" height="3.36"/>
      <rect class="cls-1" x="52.18" y="16.31" width="3.36" height="3.36"/>
      <rect class="cls-1" x="58.7" y="16.31" width="3.36" height="3.36"/>
      <rect class="cls-1" x="26.09" y="19.57" width="3.36" height="3.36"/>
      <rect class="cls-1" x="32.61" y="19.57" width="3.36" height="3.36"/>
      <rect class="cls-1" x="39.13" y="19.57" width="3.36" height="3.36"/>
      <rect class="cls-1" x="45.66" y="19.57" width="3.36" height="3.36"/>
      <rect class="cls-1" x="52.18" y="19.57" width="3.36" height="3.36"/>
      <rect class="cls-1" x="58.7" y="19.57" width="3.36" height="3.36"/>
      <rect class="cls-1" x="65.22" y="19.57" width="3.36" height="3.36"/>
      <rect class="cls-1" x="29.35" y="22.83" width="3.36" height="3.36"/>
      <rect class="cls-1" x="32.61" y="22.83" width="3.36" height="3.36"/>
      <rect class="cls-1" x="35.87" y="22.83" width="3.36" height="3.36"/>
      <rect class="cls-1" x="39.13" y="22.83" width="3.36" height="3.36"/>
      <rect class="cls-1" x="48.92" y="22.83" width="3.36" height="3.36"/>
      <rect class="cls-1" x="52.18" y="22.83" width="3.36" height="3.36"/>
      <rect class="cls-1" x="61.96" y="22.83" width="3.36" height="3.36"/>
      <rect class="cls-1" x="3.26" y="26.09" width="3.36" height="3.36"/>
      <rect class="cls-1" x="6.52" y="26.09" width="3.36" height="3.36"/>
      <rect class="cls-1" x="9.78" y="26.09" width="3.36" height="3.36"/>
      <rect class="cls-1" x="13.04" y="26.09" width="3.36" height="3.36"/>
      <rect class="cls-1" x="16.31" y="26.09" width="3.36" height="3.36"/>
      <rect class="cls-1" x="19.57" y="26.09" width="3.36" height="3.36"/>
      <rect class="cls-1" x="22.83" y="26.09" width="3.36" height="3.36"/>
      <rect class="cls-1" x="35.87" y="26.09" width="3.36" height="3.36"/>
      <rect class="cls-1" x="39.13" y="26.09" width="3.36" height="3.36"/>
      <rect class="cls-1" x="48.92" y="26.09" width="3.36" height="3.36"/>
      <rect class="cls-1" x="58.7" y="26.09" width="3.36" height="3.36"/>
      <rect class="cls-1" x="65.22" y="26.09" width="3.36" height="3.36"/>
      <rect class="cls-1" x="75.01" y="26.09" width="3.36" height="3.36"/>
      <rect class="cls-1" x="78.27" y="26.09" width="3.36" height="3.36"/>
      <rect class="cls-1" x="91.31" y="26.09" width="3.36" height="3.36"/>
      <rect class="cls-1" y="29.35" width="3.36" height="3.36"/>
      <rect class="cls-1" x="6.52" y="29.35" width="3.36" height="3.36"/>
      <rect class="cls-1" x="9.78" y="29.35" width="3.36" height="3.36"/>
      <rect class="cls-1" x="16.31" y="29.35" width="3.36" height="3.36"/>
      <rect class="cls-1" x="22.83" y="29.35" width="3.36" height="3.36"/>
      <rect class="cls-1" x="26.09" y="29.35" width="3.36" height="3.36"/>
      <rect class="cls-1" x="45.66" y="29.35" width="3.36" height="3.36"/>
      <rect class="cls-1" x="48.92" y="29.35" width="3.36" height="3.36"/>
      <rect class="cls-1" x="52.18" y="29.35" width="3.36" height="3.36"/>
      <rect class="cls-1" x="68.48" y="29.35" width="3.36" height="3.36"/>
      <rect class="cls-1" x="78.27" y="29.35" width="3.36" height="3.36"/>
      <rect class="cls-1" x="81.53" y="29.35" width="3.36" height="3.36"/>
      <rect class="cls-1" x="84.79" y="29.35" width="3.36" height="3.36"/>
      <rect class="cls-1" x="91.31" y="29.35" width="3.36" height="3.36"/>
      <rect class="cls-1" x="3.26" y="32.61" width="3.36" height="3.36"/>
      <rect class="cls-1" x="9.78" y="32.61" width="3.36" height="3.36"/>
      <rect class="cls-1" x="13.04" y="32.61" width="3.36" height="3.36"/>
      <rect class="cls-1" x="19.57" y="32.61" width="3.36" height="3.36"/>
      <rect class="cls-1" x="29.35" y="32.61" width="3.36" height="3.36"/>
      <rect class="cls-1" x="42.4" y="32.61" width="3.36" height="3.36"/>
      <rect class="cls-1" x="45.66" y="32.61" width="3.36" height="3.36"/>
      <rect class="cls-1" x="48.92" y="32.61" width="3.36" height="3.36"/>
      <rect class="cls-1" x="52.18" y="32.61" width="3.36" height="3.36"/>
      <rect class="cls-1" x="55.44" y="32.61" width="3.36" height="3.36"/>
      <rect class="cls-1" x="65.22" y="32.61" width="3.36" height="3.36"/>
      <rect class="cls-1" x="68.48" y="32.61" width="3.36" height="3.36"/>
      <rect class="cls-1" x="71.75" y="32.61" width="3.36" height="3.36"/>
      <rect class="cls-1" x="75.01" y="32.61" width="3.36" height="3.36"/>
      <rect class="cls-1" y="35.87" width="3.36" height="3.36"/>
      <rect class="cls-1" x="3.26" y="35.87" width="3.36" height="3.36"/>
      <rect class="cls-1" x="13.04" y="35.87" width="3.36" height="3.36"/>
      <rect class="cls-1" x="26.09" y="35.87" width="3.36" height="3.36"/>
      <rect class="cls-1" x="32.61" y="35.87" width="3.36" height="3.36"/>
      <rect class="cls-1" x="39.13" y="35.87" width="3.36" height="3.36"/>
      <rect class="cls-1" x="48.92" y="35.87" width="3.36" height="3.36"/>
      <rect class="cls-1" x="52.18" y="35.87" width="3.36" height="3.36"/>
      <rect class="cls-1" x="58.7" y="35.87" width="3.36" height="3.36"/>
      <rect class="cls-1" x="68.48" y="35.87" width="3.36" height="3.36"/>
      <rect class="cls-1" x="71.75" y="35.87" width="3.36" height="3.36"/>
      <rect class="cls-1" x="75.01" y="35.87" width="3.36" height="3.36"/>
      <rect class="cls-1" x="81.53" y="35.87" width="3.36" height="3.36"/>
      <rect class="cls-1" x="88.05" y="35.87" width="3.36" height="3.36"/>
      <rect class="cls-1" y="39.13" width="3.36" height="3.36"/>
      <rect class="cls-1" x="3.26" y="39.13" width="3.36" height="3.36"/>
      <rect class="cls-1" x="6.52" y="39.13" width="3.36" height="3.36"/>
      <rect class="cls-1" x="9.78" y="39.13" width="3.36" height="3.36"/>
      <rect class="cls-1" x="19.57" y="39.13" width="3.36" height="3.36"/>
      <rect class="cls-1" x="29.35" y="39.13" width="3.36" height="3.36"/>
      <rect class="cls-1" x="35.87" y="39.13" width="3.36" height="3.36"/>
      <rect class="cls-1" x="39.13" y="39.13" width="3.36" height="3.36"/>
      <rect class="cls-1" x="42.4" y="39.13" width="3.36" height="3.36"/>
      <rect class="cls-1" x="45.66" y="39.13" width="3.36" height="3.36"/>
      <rect class="cls-1" x="48.92" y="39.13" width="3.36" height="3.36"/>
      <rect class="cls-1" x="52.18" y="39.13" width="3.36" height="3.36"/>
      <rect class="cls-1" x="55.44" y="39.13" width="3.36" height="3.36"/>
      <rect class="cls-1" x="68.48" y="39.13" width="3.36" height="3.36"/>
      <rect class="cls-1" x="75.01" y="39.13" width="3.36" height="3.36"/>
      <rect class="cls-1" x="84.79" y="39.13" width="3.36" height="3.36"/>
      <rect class="cls-1" x="88.05" y="39.13" width="3.36" height="3.36"/>
      <rect class="cls-1" x="91.31" y="39.13" width="3.36" height="3.36"/>
      <rect class="cls-1" y="42.4" width="3.36" height="3.36"/>
      <rect class="cls-1" x="3.26" y="42.4" width="3.36" height="3.36"/>
      <rect class="cls-1" x="13.04" y="42.4" width="3.36" height="3.36"/>
      <rect class="cls-1" x="22.83" y="42.4" width="3.36" height="3.36"/>
      <rect class="cls-1" x="26.09" y="42.4" width="3.36" height="3.36"/>
      <rect class="cls-1" x="29.35" y="42.4" width="3.36" height="3.36"/>
      <rect class="cls-1" x="32.61" y="42.4" width="3.36" height="3.36"/>
      <rect class="cls-1" x="42.4" y="42.4" width="3.36" height="3.36"/>
      <rect class="cls-1" x="45.66" y="42.4" width="3.36" height="3.36"/>
      <rect class="cls-1" x="48.92" y="42.4" width="3.36" height="3.36"/>
      <rect class="cls-1" x="52.18" y="42.4" width="3.36" height="3.36"/>
      <rect class="cls-1" x="55.44" y="42.4" width="3.36" height="3.36"/>
      <rect class="cls-1" x="58.7" y="42.4" width="3.36" height="3.36"/>
      <rect class="cls-1" x="61.96" y="42.4" width="3.36" height="3.36"/>
      <rect class="cls-1" x="65.22" y="42.4" width="3.36" height="3.36"/>
      <rect class="cls-1" x="68.48" y="42.4" width="3.36" height="3.36"/>
      <rect class="cls-1" x="71.75" y="42.4" width="3.36" height="3.36"/>
      <rect class="cls-1" x="78.27" y="42.4" width="3.36" height="3.36"/>
      <rect class="cls-1" x="81.53" y="42.4" width="3.36" height="3.36"/>
      <rect class="cls-1" x="88.05" y="42.4" width="3.36" height="3.36"/>
      <rect class="cls-1" x="91.31" y="42.4" width="3.36" height="3.36"/>
      <rect class="cls-1" y="45.66" width="3.36" height="3.36"/>
      <rect class="cls-1" x="6.52" y="45.66" width="3.36" height="3.36"/>
      <rect class="cls-1" x="19.57" y="45.66" width="3.36" height="3.36"/>
      <rect class="cls-1" x="35.87" y="45.66" width="3.36" height="3.36"/>
      <rect class="cls-1" x="39.13" y="45.66" width="3.36" height="3.36"/>
      <rect class="cls-1" x="42.4" y="45.66" width="3.36" height="3.36"/>
      <rect class="cls-1" x="45.66" y="45.66" width="3.36" height="3.36"/>
      <rect class="cls-1" x="48.92" y="45.66" width="3.36" height="3.36"/>
      <rect class="cls-1" x="52.18" y="45.66" width="3.36" height="3.36"/>
      <rect class="cls-1" x="55.44" y="45.66" width="3.36" height="3.36"/>
      <rect class="cls-1" x="71.75" y="45.66" width="3.36" height="3.36"/>
      <rect class="cls-1" x="75.01" y="45.66" width="3.36" height="3.36"/>
      <rect class="cls-1" y="48.92" width="3.36" height="3.36"/>
      <rect class="cls-1" x="3.26" y="48.92" width="3.36" height="3.36"/>
      <rect class="cls-1" x="6.52" y="48.92" width="3.36" height="3.36"/>
      <rect class="cls-1" x="13.04" y="48.92" width="3.36" height="3.36"/>
      <rect class="cls-1" x="29.35" y="48.92" width="3.36" height="3.36"/>
      <rect class="cls-1" x="42.4" y="48.92" width="3.36" height="3.36"/>
      <rect class="cls-1" x="52.18" y="48.92" width="3.36" height="3.36"/>
      <rect class="cls-1" x="55.44" y="48.92" width="3.36" height="3.36"/>
      <rect class="cls-1" x="58.7" y="48.92" width="3.36" height="3.36"/>
      <rect class="cls-1" x="61.96" y="48.92" width="3.36" height="3.36"/>
      <rect class="cls-1" x="68.48" y="48.92" width="3.36" height="3.36"/>
      <rect class="cls-1" x="71.75" y="48.92" width="3.36" height="3.36"/>
      <rect class="cls-1" x="78.27" y="48.92" width="3.36" height="3.36"/>
      <rect class="cls-1" x="81.53" y="48.92" width="3.36" height="3.36"/>
      <rect class="cls-1" x="88.05" y="48.92" width="3.36" height="3.36"/>
      <rect class="cls-1" x="91.31" y="48.92" width="3.36" height="3.36"/>
      <rect class="cls-1" x="3.26" y="52.18" width="3.36" height="3.36"/>
      <rect class="cls-1" x="9.78" y="52.18" width="3.36" height="3.36"/>
      <rect class="cls-1" x="16.31" y="52.18" width="3.36" height="3.36"/>
      <rect class="cls-1" x="19.57" y="52.18" width="3.36" height="3.36"/>
      <rect class="cls-1" x="22.83" y="52.18" width="3.36" height="3.36"/>
      <rect class="cls-1" x="26.09" y="52.18" width="3.36" height="3.36"/>
      <rect class="cls-1" x="35.87" y="52.18" width="3.36" height="3.36"/>
      <rect class="cls-1" x="42.4" y="52.18" width="3.36" height="3.36"/>
      <rect class="cls-1" x="45.66" y="52.18" width="3.36" height="3.36"/>
      <rect class="cls-1" x="52.18" y="52.18" width="3.36" height="3.36"/>
      <rect class="cls-1" x="71.75" y="52.18" width="3.36" height="3.36"/>
      <rect class="cls-1" x="81.53" y="52.18" width="3.36" height="3.36"/>
      <rect class="cls-1" x="84.79" y="52.18" width="3.36" height="3.36"/>
      <rect class="cls-1" x="91.31" y="52.18" width="3.36" height="3.36"/>
      <rect class="cls-1" y="55.44" width="3.36" height="3.36"/>
      <rect class="cls-1" x="3.26" y="55.44" width="3.36" height="3.36"/>
      <rect class="cls-1" x="6.52" y="55.44" width="3.36" height="3.36"/>
      <rect class="cls-1" x="9.78" y="55.44" width="3.36" height="3.36"/>
      <rect class="cls-1" x="16.31" y="55.44" width="3.36" height="3.36"/>
      <rect class="cls-1" x="22.83" y="55.44" width="3.36" height="3.36"/>
      <rect class="cls-1" x="26.09" y="55.44" width="3.36" height="3.36"/>
      <rect class="cls-1" x="29.35" y="55.44" width="3.36" height="3.36"/>
      <rect class="cls-1" x="32.61" y="55.44" width="3.36" height="3.36"/>
      <rect class="cls-1" x="35.87" y="55.44" width="3.36" height="3.36"/>
      <rect class="cls-1" x="42.4" y="55.44" width="3.36" height="3.36"/>
      <rect class="cls-1" x="45.66" y="55.44" width="3.36" height="3.36"/>
      <rect class="cls-1" x="48.92" y="55.44" width="3.36" height="3.36"/>
      <rect class="cls-1" x="58.7" y="55.44" width="3.36" height="3.36"/>
      <rect class="cls-1" x="65.22" y="55.44" width="3.36" height="3.36"/>
      <rect class="cls-1" x="68.48" y="55.44" width="3.36" height="3.36"/>
      <rect class="cls-1" x="78.27" y="55.44" width="3.36" height="3.36"/>
      <rect class="cls-1" x="84.79" y="55.44" width="3.36" height="3.36"/>
      <rect class="cls-1" x="88.05" y="55.44" width="3.36" height="3.36"/>
      <rect class="cls-1" x="91.31" y="55.44" width="3.36" height="3.36"/>
      <rect class="cls-1" y="58.7" width="3.36" height="3.36"/>
      <rect class="cls-1" x="9.78" y="58.7" width="3.36" height="3.36"/>
      <rect class="cls-1" x="19.57" y="58.7" width="3.36" height="3.36"/>
      <rect class="cls-1" x="26.09" y="58.7" width="3.36" height="3.36"/>
      <rect class="cls-1" x="39.13" y="58.7" width="3.36" height="3.36"/>
      <rect class="cls-1" x="42.4" y="58.7" width="3.36" height="3.36"/>
      <rect class="cls-1" x="48.92" y="58.7" width="3.36" height="3.36"/>
      <rect class="cls-1" x="52.18" y="58.7" width="3.36" height="3.36"/>
      <rect class="cls-1" x="61.96" y="58.7" width="3.36" height="3.36"/>
      <rect class="cls-1" x="71.75" y="58.7" width="3.36" height="3.36"/>
      <rect class="cls-1" x="75.01" y="58.7" width="3.36" height="3.36"/>
      <rect class="cls-1" x="78.27" y="58.7" width="3.36" height="3.36"/>
      <rect class="cls-1" x="81.53" y="58.7" width="3.36" height="3.36"/>
      <rect class="cls-1" y="61.96" width="3.36" height="3.36"/>
      <rect class="cls-1" x="6.52" y="61.96" width="3.36" height="3.36"/>
      <rect class="cls-1" x="9.78" y="61.96" width="3.36" height="3.36"/>
      <rect class="cls-1" x="16.31" y="61.96" width="3.36" height="3.36"/>
      <rect class="cls-1" x="26.09" y="61.96" width="3.36" height="3.36"/>
      <rect class="cls-1" x="35.87" y="61.96" width="3.36" height="3.36"/>
      <rect class="cls-1" x="42.4" y="61.96" width="3.36" height="3.36"/>
      <rect class="cls-1" x="48.92" y="61.96" width="3.36" height="3.36"/>
      <rect class="cls-1" x="61.96" y="61.96" width="3.36" height="3.36"/>
      <rect class="cls-1" x="65.22" y="61.96" width="3.36" height="3.36"/>
      <rect class="cls-1" x="71.75" y="61.96" width="3.36" height="3.36"/>
      <rect class="cls-1" x="75.01" y="61.96" width="3.36" height="3.36"/>
      <rect class="cls-1" x="78.27" y="61.96" width="3.36" height="3.36"/>
      <rect class="cls-1" x="81.53" y="61.96" width="3.36" height="3.36"/>
      <rect class="cls-1" x="88.05" y="61.96" width="3.36" height="3.36"/>
      <rect class="cls-1" x="91.31" y="61.96" width="3.36" height="3.36"/>
      <rect class="cls-1" y="65.22" width="3.36" height="3.36"/>
      <rect class="cls-1" x="13.04" y="65.22" width="3.36" height="3.36"/>
      <rect class="cls-1" x="19.57" y="65.22" width="3.36" height="3.36"/>
      <rect class="cls-1" x="26.09" y="65.22" width="3.36" height="3.36"/>
      <rect class="cls-1" x="29.35" y="65.22" width="3.36" height="3.36"/>
      <rect class="cls-1" x="32.61" y="65.22" width="3.36" height="3.36"/>
      <rect class="cls-1" x="48.92" y="65.22" width="3.36" height="3.36"/>
      <rect class="cls-1" x="52.18" y="65.22" width="3.36" height="3.36"/>
      <rect class="cls-1" x="55.44" y="65.22" width="3.36" height="3.36"/>
      <rect class="cls-1" x="61.96" y="65.22" width="3.36" height="3.36"/>
      <rect class="cls-1" x="65.22" y="65.22" width="3.36" height="3.36"/>
      <rect class="cls-1" x="68.48" y="65.22" width="3.36" height="3.36"/>
      <rect class="cls-1" x="71.75" y="65.22" width="3.36" height="3.36"/>
      <rect class="cls-1" x="75.01" y="65.22" width="3.36" height="3.36"/>
      <rect class="cls-1" x="78.27" y="65.22" width="3.36" height="3.36"/>
      <rect class="cls-1" x="81.53" y="65.22" width="3.36" height="3.36"/>
      <rect class="cls-1" x="84.79" y="65.22" width="3.36" height="3.36"/>
      <rect class="cls-1" x="26.09" y="68.48" width="3.36" height="3.36"/>
      <rect class="cls-1" x="29.35" y="68.48" width="3.36" height="3.36"/>
      <rect class="cls-1" x="42.4" y="68.48" width="3.36" height="3.36"/>
      <rect class="cls-1" x="45.66" y="68.48" width="3.36" height="3.36"/>
      <rect class="cls-1" x="52.18" y="68.48" width="3.36" height="3.36"/>
      <rect class="cls-1" x="58.7" y="68.48" width="3.36" height="3.36"/>
      <rect class="cls-1" x="65.22" y="68.48" width="3.36" height="3.36"/>
      <rect class="cls-1" x="78.27" y="68.48" width="3.36" height="3.36"/>
      <rect class="cls-1" x="81.53" y="68.48" width="3.36" height="3.36"/>
      <rect class="cls-1" x="88.05" y="68.48" width="3.36" height="3.36"/>
      <rect class="cls-1" x="91.31" y="68.48" width="3.36" height="3.36"/>
      <rect class="cls-1" x="26.09" y="71.75" width="3.36" height="3.36"/>
      <rect class="cls-1" x="32.61" y="71.75" width="3.36" height="3.36"/>
      <rect class="cls-1" x="35.87" y="71.75" width="3.36" height="3.36"/>
      <rect class="cls-1" x="39.13" y="71.75" width="3.36" height="3.36"/>
      <rect class="cls-1" x="42.4" y="71.75" width="3.36" height="3.36"/>
      <rect class="cls-1" x="45.66" y="71.75" width="3.36" height="3.36"/>
      <rect class="cls-1" x="48.92" y="71.75" width="3.36" height="3.36"/>
      <rect class="cls-1" x="58.7" y="71.75" width="3.36" height="3.36"/>
      <rect class="cls-1" x="61.96" y="71.75" width="3.36" height="3.36"/>
      <rect class="cls-1" x="65.22" y="71.75" width="3.36" height="3.36"/>
      <rect class="cls-1" x="71.75" y="71.75" width="3.36" height="3.36"/>
      <rect class="cls-1" x="78.27" y="71.75" width="3.36" height="3.36"/>
      <rect class="cls-1" x="88.05" y="71.75" width="3.36" height="3.36"/>
      <rect class="cls-1" x="26.09" y="75.01" width="3.36" height="3.36"/>
      <rect class="cls-1" x="29.35" y="75.01" width="3.36" height="3.36"/>
      <rect class="cls-1" x="32.61" y="75.01" width="3.36" height="3.36"/>
      <rect class="cls-1" x="42.4" y="75.01" width="3.36" height="3.36"/>
      <rect class="cls-1" x="45.66" y="75.01" width="3.36" height="3.36"/>
      <rect class="cls-1" x="48.92" y="75.01" width="3.36" height="3.36"/>
      <rect class="cls-1" x="52.18" y="75.01" width="3.36" height="3.36"/>
      <rect class="cls-1" x="61.96" y="75.01" width="3.36" height="3.36"/>
      <rect class="cls-1" x="65.22" y="75.01" width="3.36" height="3.36"/>
      <rect class="cls-1" x="78.27" y="75.01" width="3.36" height="3.36"/>
      <rect class="cls-1" x="81.53" y="75.01" width="3.36" height="3.36"/>
      <rect class="cls-1" x="91.31" y="75.01" width="3.36" height="3.36"/>
      <rect class="cls-1" x="26.09" y="78.27" width="3.36" height="3.36"/>
      <rect class="cls-1" x="42.4" y="78.27" width="3.36" height="3.36"/>
      <rect class="cls-1" x="45.66" y="78.27" width="3.36" height="3.36"/>
      <rect class="cls-1" x="48.92" y="78.27" width="3.36" height="3.36"/>
      <rect class="cls-1" x="58.7" y="78.27" width="3.36" height="3.36"/>
      <rect class="cls-1" x="65.22" y="78.27" width="3.36" height="3.36"/>
      <rect class="cls-1" x="68.48" y="78.27" width="3.36" height="3.36"/>
      <rect class="cls-1" x="71.75" y="78.27" width="3.36" height="3.36"/>
      <rect class="cls-1" x="75.01" y="78.27" width="3.36" height="3.36"/>
      <rect class="cls-1" x="78.27" y="78.27" width="3.36" height="3.36"/>
      <rect class="cls-1" x="81.53" y="78.27" width="3.36" height="3.36"/>
      <rect class="cls-1" x="84.79" y="78.27" width="3.36" height="3.36"/>
      <rect class="cls-1" x="88.05" y="78.27" width="3.36" height="3.36"/>
      <rect class="cls-1" x="26.09" y="81.53" width="3.36" height="3.36"/>
      <rect class="cls-1" x="32.61" y="81.53" width="3.36" height="3.36"/>
      <rect class="cls-1" x="35.87" y="81.53" width="3.36" height="3.36"/>
      <rect class="cls-1" x="39.13" y="81.53" width="3.36" height="3.36"/>
      <rect class="cls-1" x="42.4" y="81.53" width="3.36" height="3.36"/>
      <rect class="cls-1" x="48.92" y="81.53" width="3.36" height="3.36"/>
      <rect class="cls-1" x="52.18" y="81.53" width="3.36" height="3.36"/>
      <rect class="cls-1" x="55.44" y="81.53" width="3.36" height="3.36"/>
      <rect class="cls-1" x="61.96" y="81.53" width="3.36" height="3.36"/>
      <rect class="cls-1" x="65.22" y="81.53" width="3.36" height="3.36"/>
      <rect class="cls-1" x="68.48" y="81.53" width="3.36" height="3.36"/>
      <rect class="cls-1" x="75.01" y="81.53" width="3.36" height="3.36"/>
      <rect class="cls-1" x="81.53" y="81.53" width="3.36" height="3.36"/>
      <rect class="cls-1" x="26.09" y="84.79" width="3.36" height="3.36"/>
      <rect class="cls-1" x="32.61" y="84.79" width="3.36" height="3.36"/>
      <rect class="cls-1" x="42.4" y="84.79" width="3.36" height="3.36"/>
      <rect class="cls-1" x="45.66" y="84.79" width="3.36" height="3.36"/>
      <rect class="cls-1" x="55.44" y="84.79" width="3.36" height="3.36"/>
      <rect class="cls-1" x="61.96" y="84.79" width="3.36" height="3.36"/>
      <rect class="cls-1" x="65.22" y="84.79" width="3.36" height="3.36"/>
      <rect class="cls-1" x="68.48" y="84.79" width="3.36" height="3.36"/>
      <rect class="cls-1" x="71.75" y="84.79" width="3.36" height="3.36"/>
      <rect class="cls-1" x="75.01" y="84.79" width="3.36" height="3.36"/>
      <rect class="cls-1" x="78.27" y="84.79" width="3.36" height="3.36"/>
      <rect class="cls-1" x="84.79" y="84.79" width="3.36" height="3.36"/>
      <rect class="cls-1" x="88.05" y="84.79" width="3.36" height="3.36"/>
      <rect class="cls-1" x="26.09" y="88.05" width="3.36" height="3.36"/>
      <rect class="cls-1" x="32.61" y="88.05" width="3.36" height="3.36"/>
      <rect class="cls-1" x="35.87" y="88.05" width="3.36" height="3.36"/>
      <rect class="cls-1" x="45.66" y="88.05" width="3.36" height="3.36"/>
      <rect class="cls-1" x="52.18" y="88.05" width="3.36" height="3.36"/>
      <rect class="cls-1" x="58.7" y="88.05" width="3.36" height="3.36"/>
      <rect class="cls-1" x="61.96" y="88.05" width="3.36" height="3.36"/>
      <rect class="cls-1" x="68.48" y="88.05" width="3.36" height="3.36"/>
      <rect class="cls-1" x="78.27" y="88.05" width="3.36" height="3.36"/>
      <rect class="cls-1" x="81.53" y="88.05" width="3.36" height="3.36"/>
      <rect class="cls-1" x="88.05" y="88.05" width="3.36" height="3.36"/>
      <rect class="cls-1" x="29.35" y="91.31" width="3.36" height="3.36"/>
      <rect class="cls-1" x="39.13" y="91.31" width="3.36" height="3.36"/>
      <rect class="cls-1" x="52.18" y="91.31" width="3.36" height="3.36"/>
      <rect class="cls-1" x="55.44" y="91.31" width="3.36" height="3.36"/>
      <rect class="cls-1" x="78.27" y="91.31" width="3.36" height="3.36"/>
      <rect class="cls-1" x="84.79" y="91.31" width="3.36" height="3.36"/>
      <path class="cls-1" d="M0,0v22.83h22.83V0H0ZM19.57,19.57H3.26V3.26h16.31v16.31Z"/>
      <path class="cls-1" d="M71.75,0v22.83h22.83V0h-22.83ZM91.31,19.57h-16.31V3.26h16.31v16.31Z"/>
      <path class="cls-1" d="M0,71.75v22.83h22.83v-22.83H0ZM19.57,91.31H3.26v-16.31h16.31v16.31Z"/>
      <rect class="cls-1" x="6.52" y="6.52" width="9.78" height="9.78"/>
      <rect class="cls-1" x="78.27" y="6.52" width="9.78" height="9.78"/>
      <rect class="cls-1" x="6.52" y="78.27" width="9.78" height="9.78"/>
    </g>
  </g>
</svg>