<?xml version="1.0" encoding="UTF-8"?>
<svg id="Layer_2" data-name="Layer 2" xmlns="http://www.w3.org/2000/svg" viewBox="0 0 112.32 126.89">
  <defs>
    <style>
      .cls-1 {
        fill: none;
        stroke: #22fff9;
        stroke-miterlimit: 10;
        stroke-width: 2px;
      }

      .cls-2 {
        opacity: .15;
      }

      .cls-2, .cls-3, .cls-4, .cls-5, .cls-6, .cls-7, .cls-8 {
        stroke-width: 0px;
      }

      .cls-2, .cls-3, .cls-5, .cls-6, .cls-7, .cls-8 {
        fill: #22fff9;
      }

      .cls-3 {
        opacity: .22;
      }

      .cls-4 {
        fill: aqua;
      }

      .cls-6 {
        opacity: .34;
      }

      .cls-7 {
        opacity: .64;
      }

      .cls-8 {
        opacity: .4;
      }
    </style>
  </defs>
  <g id="PRINT">
    <g>
      <g>
        <polygon class="cls-4" points="59.87 103 59.87 105.53 54.5 100.16 49.13 105.53 49.13 103 53.24 98.89 53.23 98.88 54.5 97.62 55.77 98.88 55.76 98.89 59.87 103"/>
        <g>
          <polygon class="cls-4" points="59.87 89.29 59.87 91.82 54.5 86.45 49.13 91.82 49.13 89.29 53.24 85.18 53.23 85.18 54.5 83.92 55.77 85.18 55.76 85.18 59.87 89.29"/>
          <polygon class="cls-4" points="59.87 98.34 59.87 100.87 54.5 95.5 49.13 100.87 49.13 98.34 54.5 92.97 59.87 98.34"/>
        </g>
      </g>
      <g>
        <g>
          <rect class="cls-5" x="74.92" y="95.01" width="6.5" height="9.12" transform="translate(156.33 199.14) rotate(180)"/>
          <rect class="cls-7" x="74.92" y="80.89" width="6.5" height="9.12" transform="translate(156.33 170.9) rotate(180)"/>
          <rect class="cls-8" x="74.92" y="66.77" width="6.5" height="9.12" transform="translate(156.33 142.65) rotate(180)"/>
          <rect class="cls-6" x="74.92" y="52.65" width="6.5" height="9.12" transform="translate(156.33 114.41) rotate(180)"/>
          <rect class="cls-3" x="74.92" y="38.53" width="6.5" height="9.12" transform="translate(156.33 86.17) rotate(180)"/>
          <rect class="cls-2" x="74.92" y="24.4" width="6.5" height="9.12" transform="translate(156.33 57.93) rotate(180)"/>
        </g>
        <g>
          <polyline class="cls-1" points="108 15.07 108 114.64 1 114.64 1 125.89 97 125.89 97 2.82"/>
          <circle class="cls-5" cx="96.95" cy="2.82" r="2.82"/>
          <circle class="cls-5" cx="108" cy="15.03" r="2.82"/>
        </g>
      </g>
      <polygon class="cls-4" points="55.1 125.89 50.78 121.58 1.71 121.58 1.71 125.89 55.1 125.89"/>
      <polygon class="cls-4" points="108 107.58 112.32 103.26 112.32 54.2 108 54.2 108 107.58"/>
    </g>
  </g>
</svg>