<?xml version="1.0" encoding="UTF-8"?>
<svg id="Layer_2" data-name="Layer 2" xmlns="http://www.w3.org/2000/svg" xmlns:xlink="http://www.w3.org/1999/xlink" viewBox="0 0 469.62 186.42">
  <defs>
    <style>
      .cls-1 {
        fill: #1d1d1d;
      }

      .cls-1, .cls-2, .cls-3, .cls-4 {
        stroke-width: 0px;
      }

      .cls-2 {
        fill: #d9d9d9;
      }

      .cls-3 {
        fill: #a8122d;
      }

      .cls-5 {
        fill: url(#radial-gradient);
        stroke: aqua;
        stroke-miterlimit: 10;
      }

      .cls-4 {
        fill: #777;
      }
    </style>
    <radialGradient id="radial-gradient" cx="234.81" cy="82.33" fx="234.81" fy="82.33" r="183.13" gradientTransform="translate(0 24.02) scale(1 .84)" gradientUnits="userSpaceOnUse">
      <stop offset="0" stop-color="#052b63"/>
      <stop offset="1" stop-color="#03173a"/>
    </radialGradient>
  </defs>
  <g id="PRINT">
    <g>
      <path class="cls-5" d="M467.29,49.66c1.18-.99,1.84-2.33,1.84-3.73V15.07c0-1.36-.64-2.67-1.79-3.63l-10.56-8.67c-1.76-1.44-4.11-2.25-6.57-2.25l-382.8-.02h-26.52c-1.7,0-3.32.59-4.48,1.64l-2.43,2.19c-1.05.95-1.64,2.2-1.64,3.5v5.6h-15.76c-1.62,0-3.18.54-4.32,1.5l-5.92,4.97c-1.15.96-1.79,2.27-1.79,3.63v98.99c0,.93-.29,1.85-.85,2.65l-2.35,3.38c-.56.81-.86,1.73-.85,2.66l.02,9.78c0,1.39.66,2.73,1.84,3.72l28.2,23.7c1.15.96,1.79,2.27,1.79,3.63h0c0,1.36.64,2.67,1.79,3.63l10.38,8.73c1.15.96,2.7,1.5,4.32,1.5h237.68c1.68,0,3.28-.58,4.43-1.6l35.39-31.35c1.15-1.02,2.76-1.6,4.43-1.6h93.49c1.66,0,3.26.56,4.43,1.54l2.55,2.14c1.18.99,2.77,1.54,4.43,1.54h15.72c1.66,0,3.26-.56,4.43-1.54l3.31-2.78c1.18-.99,1.84-2.33,1.84-3.73v-13.21c0-1.4-.66-2.74-1.84-3.73l-2.33-1.96c-1.18-.99-1.84-2.33-1.84-3.73v-63.87c0-1.41.67-2.76,1.87-3.75l10.44-8.64Z"/>
      <path class="cls-2" d="M32.56,141.47c-1.19.76-1.91,2.09-1.91,3.53v2.79c0,2.3-1.83,4.17-4.09,4.17h-2.86c-1.09.02-2.14-.42-2.91-1.21l-10.53-10.73c-.77-.78-1.2-1.84-1.2-2.95V27.1c0-1.1.43-2.16,1.2-2.95l4.46-4.54c.77-.78,1.81-1.22,2.89-1.22h22.42c1.08,0,2.12.44,2.89,1.22l5.42,5.52c.77.78,1.2,1.84,1.2,2.95v100.21c0,1.43-.72,2.76-1.91,3.53l-15.07,9.66Z"/>
      <g>
        <path class="cls-4" d="M98.28,152.23v-.09h-4.08v-.88h5.07v.92l-3.52,6.99h-1.04l3.57-6.94Z"/>
        <path class="cls-4" d="M72.93,132.43c0-.7.24-1.28.72-1.73.47-.45,1.08-.68,1.81-.68s1.3.21,1.79.64c.48.42.72.95.72,1.58,0,.41-.12.82-.35,1.21-.23.4-.67.95-1.32,1.64l-1.9,2.04v.09h3.71v.89h-5.12v-.68l2.74-2.99c.51-.55.85-.97,1.01-1.26.17-.29.25-.59.25-.91,0-.39-.15-.73-.44-1-.3-.27-.67-.4-1.1-.4-.46,0-.84.14-1.12.43-.29.29-.43.66-.43,1.12h0s-.95,0-.95,0h0Z"/>
        <g>
          <g>
            <polygon class="cls-2" points="113.64 172.53 106.59 172.53 106.59 171.45 112.56 171.45 112.56 165.47 113.64 165.47 113.64 172.53"/>
            <polygon class="cls-2" points="113.63 126.08 112.56 126.08 112.56 120.1 106.58 120.1 106.58 119.03 113.63 119.03 113.63 126.08"/>
            <polygon class="cls-2" points="61.21 126.08 60.14 126.08 60.14 119.03 67.19 119.03 67.19 120.1 61.21 120.1 61.21 126.08"/>
            <polygon class="cls-2" points="67.18 172.53 60.13 172.53 60.13 165.47 61.21 165.47 61.21 171.45 67.18 171.45 67.18 172.53"/>
          </g>
          <path class="cls-2" d="M86.88,171.89c-14.95,0-27.12-12.17-27.12-27.12h1.07c0,14.36,11.68,26.04,26.04,26.04s26.04-11.68,26.04-26.04h1.07c0,14.95-12.17,27.12-27.12,27.12Z"/>
          <path class="cls-2" d="M112.23,143.18h-1.07c0-13.39-10.89-24.28-24.28-24.28s-24.28,10.89-24.28,24.28h-1.07c0-13.98,11.37-25.36,25.36-25.36s25.36,11.37,25.36,25.36Z"/>
          <rect class="cls-2" x="73.27" y="143.4" width="29.4" height="1.07" transform="translate(-76.02 104.36) rotate(-45)"/>
        </g>
      </g>
      <g>
        <rect class="cls-3" x="59.73" y="26.3" width="48.94" height="44.83"/>
        <g>
          <path class="cls-1" d="M75.77,58.03h0c.5-.29,1.06-.44,1.63-.44h13.61c.57,0,1.13.15,1.63.44h0c2.89,1.67,1.71,6.08-1.63,6.08h-13.61c-3.34,0-4.52-4.42-1.63-6.08Z"/>
          <g>
            <path class="cls-1" d="M80.76,38.7h0c0,.57-.15,1.13-.44,1.63l-6.82,11.82c-.29.5-.7.91-1.19,1.19h0c-2.89,1.66-6.12-1.57-4.45-4.45l6.82-11.82c1.67-2.89,6.08-1.7,6.08,1.63Z"/>
            <path class="cls-1" d="M94.9,52.16l-6.83-11.83c-.29-.5-.44-1.06-.44-1.63h0c0-3.33,4.41-4.52,6.08-1.63l6.83,11.83c1.67,2.89-1.56,6.12-4.45,4.45h0c-.5-.29-.91-.7-1.19-1.19Z"/>
          </g>
        </g>
        <path class="cls-1" d="M81.46,48.2h0c-1.22,2.11.3,4.75,2.74,4.75h0c2.44,0,3.96-2.64,2.74-4.75h0c-1.22-2.11-4.26-2.11-5.48,0Z"/>
      </g>
    </g>
  </g>
</svg>