<svg width="447" height="173" viewBox="0 0 447 173" fill="none" xmlns="http://www.w3.org/2000/svg">
<path d="M363.785 4.01514H110.485V7.64014H362.284L443.015 88.3721V172.404H446.64V86.8721L363.785 4.01514Z" fill="#01FFFF"/>
<path d="M91.0664 5.82906C91.0662 5.15359 91.2663 4.49326 91.6414 3.93154C92.0166 3.36981 92.5499 2.93192 93.1739 2.6733C93.7979 2.41467 94.4845 2.34694 95.147 2.47859C95.8095 2.61025 96.4181 2.93542 96.8958 3.41298C97.3735 3.89054 97.6989 4.49898 97.8307 5.16146C97.9626 5.82393 97.895 6.51065 97.6366 7.13472C97.3781 7.75879 96.9404 8.29221 96.3788 8.6675C95.8172 9.04279 95.1569 9.24306 94.4814 9.24306C94.033 9.24319 93.5889 9.15499 93.1746 8.98348C92.7603 8.81197 92.3838 8.56052 92.0667 8.24349C91.7496 7.92645 91.498 7.55009 91.3264 7.13582C91.1548 6.72155 91.0664 6.27747 91.0664 5.82906Z" fill="#01FFFF"/>
<path d="M73.0029 5.82904C73.0027 5.15362 73.2028 4.49335 73.5779 3.93164C73.953 3.36994 74.4862 2.93206 75.1102 2.6734C75.7341 2.41475 76.4207 2.34694 77.0832 2.47852C77.7457 2.61009 78.3543 2.93514 78.832 3.4126C79.3097 3.89006 79.6352 4.49842 79.7671 5.16083C79.8991 5.82324 79.8317 6.50989 79.5734 7.13397C79.3151 7.75806 78.8775 8.29158 78.316 8.66699C77.7546 9.0424 77.0944 9.24285 76.4189 9.24304C75.9704 9.24331 75.5263 9.15522 75.1118 8.98377C74.6974 8.81231 74.3208 8.56088 74.0036 8.24384C73.6864 7.92679 73.4347 7.55032 73.263 7.13599C73.0913 6.72165 73.0029 6.27754 73.0029 5.82904Z" fill="#01FFFF"/>
<path d="M54.9414 5.82906C54.9412 5.15359 55.1413 4.49326 55.5164 3.93154C55.8916 3.36981 56.4249 2.93192 57.0489 2.6733C57.6729 2.41467 58.3595 2.34694 59.022 2.47859C59.6845 2.61025 60.2931 2.93542 60.7708 3.41298C61.2485 3.89054 61.5739 4.49898 61.7057 5.16146C61.8376 5.82393 61.77 6.51065 61.5116 7.13472C61.2531 7.75879 60.8154 8.29221 60.2538 8.6675C59.6922 9.04279 59.0319 9.24306 58.3564 9.24306C57.908 9.24319 57.4639 9.15499 57.0496 8.98348C56.6353 8.81197 56.2588 8.56052 55.9417 8.24349C55.6246 7.92645 55.373 7.55009 55.2014 7.13582C55.0298 6.72155 54.9414 6.27747 54.9414 5.82906Z" fill="#01FFFF"/>
<path opacity="0.15" d="M36.8779 5.82904C36.8777 5.15362 37.0778 4.49335 37.4529 3.93164C37.828 3.36994 38.3612 2.93206 38.9851 2.6734C39.6091 2.41475 40.2957 2.34694 40.9582 2.47852C41.6207 2.61009 42.2293 2.93514 42.707 3.4126C43.1847 3.89006 43.5102 4.49842 43.6421 5.16083C43.7741 5.82324 43.7067 6.50989 43.4484 7.13397C43.1901 7.75806 42.7525 8.29158 42.191 8.66699C41.6296 9.0424 40.9694 9.24285 40.2939 9.24304C39.8454 9.24331 39.4013 9.15522 38.9868 8.98377C38.5724 8.81231 38.1958 8.56088 37.8786 8.24384C37.5613 7.92679 37.3097 7.55032 37.138 7.13599C36.9663 6.72165 36.8779 6.27754 36.8779 5.82904Z" fill="#01FFFF"/>
<path opacity="0.15" d="M18.8145 5.82903C18.8145 5.1538 19.0147 4.49379 19.3898 3.93236C19.7649 3.37093 20.2981 2.93331 20.922 2.67491C21.5458 2.41652 22.2322 2.34891 22.8945 2.48064C23.5568 2.61237 24.1651 2.93751 24.6425 3.41497C25.12 3.89242 25.4451 4.50076 25.5768 5.16301C25.7086 5.82526 25.641 6.51172 25.3826 7.13555C25.1242 7.75937 24.6866 8.29258 24.1252 8.66771C23.5638 9.04285 22.9037 9.24303 22.2285 9.24303C21.323 9.24303 20.4546 8.88334 19.8144 8.24309C19.1741 7.60284 18.8145 6.73448 18.8145 5.82903Z" fill="#01FFFF"/>
<path opacity="0.15" d="M0.751953 5.82904C0.751756 5.15362 0.951854 4.49335 1.32693 3.93164C1.70202 3.36994 2.23523 2.93206 2.85916 2.6734C3.4831 2.41475 4.16973 2.34694 4.83221 2.47852C5.4947 2.61009 6.10329 2.93514 6.58102 3.4126C7.05876 3.89006 7.38418 4.49842 7.51614 5.16083C7.64811 5.82324 7.58068 6.50989 7.32239 7.13397C7.0641 7.75806 6.62655 8.29158 6.06506 8.66699C5.50358 9.0424 4.84336 9.24285 4.16794 9.24304C3.71944 9.24331 3.27531 9.15522 2.86087 8.98377C2.44643 8.81231 2.06983 8.56088 1.75259 8.24384C1.43536 7.92679 1.18372 7.55032 1.01202 7.13599C0.840329 6.72165 0.751953 6.27754 0.751953 5.82904Z" fill="#01FFFF"/>
<path d="M365.288 0.390137H230.268L239.317 11.2631H360.782L402.876 53.3632L405.525 40.6312L365.288 0.390137Z" fill="#01FFFF"/>
</svg>
