<svg width="376" height="239" viewBox="0 0 376 239" fill="none" xmlns="http://www.w3.org/2000/svg">
<path d="M4.06934 0.505127H0.444336V151.981L0.975342 152.512L83.3024 234.839H266.88V231.214H84.8043L4.06934 150.475V0.505127Z" fill="#01FFFF"/>
<path d="M43.107 184.385L35.416 192.076L81.8 238.461H171.6L180.064 227.585H86.306L43.107 184.385Z" fill="#01FFFF"/>
<path d="M285.289 233.022C285.289 232.346 285.089 231.686 284.714 231.124C284.339 230.563 283.805 230.125 283.181 229.866C282.557 229.608 281.871 229.54 281.208 229.672C280.545 229.803 279.937 230.129 279.459 230.606C278.982 231.084 278.656 231.692 278.525 232.355C278.393 233.018 278.461 233.704 278.719 234.328C278.978 234.952 279.416 235.486 279.977 235.861C280.539 236.236 281.199 236.436 281.875 236.436C282.78 236.436 283.649 236.076 284.289 235.436C284.929 234.796 285.289 233.927 285.289 233.022Z" fill="#01FFFF"/>
<path d="M303.353 233.022C303.354 232.346 303.153 231.686 302.778 231.124C302.403 230.563 301.87 230.125 301.246 229.866C300.622 229.608 299.935 229.54 299.272 229.672C298.61 229.803 298.001 230.129 297.524 230.606C297.046 231.084 296.721 231.692 296.589 232.355C296.457 233.018 296.525 233.704 296.784 234.328C297.042 234.952 297.48 235.486 298.042 235.861C298.604 236.236 299.264 236.436 299.939 236.436C300.845 236.436 301.713 236.076 302.353 235.436C302.993 234.796 303.353 233.927 303.353 233.022Z" fill="#01FFFF"/>
<path d="M321.414 233.022C321.414 232.347 321.214 231.686 320.839 231.124C320.464 230.563 319.931 230.125 319.307 229.866C318.683 229.608 317.996 229.54 317.333 229.671C316.671 229.803 316.062 230.128 315.585 230.606C315.107 231.083 314.782 231.692 314.65 232.354C314.518 233.017 314.585 233.704 314.844 234.328C315.102 234.952 315.54 235.485 316.102 235.86C316.663 236.236 317.324 236.436 317.999 236.436C318.905 236.436 319.773 236.076 320.413 235.436C321.054 234.796 321.414 233.928 321.414 233.022Z" fill="#01FFFF"/>
<path opacity="0.15" d="M339.477 233.022C339.478 232.347 339.278 231.686 338.902 231.125C338.527 230.563 337.994 230.125 337.37 229.866C336.746 229.608 336.06 229.54 335.397 229.671C334.735 229.803 334.126 230.128 333.648 230.605C333.171 231.083 332.845 231.691 332.713 232.354C332.581 233.016 332.649 233.703 332.907 234.327C333.165 234.951 333.603 235.484 334.164 235.86C334.726 236.235 335.386 236.436 336.061 236.436C336.51 236.436 336.954 236.348 337.368 236.176C337.783 236.005 338.159 235.753 338.477 235.436C338.794 235.119 339.045 234.743 339.217 234.329C339.389 233.914 339.477 233.47 339.477 233.022Z" fill="#01FFFF"/>
<path opacity="0.15" d="M357.538 233.022C357.538 232.347 357.338 231.687 356.963 231.125C356.587 230.564 356.054 230.126 355.43 229.868C354.807 229.61 354.12 229.542 353.458 229.674C352.796 229.805 352.187 230.131 351.71 230.608C351.232 231.086 350.907 231.694 350.776 232.356C350.644 233.018 350.711 233.705 350.97 234.329C351.228 234.952 351.666 235.486 352.227 235.861C352.789 236.236 353.449 236.436 354.124 236.436C355.029 236.436 355.898 236.076 356.538 235.436C357.178 234.796 357.538 233.928 357.538 233.022Z" fill="#01FFFF"/>
<path opacity="0.15" d="M375.602 233.022C375.603 232.347 375.403 231.686 375.027 231.125C374.652 230.563 374.119 230.125 373.495 229.866C372.871 229.608 372.185 229.54 371.522 229.671C370.86 229.803 370.251 230.128 369.773 230.605C369.296 231.083 368.97 231.691 368.838 232.354C368.706 233.016 368.774 233.703 369.032 234.327C369.29 234.951 369.728 235.484 370.289 235.86C370.851 236.235 371.511 236.436 372.186 236.436C372.635 236.436 373.079 236.348 373.493 236.176C373.908 236.005 374.284 235.753 374.602 235.436C374.919 235.119 375.17 234.743 375.342 234.329C375.514 233.914 375.602 233.47 375.602 233.022Z" fill="#01FFFF"/>
</svg>
