<svg width="42" height="42" viewBox="0 0 42 42" fill="none" xmlns="http://www.w3.org/2000/svg">
<rect width="42" height="42" rx="5" fill="white"/>
<path d="M5 0C2.24 0 0 2.24 0 5V37C0 39.76 2.24 42 5 42H37C39.76 42 42 39.76 42 37V5C42 2.24 39.76 0 37 0H5ZM21 7C29.27 7 36 12.3592 36 18.9492C36 21.5792 34.9593 23.9608 32.7793 26.3008C31.2093 28.0808 28.6606 30.0402 26.3106 31.6602C23.9606 33.2602 21.8 34.5196 21 34.8496C20.68 34.9796 20.44 35.0391 20.25 35.0391C19.59 35.0391 19.6492 34.3408 19.6992 34.0508C19.7392 33.8308 19.9199 32.7891 19.9199 32.7891C19.9699 32.4191 20.0191 31.8309 19.8691 31.4609C19.6991 31.0509 19.0291 30.8402 18.5391 30.7402C11.3391 29.8002 6 24.8492 6 18.9492C6 12.3592 12.73 7 21 7ZM19.9922 14.9981C19.4884 15.0074 19 15.3919 19 16V22C19 22.552 19.448 23 20 23C20.552 23 21 22.552 21 22V19.1211L23.1856 22.5801C23.7516 23.3721 25 22.973 25 22V16C25 15.448 24.552 15 24 15C23.448 15 23 15.448 23 16V19L20.8144 15.4199C20.6022 15.1229 20.2945 14.9924 19.9922 14.9981ZM11 15C10.448 15 10 15.448 10 16V22C10 22.552 10.448 23 11 23H14C14.552 23 15 22.552 15 22C15 21.448 14.552 21 14 21H12V16C12 15.448 11.552 15 11 15ZM17 15C16.448 15 16 15.448 16 16V22C16 22.552 16.448 23 17 23C17.552 23 18 22.552 18 22V16C18 15.448 17.552 15 17 15ZM27 15C26.448 15 26 15.448 26 16V22C26 22.552 26.448 23 27 23H30C30.552 23 31 22.552 31 22C31 21.448 30.552 21 30 21H28V20H30C30.553 20 31 19.552 31 19C31 18.448 30.553 18 30 18H28V17H30C30.552 17 31 16.552 31 16C31 15.448 30.552 15 30 15H27Z" fill="#01FFFF"/>
</svg>
