<svg width="639" height="75" viewBox="0 0 639 75" fill="none" xmlns="http://www.w3.org/2000/svg">
<path d="M633.076 5.02905H591.676L589.507 6.21301L591.676 7.39703H633.076V26.536L631.976 29.551L638.202 26.536V5.02905H633.076Z" fill="#01FFFF"/>
<path d="M5.34583 34.3192V20.2422L7.51184 20.8892V53.3342L14.2119 55.4562V7.19415H87.8569L83.2678 4.09418H23.1678L21.7678 3.09418H42.1409L39.0359 0.994141H0.816895V32.8782L5.34583 34.3192ZM7.51184 3.49615C9.02584 3.49615 10.2529 4.06318 10.2529 4.76318C10.2529 5.46318 9.02584 6.03015 7.51184 6.03015C5.99784 6.03015 4.77185 5.46318 4.77185 4.76318C4.77185 4.06318 5.99884 3.49615 7.51184 3.49615ZM7.51184 8.91815C9.02584 8.91815 10.2529 9.48618 10.2529 10.1852C10.2529 10.8842 9.02584 11.4521 7.51184 11.4521C5.99784 11.4521 4.77185 10.8852 4.77185 10.1852C4.77185 9.48518 5.99884 8.91815 7.51184 8.91815ZM7.51184 14.3401C9.02584 14.3401 10.2529 14.9082 10.2529 15.6082C10.2529 16.3082 9.02584 16.8752 7.51184 16.8752C5.99784 16.8752 4.77185 16.3082 4.77185 15.6082C4.77185 14.9082 5.99786 14.3412 7.51086 14.3412L7.51184 14.3401Z" fill="#01FFFF"/>
<path d="M637.216 51.5891H635.483V74.8001H637.216V51.5891Z" fill="#006F76"/>
<path d="M622.585 11.1912H617.058V13.7462H622.585V11.1912Z" fill="#01FFFF"/>
<path d="M612.409 11.1912H606.882V13.7462H612.409V11.1912Z" fill="#01FFFF"/>
<path d="M602.234 11.1912H596.707V13.7462H602.234V11.1912Z" fill="#01FFFF"/>
<path d="M592.058 11.1912H586.531V13.7462H592.058V11.1912Z" fill="#01FFFF"/>
<path d="M581.882 11.1912H576.355V13.7462H581.882V11.1912Z" fill="#01FFFF"/>
<path d="M152.929 15.0093H45.2473L41.9253 13.5293H152.925L152.929 15.0093Z" fill="#006F76"/>
<path d="M234.737 4.99829L236.537 6.21326H595.773V4.99829H234.737Z" fill="#01FFFF"/>
<path d="M428.191 12.675H215.233V15.864H428.191V12.675Z" fill="#01FFFF"/>
</svg>
