<svg width="658" height="56" viewBox="0 0 658 56" fill="none" xmlns="http://www.w3.org/2000/svg">
<path d="M430.191 36.6641H217.233V39.8531H430.191V36.6641Z" fill="#01FFFF"/>
<path d="M8.96704 48.2112V25.3113L0 27.9502V54.4032H33.1481L36.254 52.3032H15.8811L17.281 51.3032H181.881L186.471 48.2032L8.96704 48.2112Z" fill="#01FFFF"/>
<path d="M652.716 22.04V36.1171L650.549 35.4701V3.02509L643.849 0.903076V49.1641H570.216L574.805 52.264H634.905L636.305 53.264H615.932L619.038 55.364H657.256V23.4771L652.716 22.04ZM650.549 52.863C649.036 52.863 647.809 52.2951 647.809 51.5951C647.809 50.8951 649.036 50.328 650.549 50.328C652.062 50.328 653.29 50.8961 653.29 51.5951C653.29 52.2941 652.068 52.864 650.553 52.864L650.549 52.863ZM650.549 47.4401C649.036 47.4401 647.809 46.873 647.809 46.173C647.809 45.473 649.036 44.9061 650.549 44.9061C652.062 44.9061 653.29 45.474 653.29 46.173C653.29 46.872 652.068 47.441 650.553 47.441L650.549 47.4401ZM650.549 42.0181C649.036 42.0181 647.809 41.451 647.809 40.751C647.809 40.051 649.036 39.483 650.549 39.483C652.062 39.483 653.29 40.051 653.29 40.751C653.29 41.451 652.068 42.0181 650.553 42.0181H650.549Z" fill="#01FFFF"/>
<path d="M597.772 44.4712H231.624V45.6852H597.772V44.4712Z" fill="#006F76"/>
<path d="M74.4533 38.5762H68.9263V41.1312H74.4533V38.5762Z" fill="#01FFFF"/>
<path d="M64.277 38.5762H58.75V41.1312H64.277V38.5762Z" fill="#01FFFF"/>
<path d="M54.1012 38.5762H48.5742V41.1312H54.1012V38.5762Z" fill="#01FFFF"/>
<path d="M43.9249 38.5762H38.3979V41.1312H43.9249V38.5762Z" fill="#01FFFF"/>
<path d="M33.7501 38.5762H28.2231V41.1312H33.7501V38.5762Z" fill="#01FFFF"/>
<path d="M608.719 39.2581H520.033V37.7791H605.55L608.719 39.2581Z" fill="#006F76"/>
</svg>
