<svg width="42" height="42" viewBox="0 0 42 42" fill="none" xmlns="http://www.w3.org/2000/svg">
<rect x="5" y="5" width="32" height="31" fill="white"/>
<path fill-rule="evenodd" clip-rule="evenodd" d="M5 0C2.23858 0 0 2.23858 0 5V37C0 39.7614 2.23858 42 5 42H37C39.7614 42 42 39.7614 42 37V5C42 2.23858 39.7614 0 37 0H5ZM35.5213 9.29354L30.5867 33.0292C30.4705 33.5896 29.8134 33.8435 29.3497 33.5066L22.6135 28.616C22.2046 28.3191 21.647 28.3349 21.2555 28.6541L17.5207 31.6985C17.0874 32.0529 16.4342 31.8554 16.2682 31.3216L14.4032 25.3236C13.9438 23.8463 12.8264 22.6648 11.377 22.1238L6.97495 20.481C6.29437 20.226 6.28855 19.2652 6.9672 19.0038L34.464 8.39622C35.0469 8.1708 35.6483 8.68145 35.5213 9.29354Z" fill="#01FFFF"/>
<path fill-rule="evenodd" clip-rule="evenodd" d="M29.3231 13.2327L15.6053 21.6814C15.0795 22.0058 14.8321 22.6408 15.0017 23.2352L16.4848 28.4467C16.5903 28.8159 17.1261 28.7782 17.1774 28.3967L17.5629 25.5388C17.6357 25.0007 17.8923 24.5047 18.2903 24.1345L29.6112 13.611C29.8232 13.4147 29.5695 13.0814 29.3231 13.2327Z" fill="#01FFFF"/>
</svg>
